G05
M48
;#@! TF.GenerationSoftware,DesignSpark,DesignSpark PCB PRO,10.0.5299
;#@! TF.CreationDate,2021-08-02T09:18:06--9:00*
;#@! TF.FileFunction,Plated,1,2,Buried
;FILE_FORMAT=3:5
;TYPE=PLATED
INCH,TZ
FMAT,2
T1C000.01600
T2C000.03500
T3C000.11600
%
T001
X1.21189Y0.58002
X1.23689Y1.10502
X1.23689Y1.63002
X1.23689Y1.83002
X1.66189Y0.58002
X1.68689Y1.83002
X1.73689Y1.13002
X1.83689Y0.68002
X1.83689Y1.13002
X1.93689Y0.68002
X1.93689Y1.13002
X2.03689Y0.58002
X2.03689Y0.68002
X2.03689Y1.13002
X2.13689Y0.68002
X2.13689Y1.13002
X2.13689Y1.83002
X2.23689Y0.68002
X2.23689Y1.13002
X2.33689Y0.68002
X2.33704Y1.13002
X2.43689Y1.13002
X2.43704Y0.68002
X2.53689Y0.58002
X2.53689Y0.68002
X2.53689Y1.13002
X2.63689Y0.68002
X2.63689Y1.13002
X2.63689Y1.83002
X2.73689Y1.13002
X2.73781Y0.68002
X2.83689Y0.68002
X2.83689Y1.13002
X2.93689Y1.13002
X2.93750Y0.68002
X3.03689Y0.58002
X3.03689Y0.68002
X3.03689Y1.13002
X3.13689Y1.83002
X3.13704Y1.13002
X3.13843Y0.68002
X3.23689Y0.68002
X3.23689Y1.13002
X3.33687Y0.68002
X3.33689Y1.13002
X3.43689Y1.13002
X3.43796Y0.68002
X3.53655Y0.68002
X3.53689Y0.58002
X3.53689Y1.13002
X3.63689Y0.68002
X3.63689Y1.13002
X3.63689Y1.83002
X3.73689Y0.68002
X3.73689Y1.13002
X3.83689Y0.68002
X3.83689Y1.13002
X3.93689Y0.68002
X3.93704Y1.13002
X4.03689Y0.58002
X4.03689Y0.68002
X4.03689Y1.13002
X4.13689Y0.68002
X4.13689Y1.13002
X4.13689Y1.83002
X4.23689Y0.68002
X4.23689Y1.13002
X4.33689Y1.13002
X4.33779Y0.68002
X4.43689Y1.13002
X4.62439Y0.58002
X4.63689Y1.10502
X4.63689Y1.63002
T002
X1.73810Y1.38002
X1.73810Y1.48002
X1.83810Y1.38002
X1.83810Y1.48002
X1.93810Y1.38002
X1.93810Y1.48002
X2.03810Y1.38002
X2.03810Y1.48002
X2.13810Y1.38002
X2.13810Y1.48002
X2.23810Y1.38002
X2.23810Y1.48002
X2.33810Y1.38002
X2.33810Y1.48002
X2.43810Y1.38002
X2.43810Y1.48002
X2.53810Y1.38002
X2.53810Y1.48002
X2.63810Y1.38002
X2.63810Y1.48002
X2.73810Y1.38002
X2.73810Y1.48002
X2.83810Y1.38002
X2.83810Y1.48002
X2.93810Y1.38002
X2.93810Y1.48002
X3.03810Y1.38002
X3.03810Y1.48002
X3.13810Y1.38002
X3.13810Y1.48002
X3.23810Y1.38002
X3.23810Y1.48002
X3.33810Y1.38002
X3.33810Y1.48002
X3.43810Y1.38002
X3.43810Y1.48002
X3.53810Y1.38002
X3.53810Y1.48002
X3.63810Y1.38002
X3.63810Y1.48002
X3.73810Y1.38002
X3.73810Y1.48002
X3.83810Y1.38002
X3.83810Y1.48002
X3.93810Y1.38002
X3.93810Y1.48002
X4.03810Y1.38002
X4.03810Y1.48002
X4.13810Y1.38002
X4.13810Y1.48002
T003
X1.38610Y1.42002
X4.49010Y1.42002
M30
