G04 DesignSpark PCB PRO Gerber Version 10.0 Build 5299*
G04 #@! TF.Part,Single*
G04 #@! TF.FileFunction,Copper,L1,Top*
G04 #@! TF.FilePolarity,Positive*
%FSLAX35Y35*%
%MOIN*%
G04 #@! TA.AperFunction,SMDPad,CuDef*
%ADD95R,0.06693X0.29528*%
%ADD94R,0.06693X0.35433*%
G04 #@! TA.AperFunction,ComponentPad*
%ADD120R,0.05250X0.05250*%
G04 #@! TD.AperFunction*
%ADD23C,0.00500*%
%ADD86C,0.01000*%
%ADD89C,0.01500*%
G04 #@! TA.AperFunction,ViaPad*
%ADD92C,0.03200*%
G04 #@! TA.AperFunction,ComponentPad*
%ADD121C,0.05250*%
%ADD122C,0.17400*%
G04 #@! TD.AperFunction*
X0Y0D02*
D02*
D23*
X118998Y186751D02*
Y55610D01*
X138744D01*
G75*
G02*
X141213Y53142I0J-2469D01*
G01*
Y52018D01*
X194313D01*
Y53039D01*
G75*
G02*
Y53048I1867J5D01*
G01*
G75*
G02*
Y53057I1765J5D01*
G01*
G75*
G02*
Y53067I1867J5D01*
G01*
G75*
G02*
Y53076I1765J5D01*
G01*
Y53909D01*
X194557D01*
X196737Y57687D01*
X177556Y76869D01*
G75*
G02*
X177336Y78861I1133J1133D01*
G01*
Y142563D01*
X176115Y143784D01*
X172961Y144630D01*
G75*
G02*
X173810Y151480I849J3372D01*
G01*
G75*
G02*
X177183Y148851I0J-3478D01*
G01*
X178028Y145697D01*
X179644Y144081D01*
G75*
G02*
X180041Y143124I-955J-957D01*
G01*
Y78916D01*
X199643Y59314D01*
G75*
G02*
X200114Y58179I-1131J-1135D01*
G01*
Y57984D01*
X202466Y53909D01*
X202710D01*
Y53076D01*
G75*
G02*
Y53067I-1789J-4D01*
G01*
G75*
G02*
Y53057I-1841J-5D01*
G01*
G75*
G02*
Y53048I-1789J-4D01*
G01*
G75*
G02*
Y53039I-1841J-5D01*
G01*
Y52018D01*
X204313D01*
Y53039D01*
G75*
G02*
Y53048I1867J5D01*
G01*
G75*
G02*
Y53057I1765J5D01*
G01*
G75*
G02*
Y53067I1867J5D01*
G01*
G75*
G02*
Y53076I1765J5D01*
G01*
Y53909D01*
X204557D01*
X206797Y57791D01*
X187556Y77032D01*
G75*
G02*
X187336Y79025I1133J1133D01*
G01*
Y142563D01*
X186115Y143784D01*
X182961Y144630D01*
G75*
G02*
X183810Y151480I849J3372D01*
G01*
G75*
G02*
X187183Y148851I0J-3478D01*
G01*
X188028Y145697D01*
X189644Y144081D01*
G75*
G02*
X190041Y143124I-955J-957D01*
G01*
Y79079D01*
X209643Y59478D01*
G75*
G02*
X210114Y58343I-1131J-1135D01*
G01*
Y57984D01*
X212466Y53909D01*
X212710D01*
Y53076D01*
G75*
G02*
Y53067I-1789J-4D01*
G01*
G75*
G02*
Y53057I-1841J-5D01*
G01*
G75*
G02*
Y53048I-1789J-4D01*
G01*
G75*
G02*
Y53039I-1841J-5D01*
G01*
Y52018D01*
X214313D01*
Y53039D01*
G75*
G02*
Y53048I1867J5D01*
G01*
G75*
G02*
Y53057I1765J5D01*
G01*
G75*
G02*
Y53067I1867J5D01*
G01*
G75*
G02*
Y53076I1765J5D01*
G01*
Y53909D01*
X214557D01*
X216534Y57335D01*
X197888Y75981D01*
G75*
G02*
X197669Y77973I1133J1133D01*
G01*
Y142231D01*
X196115Y143784D01*
X192961Y144630D01*
G75*
G02*
X193810Y151480I849J3372D01*
G01*
G75*
G02*
X197183Y148851I0J-3478D01*
G01*
X198028Y145697D01*
X199976Y143748D01*
G75*
G02*
X200374Y142791I-955J-957D01*
G01*
Y138534D01*
G75*
G02*
X207288Y138002I3437J-532D01*
G01*
G75*
G02*
X200374Y137470I-3478J0D01*
G01*
Y78028D01*
X219643Y58759D01*
G75*
G02*
X220035Y58121I-1131J-1135D01*
G01*
X222466Y53909D01*
X222710D01*
Y53076D01*
G75*
G02*
Y53067I-1789J-4D01*
G01*
G75*
G02*
Y53057I-1841J-5D01*
G01*
G75*
G02*
Y53048I-1789J-4D01*
G01*
G75*
G02*
Y53039I-1841J-5D01*
G01*
Y52018D01*
X224313D01*
Y53039D01*
G75*
G02*
Y53048I1867J5D01*
G01*
G75*
G02*
Y53057I1765J5D01*
G01*
G75*
G02*
Y53067I1867J5D01*
G01*
G75*
G02*
Y53076I1765J5D01*
G01*
Y53909D01*
X224557D01*
X226737Y57687D01*
X207556Y76869D01*
G75*
G02*
X207336Y78861I1133J1133D01*
G01*
Y142563D01*
X206115Y143784D01*
X202961Y144630D01*
G75*
G02*
X203810Y151480I849J3372D01*
G01*
G75*
G02*
X207183Y148851I0J-3478D01*
G01*
X208028Y145697D01*
X209644Y144081D01*
G75*
G02*
X210041Y143124I-955J-957D01*
G01*
Y78916D01*
X229643Y59314D01*
G75*
G02*
X230114Y58179I-1131J-1135D01*
G01*
Y57984D01*
X232466Y53909D01*
X232710D01*
Y53076D01*
G75*
G02*
Y53067I-1789J-4D01*
G01*
G75*
G02*
Y53057I-1841J-5D01*
G01*
G75*
G02*
Y53048I-1789J-4D01*
G01*
G75*
G02*
Y53039I-1841J-5D01*
G01*
Y52018D01*
X234313D01*
Y53039D01*
G75*
G02*
Y53048I1867J5D01*
G01*
G75*
G02*
Y53057I1765J5D01*
G01*
G75*
G02*
Y53067I1867J5D01*
G01*
G75*
G02*
Y53076I1765J5D01*
G01*
Y53909D01*
X234557D01*
X236737Y57687D01*
X217556Y76869D01*
G75*
G02*
X217336Y78861I1133J1133D01*
G01*
Y142563D01*
X216115Y143784D01*
X212961Y144630D01*
G75*
G02*
X213810Y151480I849J3372D01*
G01*
G75*
G02*
X217183Y148851I0J-3478D01*
G01*
X218028Y145697D01*
X219644Y144081D01*
G75*
G02*
X220041Y143124I-955J-957D01*
G01*
Y78916D01*
X239643Y59314D01*
G75*
G02*
X240114Y58179I-1131J-1135D01*
G01*
Y57984D01*
X242466Y53909D01*
X242710D01*
Y53076D01*
G75*
G02*
Y53067I-1789J-4D01*
G01*
G75*
G02*
Y53057I-1841J-5D01*
G01*
G75*
G02*
Y53048I-1789J-4D01*
G01*
G75*
G02*
Y53039I-1841J-5D01*
G01*
Y52018D01*
X244313D01*
Y53039D01*
G75*
G02*
Y53048I1867J5D01*
G01*
G75*
G02*
Y53057I1765J5D01*
G01*
G75*
G02*
Y53067I1867J5D01*
G01*
G75*
G02*
Y53076I1765J5D01*
G01*
Y53909D01*
X244557D01*
X246737Y57687D01*
X227556Y76869D01*
G75*
G02*
X227336Y78861I1133J1133D01*
G01*
Y142563D01*
X226115Y143784D01*
X222961Y144630D01*
G75*
G02*
X223810Y151480I849J3372D01*
G01*
G75*
G02*
X227183Y148851I0J-3478D01*
G01*
X228028Y145697D01*
X229644Y144081D01*
G75*
G02*
X230041Y143124I-955J-957D01*
G01*
Y78916D01*
X249227Y59730D01*
G75*
G02*
X250114Y58296I-715J-1434D01*
G01*
Y57984D01*
X252466Y53909D01*
X252710D01*
Y53076D01*
G75*
G02*
Y53067I-1789J-4D01*
G01*
G75*
G02*
Y53057I-1841J-5D01*
G01*
G75*
G02*
Y53048I-1789J-4D01*
G01*
G75*
G02*
Y53039I-1841J-5D01*
G01*
Y52018D01*
X254313D01*
Y53039D01*
G75*
G02*
Y53048I1867J5D01*
G01*
G75*
G02*
Y53057I1765J5D01*
G01*
G75*
G02*
Y53067I1867J5D01*
G01*
G75*
G02*
Y53076I1765J5D01*
G01*
Y53909D01*
X254557D01*
X256673Y57574D01*
X237557Y76690D01*
G75*
G02*
X237086Y77825I1131J1135D01*
G01*
Y78002D01*
G75*
G02*
X237336Y78861I1602J0D01*
G01*
Y142563D01*
X236115Y143784D01*
X232961Y144630D01*
G75*
G02*
X233810Y151480I849J3372D01*
G01*
G75*
G02*
X237183Y148851I0J-3478D01*
G01*
X238028Y145697D01*
X239644Y144081D01*
G75*
G02*
X240041Y143124I-955J-957D01*
G01*
Y78861D01*
G75*
G02*
X240172Y78607I-1353J-859D01*
G01*
X259643Y59137D01*
G75*
G02*
X260114Y58002I-1131J-1135D01*
G01*
Y57984D01*
X262466Y53909D01*
X262710D01*
Y53076D01*
G75*
G02*
Y53067I-1789J-4D01*
G01*
G75*
G02*
Y53057I-1841J-5D01*
G01*
G75*
G02*
Y53048I-1789J-4D01*
G01*
G75*
G02*
Y53039I-1841J-5D01*
G01*
Y52018D01*
X264313D01*
Y53039D01*
G75*
G02*
Y53048I1867J5D01*
G01*
G75*
G02*
Y53057I1765J5D01*
G01*
G75*
G02*
Y53067I1867J5D01*
G01*
G75*
G02*
Y53076I1765J5D01*
G01*
Y53909D01*
X264557D01*
X266737Y57687D01*
X247556Y76869D01*
G75*
G02*
X247336Y78861I1133J1133D01*
G01*
Y142563D01*
X246115Y143784D01*
X242961Y144630D01*
G75*
G02*
X243810Y151480I849J3372D01*
G01*
G75*
G02*
X247183Y148851I0J-3478D01*
G01*
X248028Y145697D01*
X249644Y144081D01*
G75*
G02*
X250041Y143124I-955J-957D01*
G01*
Y78916D01*
X269643Y59314D01*
G75*
G02*
X270114Y58179I-1131J-1135D01*
G01*
Y57984D01*
X272466Y53909D01*
X272710D01*
Y53076D01*
G75*
G02*
Y53067I-1789J-4D01*
G01*
G75*
G02*
Y53057I-1841J-5D01*
G01*
G75*
G02*
Y53048I-1789J-4D01*
G01*
G75*
G02*
Y53039I-1841J-5D01*
G01*
Y52018D01*
X274313D01*
Y53039D01*
G75*
G02*
Y53048I1867J5D01*
G01*
G75*
G02*
Y53057I1765J5D01*
G01*
G75*
G02*
Y53067I1867J5D01*
G01*
G75*
G02*
Y53076I1765J5D01*
G01*
Y53909D01*
X274557D01*
X276737Y57687D01*
X257556Y76869D01*
G75*
G02*
X257336Y78861I1133J1133D01*
G01*
Y142563D01*
X256115Y143784D01*
X252961Y144630D01*
G75*
G02*
X253810Y151480I849J3372D01*
G01*
G75*
G02*
X257183Y148851I0J-3478D01*
G01*
X258028Y145697D01*
X259644Y144081D01*
G75*
G02*
X260041Y143124I-955J-957D01*
G01*
Y78916D01*
X279643Y59314D01*
G75*
G02*
X280114Y58179I-1131J-1135D01*
G01*
Y57984D01*
X282466Y53909D01*
X282710D01*
Y53076D01*
G75*
G02*
Y53067I-1789J-4D01*
G01*
G75*
G02*
Y53057I-1841J-5D01*
G01*
G75*
G02*
Y53048I-1789J-4D01*
G01*
G75*
G02*
Y53039I-1841J-5D01*
G01*
Y52018D01*
X284313D01*
Y53039D01*
G75*
G02*
Y53048I1867J5D01*
G01*
G75*
G02*
Y53057I1765J5D01*
G01*
G75*
G02*
Y53067I1867J5D01*
G01*
G75*
G02*
Y53076I1765J5D01*
G01*
Y53909D01*
X284557D01*
X286737Y57687D01*
X267556Y76869D01*
G75*
G02*
X267336Y78861I1133J1133D01*
G01*
Y142563D01*
X266115Y143784D01*
X262961Y144630D01*
G75*
G02*
X263810Y151480I849J3372D01*
G01*
G75*
G02*
X267183Y148851I0J-3478D01*
G01*
X268028Y145697D01*
X269644Y144081D01*
G75*
G02*
X270041Y143124I-955J-957D01*
G01*
Y78916D01*
X289643Y59314D01*
G75*
G02*
X290114Y58179I-1131J-1135D01*
G01*
Y57984D01*
X292466Y53909D01*
X292710D01*
Y53076D01*
G75*
G02*
Y53067I-1789J-4D01*
G01*
G75*
G02*
Y53057I-1841J-5D01*
G01*
G75*
G02*
Y53048I-1789J-4D01*
G01*
G75*
G02*
Y53039I-1841J-5D01*
G01*
Y52018D01*
X294313D01*
Y53039D01*
G75*
G02*
Y53048I1867J5D01*
G01*
G75*
G02*
Y53057I1765J5D01*
G01*
G75*
G02*
Y53067I1867J5D01*
G01*
G75*
G02*
Y53076I1765J5D01*
G01*
Y53909D01*
X294557D01*
X296737Y57687D01*
X277556Y76869D01*
G75*
G02*
X277336Y78861I1133J1133D01*
G01*
Y142563D01*
X276115Y143784D01*
X272961Y144630D01*
G75*
G02*
X273810Y151480I849J3372D01*
G01*
G75*
G02*
X277183Y148851I0J-3478D01*
G01*
X278028Y145697D01*
X279644Y144081D01*
G75*
G02*
X280041Y143124I-955J-957D01*
G01*
Y78916D01*
X299643Y59314D01*
G75*
G02*
X300114Y58179I-1131J-1135D01*
G01*
Y57984D01*
X302466Y53909D01*
X302710D01*
Y53076D01*
G75*
G02*
Y53067I-1789J-4D01*
G01*
G75*
G02*
Y53057I-1841J-5D01*
G01*
G75*
G02*
Y53048I-1789J-4D01*
G01*
G75*
G02*
Y53039I-1841J-5D01*
G01*
Y52018D01*
X304313D01*
Y53039D01*
G75*
G02*
Y53048I1867J5D01*
G01*
G75*
G02*
Y53057I1765J5D01*
G01*
G75*
G02*
Y53067I1867J5D01*
G01*
G75*
G02*
Y53076I1765J5D01*
G01*
Y53909D01*
X304557D01*
X306737Y57687D01*
X287556Y76869D01*
G75*
G02*
X287336Y78861I1133J1133D01*
G01*
Y142563D01*
X286115Y143784D01*
X282961Y144630D01*
G75*
G02*
X283810Y151480I849J3372D01*
G01*
G75*
G02*
X287183Y148851I0J-3478D01*
G01*
X288028Y145697D01*
X289644Y144081D01*
G75*
G02*
X290041Y143124I-955J-957D01*
G01*
Y78916D01*
X309643Y59314D01*
G75*
G02*
X310114Y58179I-1131J-1135D01*
G01*
Y57984D01*
X312466Y53909D01*
X312710D01*
Y53076D01*
G75*
G02*
Y53067I-1789J-4D01*
G01*
G75*
G02*
Y53057I-1841J-5D01*
G01*
G75*
G02*
Y53048I-1789J-4D01*
G01*
G75*
G02*
Y53039I-1841J-5D01*
G01*
Y52018D01*
X314313D01*
Y53039D01*
G75*
G02*
Y53048I1867J5D01*
G01*
G75*
G02*
Y53057I1765J5D01*
G01*
G75*
G02*
Y53067I1867J5D01*
G01*
G75*
G02*
Y53076I1765J5D01*
G01*
Y53909D01*
X314557D01*
X316737Y57687D01*
X297556Y76869D01*
G75*
G02*
X297336Y78861I1133J1133D01*
G01*
Y142563D01*
X296115Y143784D01*
X292961Y144630D01*
G75*
G02*
X293810Y151480I849J3372D01*
G01*
G75*
G02*
X297183Y148851I0J-3478D01*
G01*
X298028Y145697D01*
X299644Y144081D01*
G75*
G02*
X300041Y143124I-955J-957D01*
G01*
Y78916D01*
X319643Y59314D01*
G75*
G02*
X320114Y58179I-1131J-1135D01*
G01*
Y57984D01*
X322466Y53909D01*
X322710D01*
Y53076D01*
G75*
G02*
Y53067I-1789J-4D01*
G01*
G75*
G02*
Y53057I-1841J-5D01*
G01*
G75*
G02*
Y53048I-1789J-4D01*
G01*
G75*
G02*
Y53039I-1841J-5D01*
G01*
Y52018D01*
X324313D01*
Y53039D01*
G75*
G02*
Y53048I1867J5D01*
G01*
G75*
G02*
Y53057I1765J5D01*
G01*
G75*
G02*
Y53067I1867J5D01*
G01*
G75*
G02*
Y53076I1765J5D01*
G01*
Y53909D01*
X324557D01*
X326737Y57687D01*
X307556Y76869D01*
G75*
G02*
X307336Y78861I1133J1133D01*
G01*
Y142563D01*
X306115Y143784D01*
X302961Y144630D01*
G75*
G02*
X303810Y151480I849J3372D01*
G01*
G75*
G02*
X307183Y148851I0J-3478D01*
G01*
X308028Y145697D01*
X309644Y144081D01*
G75*
G02*
X310041Y143124I-955J-957D01*
G01*
Y78916D01*
X329643Y59314D01*
G75*
G02*
X330114Y58179I-1131J-1135D01*
G01*
Y57984D01*
X332466Y53909D01*
X332710D01*
Y53076D01*
G75*
G02*
Y53067I-1789J-4D01*
G01*
G75*
G02*
Y53057I-1841J-5D01*
G01*
G75*
G02*
Y53048I-1789J-4D01*
G01*
G75*
G02*
Y53039I-1841J-5D01*
G01*
Y52018D01*
X334313D01*
Y53039D01*
G75*
G02*
Y53048I1867J5D01*
G01*
G75*
G02*
Y53057I1765J5D01*
G01*
G75*
G02*
Y53067I1867J5D01*
G01*
G75*
G02*
Y53076I1765J5D01*
G01*
Y53909D01*
X334557D01*
X336737Y57687D01*
X317556Y76869D01*
G75*
G02*
X317336Y78861I1133J1133D01*
G01*
Y142563D01*
X316115Y143784D01*
X312961Y144630D01*
G75*
G02*
X313810Y151480I849J3372D01*
G01*
G75*
G02*
X317183Y148851I0J-3478D01*
G01*
X318028Y145697D01*
X319644Y144081D01*
G75*
G02*
X320041Y143124I-955J-957D01*
G01*
Y78916D01*
X339643Y59314D01*
G75*
G02*
X340114Y58179I-1131J-1135D01*
G01*
Y57984D01*
X342466Y53909D01*
X342710D01*
Y53076D01*
G75*
G02*
Y53067I-1789J-4D01*
G01*
G75*
G02*
Y53057I-1841J-5D01*
G01*
G75*
G02*
Y53048I-1789J-4D01*
G01*
G75*
G02*
Y53039I-1841J-5D01*
G01*
Y52018D01*
X344313D01*
Y53039D01*
G75*
G02*
Y53048I1867J5D01*
G01*
G75*
G02*
Y53057I1765J5D01*
G01*
G75*
G02*
Y53067I1867J5D01*
G01*
G75*
G02*
Y53076I1765J5D01*
G01*
Y53909D01*
X344557D01*
X346737Y57687D01*
X327556Y76869D01*
G75*
G02*
X327336Y78861I1133J1133D01*
G01*
Y142563D01*
X326115Y143784D01*
X322961Y144630D01*
G75*
G02*
X323810Y151480I849J3372D01*
G01*
G75*
G02*
X327183Y148851I0J-3478D01*
G01*
X328028Y145697D01*
X329644Y144081D01*
G75*
G02*
X330041Y143124I-955J-957D01*
G01*
Y78916D01*
X349643Y59314D01*
G75*
G02*
X350114Y58179I-1131J-1135D01*
G01*
Y57984D01*
X352466Y53909D01*
X352710D01*
Y53076D01*
G75*
G02*
Y53067I-1789J-4D01*
G01*
G75*
G02*
Y53057I-1841J-5D01*
G01*
G75*
G02*
Y53048I-1789J-4D01*
G01*
G75*
G02*
Y53039I-1841J-5D01*
G01*
Y52018D01*
X354313D01*
Y53039D01*
G75*
G02*
Y53048I1867J5D01*
G01*
G75*
G02*
Y53057I1765J5D01*
G01*
G75*
G02*
Y53067I1867J5D01*
G01*
G75*
G02*
Y53076I1765J5D01*
G01*
Y53909D01*
X354557D01*
X356737Y57687D01*
X337556Y76869D01*
G75*
G02*
X337336Y78861I1133J1133D01*
G01*
Y142563D01*
X336115Y143784D01*
X332961Y144630D01*
G75*
G02*
X333810Y151480I849J3372D01*
G01*
G75*
G02*
X337183Y148851I0J-3478D01*
G01*
X338028Y145697D01*
X339644Y144081D01*
G75*
G02*
X340041Y143124I-955J-957D01*
G01*
Y78916D01*
X359643Y59314D01*
G75*
G02*
X360114Y58179I-1131J-1135D01*
G01*
Y57984D01*
X362466Y53909D01*
X362710D01*
Y53076D01*
G75*
G02*
Y53067I-1789J-4D01*
G01*
G75*
G02*
Y53057I-1841J-5D01*
G01*
G75*
G02*
Y53048I-1789J-4D01*
G01*
G75*
G02*
Y53039I-1841J-5D01*
G01*
Y52018D01*
X364313D01*
Y53039D01*
G75*
G02*
Y53048I1867J5D01*
G01*
G75*
G02*
Y53057I1765J5D01*
G01*
G75*
G02*
Y53067I1867J5D01*
G01*
G75*
G02*
Y53076I1765J5D01*
G01*
Y53909D01*
X364557D01*
X366737Y57687D01*
X347556Y76869D01*
G75*
G02*
X347336Y78861I1133J1133D01*
G01*
Y142563D01*
X346115Y143784D01*
X342961Y144630D01*
G75*
G02*
X343810Y151480I849J3372D01*
G01*
G75*
G02*
X347183Y148851I0J-3478D01*
G01*
X348028Y145697D01*
X349644Y144081D01*
G75*
G02*
X350041Y143124I-955J-957D01*
G01*
Y78916D01*
X369643Y59314D01*
G75*
G02*
X370114Y58179I-1131J-1135D01*
G01*
Y57984D01*
X372466Y53909D01*
X372710D01*
Y53076D01*
G75*
G02*
Y53067I-1789J-4D01*
G01*
G75*
G02*
Y53057I-1841J-5D01*
G01*
G75*
G02*
Y53048I-1789J-4D01*
G01*
G75*
G02*
Y53039I-1841J-5D01*
G01*
Y52018D01*
X374313D01*
Y53039D01*
G75*
G02*
Y53048I1867J5D01*
G01*
G75*
G02*
Y53057I1765J5D01*
G01*
G75*
G02*
Y53067I1867J5D01*
G01*
G75*
G02*
Y53076I1765J5D01*
G01*
Y53909D01*
X374557D01*
X376737Y57687D01*
X357556Y76869D01*
G75*
G02*
X357336Y78861I1133J1133D01*
G01*
Y142563D01*
X356115Y143784D01*
X352961Y144630D01*
G75*
G02*
X353810Y151480I849J3372D01*
G01*
G75*
G02*
X357183Y148851I0J-3478D01*
G01*
X358028Y145697D01*
X359644Y144081D01*
G75*
G02*
X360041Y143124I-955J-957D01*
G01*
Y78916D01*
X378879Y60078D01*
G75*
G02*
X380114Y58518I-368J-1560D01*
G01*
Y57984D01*
X382466Y53909D01*
X382710D01*
Y53076D01*
G75*
G02*
Y53067I-1789J-4D01*
G01*
G75*
G02*
Y53057I-1841J-5D01*
G01*
G75*
G02*
Y53048I-1789J-4D01*
G01*
G75*
G02*
Y53039I-1841J-5D01*
G01*
Y52018D01*
X384313D01*
Y53039D01*
G75*
G02*
Y53048I1867J5D01*
G01*
G75*
G02*
Y53057I1765J5D01*
G01*
G75*
G02*
Y53067I1867J5D01*
G01*
G75*
G02*
Y53076I1765J5D01*
G01*
Y53909D01*
X384557D01*
X386737Y57687D01*
X367556Y76869D01*
G75*
G02*
X367336Y78861I1133J1133D01*
G01*
Y142563D01*
X366115Y143784D01*
X362961Y144630D01*
G75*
G02*
X363810Y151480I849J3372D01*
G01*
G75*
G02*
X367183Y148851I0J-3478D01*
G01*
X368028Y145697D01*
X369644Y144081D01*
G75*
G02*
X370041Y143124I-955J-957D01*
G01*
Y138902D01*
G75*
G02*
X377336Y139609I3769J-900D01*
G01*
Y142563D01*
X376115Y143784D01*
X372961Y144630D01*
G75*
G02*
X373810Y151480I849J3372D01*
G01*
G75*
G02*
X377183Y148851I0J-3478D01*
G01*
X378028Y145697D01*
X379644Y144081D01*
G75*
G02*
X380041Y143124I-955J-957D01*
G01*
Y138902D01*
G75*
G02*
X387336Y139609I3769J-900D01*
G01*
Y142563D01*
X386115Y143784D01*
X382961Y144630D01*
G75*
G02*
X383810Y151480I849J3372D01*
G01*
G75*
G02*
X387183Y148851I0J-3478D01*
G01*
X388028Y145697D01*
X389644Y144081D01*
G75*
G02*
X390041Y143124I-955J-957D01*
G01*
Y78916D01*
X409213Y59744D01*
G75*
G02*
X410114Y58303I-701J-1441D01*
G01*
Y57984D01*
X412466Y53909D01*
X412710D01*
Y53076D01*
G75*
G02*
Y53067I-1789J-4D01*
G01*
G75*
G02*
Y53057I-1841J-5D01*
G01*
G75*
G02*
Y53048I-1789J-4D01*
G01*
G75*
G02*
Y53039I-1841J-5D01*
G01*
Y52018D01*
X414313D01*
Y53039D01*
G75*
G02*
Y53048I1867J5D01*
G01*
G75*
G02*
Y53057I1765J5D01*
G01*
G75*
G02*
Y53067I1867J5D01*
G01*
G75*
G02*
Y53076I1765J5D01*
G01*
Y53909D01*
X414557D01*
X416737Y57687D01*
X397556Y76869D01*
G75*
G02*
X397336Y78861I1133J1133D01*
G01*
Y142563D01*
X396115Y143784D01*
X392961Y144630D01*
G75*
G02*
X393810Y151480I849J3372D01*
G01*
G75*
G02*
X397183Y148851I0J-3478D01*
G01*
X398028Y145697D01*
X399644Y144081D01*
G75*
G02*
X400041Y143124I-955J-957D01*
G01*
Y78916D01*
X419643Y59314D01*
G75*
G02*
X420114Y58179I-1131J-1135D01*
G01*
Y57984D01*
X422466Y53909D01*
X422710D01*
Y53076D01*
G75*
G02*
Y53067I-1789J-4D01*
G01*
G75*
G02*
Y53057I-1841J-5D01*
G01*
G75*
G02*
Y53048I-1789J-4D01*
G01*
G75*
G02*
Y53039I-1841J-5D01*
G01*
Y52018D01*
X424313D01*
Y53039D01*
G75*
G02*
Y53048I1867J5D01*
G01*
G75*
G02*
Y53057I1765J5D01*
G01*
G75*
G02*
Y53067I1867J5D01*
G01*
G75*
G02*
Y53076I1765J5D01*
G01*
Y53909D01*
X424557D01*
X426737Y57687D01*
X407556Y76869D01*
G75*
G02*
X407336Y78861I1133J1133D01*
G01*
Y142563D01*
X406115Y143784D01*
X402961Y144630D01*
G75*
G02*
X403810Y151480I849J3372D01*
G01*
G75*
G02*
X407183Y148851I0J-3478D01*
G01*
X408028Y145697D01*
X409644Y144081D01*
G75*
G02*
X410041Y143124I-955J-957D01*
G01*
Y78916D01*
X429441Y59516D01*
G75*
G02*
X430114Y58211I-929J-1306D01*
G01*
Y57984D01*
X432466Y53909D01*
X432710D01*
Y53076D01*
G75*
G02*
Y53067I-1789J-4D01*
G01*
G75*
G02*
Y53057I-1841J-5D01*
G01*
G75*
G02*
Y53048I-1789J-4D01*
G01*
G75*
G02*
Y53039I-1841J-5D01*
G01*
Y52018D01*
X434313D01*
Y53039D01*
G75*
G02*
Y53048I1867J5D01*
G01*
G75*
G02*
Y53057I1765J5D01*
G01*
G75*
G02*
Y53067I1867J5D01*
G01*
G75*
G02*
Y53076I1765J5D01*
G01*
Y53909D01*
X434557D01*
X436737Y57687D01*
X417556Y76869D01*
G75*
G02*
X417336Y78861I1133J1133D01*
G01*
Y142563D01*
X416115Y143784D01*
X412961Y144630D01*
G75*
G02*
X413810Y151480I849J3372D01*
G01*
G75*
G02*
X417183Y148851I0J-3478D01*
G01*
X418028Y145697D01*
X419644Y144081D01*
G75*
G02*
X420041Y143124I-955J-957D01*
G01*
Y78916D01*
X439643Y59314D01*
G75*
G02*
X440114Y58179I-1131J-1135D01*
G01*
Y57984D01*
X442466Y53909D01*
X442710D01*
Y53076D01*
G75*
G02*
Y53067I-1789J-4D01*
G01*
G75*
G02*
Y53057I-1841J-5D01*
G01*
G75*
G02*
Y53048I-1789J-4D01*
G01*
G75*
G02*
Y53039I-1841J-5D01*
G01*
Y52018D01*
X445787D01*
Y53391D01*
G75*
G02*
X448256Y55860I2469J0D01*
G01*
X468127D01*
Y187243D01*
G75*
G03*
X467023Y188348I-1104J0D01*
G01*
X120594D01*
G75*
G03*
X118998Y186751I0J-1596D01*
G01*
X129058Y142002D02*
G75*
G02*
X148163I9552J0D01*
G01*
G75*
G02*
X129058I-9552J0D01*
G01*
X439458D02*
G75*
G02*
X458563I9552J0D01*
G01*
G75*
G02*
X439458I-9552J0D01*
G01*
X170334Y141478D02*
X177287D01*
Y134526D01*
X170334D01*
Y141478D01*
X180333Y138002D02*
G75*
G02*
X187288I3478J0D01*
G01*
G75*
G02*
X180333I-3478J0D01*
G01*
X190333D02*
G75*
G02*
X197288I3478J0D01*
G01*
G75*
G02*
X190333I-3478J0D01*
G01*
X210333D02*
G75*
G02*
X217288I3478J0D01*
G01*
G75*
G02*
X210333I-3478J0D01*
G01*
X220333D02*
G75*
G02*
X227288I3478J0D01*
G01*
G75*
G02*
X220333I-3478J0D01*
G01*
X230333D02*
G75*
G02*
X237288I3478J0D01*
G01*
G75*
G02*
X230333I-3478J0D01*
G01*
X240333D02*
G75*
G02*
X247288I3478J0D01*
G01*
G75*
G02*
X240333I-3478J0D01*
G01*
X250333D02*
G75*
G02*
X257288I3478J0D01*
G01*
G75*
G02*
X250333I-3478J0D01*
G01*
X260333D02*
G75*
G02*
X267288I3478J0D01*
G01*
G75*
G02*
X260333I-3478J0D01*
G01*
X270333D02*
G75*
G02*
X277288I3478J0D01*
G01*
G75*
G02*
X270333I-3478J0D01*
G01*
X280333D02*
G75*
G02*
X287288I3478J0D01*
G01*
G75*
G02*
X280333I-3478J0D01*
G01*
X290333D02*
G75*
G02*
X297288I3478J0D01*
G01*
G75*
G02*
X290333I-3478J0D01*
G01*
X300333D02*
G75*
G02*
X307288I3478J0D01*
G01*
G75*
G02*
X300333I-3478J0D01*
G01*
X310333D02*
G75*
G02*
X317288I3478J0D01*
G01*
G75*
G02*
X310333I-3478J0D01*
G01*
X320333D02*
G75*
G02*
X327288I3478J0D01*
G01*
G75*
G02*
X320333I-3478J0D01*
G01*
X330333D02*
G75*
G02*
X337288I3478J0D01*
G01*
G75*
G02*
X330333I-3478J0D01*
G01*
X340333D02*
G75*
G02*
X347288I3478J0D01*
G01*
G75*
G02*
X340333I-3478J0D01*
G01*
X350333D02*
G75*
G02*
X357288I3478J0D01*
G01*
G75*
G02*
X350333I-3478J0D01*
G01*
X360333D02*
G75*
G02*
X367288I3478J0D01*
G01*
G75*
G02*
X360333I-3478J0D01*
G01*
X390333D02*
G75*
G02*
X397288I3478J0D01*
G01*
G75*
G02*
X390333I-3478J0D01*
G01*
X400333D02*
G75*
G02*
X407288I3478J0D01*
G01*
G75*
G02*
X400333I-3478J0D01*
G01*
X410333D02*
G75*
G02*
X417288I3478J0D01*
G01*
G75*
G02*
X410333I-3478J0D01*
G01*
X119248D02*
G36*
X119248Y138002D02*
Y55610D01*
X138744D01*
G75*
G02*
X141213Y53143I0J-2468D01*
G01*
G75*
G02*
Y53142I-3470J0D01*
G01*
Y52268D01*
X194313D01*
Y53039D01*
Y53048D01*
Y53057D01*
Y53067D01*
Y53076D01*
Y53909D01*
X194557D01*
X196737Y57687D01*
X177556Y76869D01*
G75*
G02*
X177086Y78002I1133J1133D01*
G01*
G75*
G02*
X177336Y78861I1602J0D01*
G01*
Y138002D01*
X177287D01*
Y134526D01*
X170334D01*
Y138002D01*
X147285D01*
G75*
G02*
X129936I-8674J4000D01*
G01*
X119248D01*
G37*
X180041D02*
G36*
X180041Y138002D02*
Y78916D01*
X199643Y59314D01*
G75*
G02*
X200114Y58180I-1130J-1135D01*
G01*
Y58179D01*
Y57984D01*
X202466Y53909D01*
X202710D01*
Y53076D01*
Y53067D01*
Y53057D01*
Y53048D01*
Y53039D01*
Y52268D01*
X204313D01*
Y53039D01*
Y53048D01*
Y53057D01*
Y53067D01*
Y53076D01*
Y53909D01*
X204557D01*
X206797Y57791D01*
X187556Y77032D01*
G75*
G02*
X187086Y78165I1133J1133D01*
G01*
G75*
G02*
X187336Y79025I1602J0D01*
G01*
Y138002D01*
X187288D01*
G75*
G02*
X180333I-3478J0D01*
G01*
X180041D01*
G37*
X190041D02*
G36*
X190041Y138002D02*
Y79079D01*
X209643Y59478D01*
G75*
G02*
X210114Y58343I-1130J-1135D01*
G01*
Y58343D01*
Y57984D01*
X212466Y53909D01*
X212710D01*
Y53076D01*
Y53067D01*
Y53057D01*
Y53048D01*
Y53039D01*
Y52268D01*
X214313D01*
Y53039D01*
Y53048D01*
Y53057D01*
Y53067D01*
Y53076D01*
Y53909D01*
X214557D01*
X216534Y57335D01*
X197888Y75981D01*
G75*
G02*
X197419Y77114I1133J1133D01*
G01*
G75*
G02*
X197669Y77973I1602J0D01*
G01*
Y138002D01*
X197288D01*
G75*
G02*
X190333I-3478J0D01*
G01*
X190041D01*
G37*
X200374Y137470D02*
G36*
X200374Y137470D02*
Y78028D01*
X219643Y58759D01*
G75*
G02*
X220035Y58121I-1131J-1135D01*
G01*
X222466Y53909D01*
X222710D01*
Y53076D01*
Y53067D01*
Y53057D01*
Y53048D01*
Y53039D01*
Y52268D01*
X224313D01*
Y53039D01*
Y53048D01*
Y53057D01*
Y53067D01*
Y53076D01*
Y53909D01*
X224557D01*
X226737Y57687D01*
X207556Y76869D01*
G75*
G02*
X207086Y78002I1133J1133D01*
G01*
G75*
G02*
X207336Y78861I1602J0D01*
G01*
Y138002D01*
X207288D01*
G75*
G02*
X200374Y137470I-3478J0D01*
G01*
G37*
X210041Y138002D02*
G36*
X210041Y138002D02*
Y78916D01*
X229643Y59314D01*
G75*
G02*
X230114Y58180I-1130J-1135D01*
G01*
Y58179D01*
Y57984D01*
X232466Y53909D01*
X232710D01*
Y53076D01*
Y53067D01*
Y53057D01*
Y53048D01*
Y53039D01*
Y52268D01*
X234313D01*
Y53039D01*
Y53048D01*
Y53057D01*
Y53067D01*
Y53076D01*
Y53909D01*
X234557D01*
X236737Y57687D01*
X217556Y76869D01*
G75*
G02*
X217086Y78002I1133J1133D01*
G01*
G75*
G02*
X217336Y78861I1602J0D01*
G01*
Y138002D01*
X217288D01*
G75*
G02*
X210333I-3478J0D01*
G01*
X210041D01*
G37*
X220041D02*
G36*
X220041Y138002D02*
Y78916D01*
X239643Y59314D01*
G75*
G02*
X240114Y58180I-1130J-1135D01*
G01*
Y58179D01*
Y57984D01*
X242466Y53909D01*
X242710D01*
Y53076D01*
Y53067D01*
Y53057D01*
Y53048D01*
Y53039D01*
Y52268D01*
X244313D01*
Y53039D01*
Y53048D01*
Y53057D01*
Y53067D01*
Y53076D01*
Y53909D01*
X244557D01*
X246737Y57687D01*
X227556Y76869D01*
G75*
G02*
X227086Y78002I1133J1133D01*
G01*
G75*
G02*
X227336Y78861I1602J0D01*
G01*
Y138002D01*
X227288D01*
G75*
G02*
X220333I-3478J0D01*
G01*
X220041D01*
G37*
X230041D02*
G36*
X230041Y138002D02*
Y78916D01*
X249227Y59730D01*
G75*
G02*
X250114Y58296I-716J-1434D01*
G01*
Y57984D01*
X252466Y53909D01*
X252710D01*
Y53076D01*
Y53067D01*
Y53057D01*
Y53048D01*
Y53039D01*
Y52268D01*
X254313D01*
Y53039D01*
Y53048D01*
Y53057D01*
Y53067D01*
Y53076D01*
Y53909D01*
X254557D01*
X256673Y57574D01*
X237557Y76690D01*
G75*
G02*
X237086Y77824I1130J1135D01*
G01*
Y77825D01*
Y78002D01*
G75*
G02*
X237336Y78861I1602J0D01*
G01*
Y138002D01*
X237288D01*
G75*
G02*
X230333I-3478J0D01*
G01*
X230041D01*
G37*
X240041D02*
G36*
X240041Y138002D02*
Y78861D01*
G75*
G02*
X240172Y78607I-1367J-866D01*
G01*
X259643Y59137D01*
G75*
G02*
X260114Y58002I-1130J-1135D01*
G01*
Y58002D01*
Y57984D01*
X262466Y53909D01*
X262710D01*
Y53076D01*
Y53067D01*
Y53057D01*
Y53048D01*
Y53039D01*
Y52268D01*
X264313D01*
Y53039D01*
Y53048D01*
Y53057D01*
Y53067D01*
Y53076D01*
Y53909D01*
X264557D01*
X266737Y57687D01*
X247556Y76869D01*
G75*
G02*
X247086Y78002I1133J1133D01*
G01*
G75*
G02*
X247336Y78861I1602J0D01*
G01*
Y138002D01*
X247288D01*
G75*
G02*
X240333I-3478J0D01*
G01*
X240041D01*
G37*
X250041D02*
G36*
X250041Y138002D02*
Y78916D01*
X269643Y59314D01*
G75*
G02*
X270114Y58180I-1130J-1135D01*
G01*
Y58179D01*
Y57984D01*
X272466Y53909D01*
X272710D01*
Y53076D01*
Y53067D01*
Y53057D01*
Y53048D01*
Y53039D01*
Y52268D01*
X274313D01*
Y53039D01*
Y53048D01*
Y53057D01*
Y53067D01*
Y53076D01*
Y53909D01*
X274557D01*
X276737Y57687D01*
X257556Y76869D01*
G75*
G02*
X257086Y78002I1133J1133D01*
G01*
G75*
G02*
X257336Y78861I1602J0D01*
G01*
Y138002D01*
X257288D01*
G75*
G02*
X250333I-3478J0D01*
G01*
X250041D01*
G37*
X260041D02*
G36*
X260041Y138002D02*
Y78916D01*
X279643Y59314D01*
G75*
G02*
X280114Y58180I-1130J-1135D01*
G01*
Y58179D01*
Y57984D01*
X282466Y53909D01*
X282710D01*
Y53076D01*
Y53067D01*
Y53057D01*
Y53048D01*
Y53039D01*
Y52268D01*
X284313D01*
Y53039D01*
Y53048D01*
Y53057D01*
Y53067D01*
Y53076D01*
Y53909D01*
X284557D01*
X286737Y57687D01*
X267556Y76869D01*
G75*
G02*
X267086Y78002I1133J1133D01*
G01*
G75*
G02*
X267336Y78861I1602J0D01*
G01*
Y138002D01*
X267288D01*
G75*
G02*
X260333I-3478J0D01*
G01*
X260041D01*
G37*
X270041D02*
G36*
X270041Y138002D02*
Y78916D01*
X289643Y59314D01*
G75*
G02*
X290114Y58180I-1130J-1135D01*
G01*
Y58179D01*
Y57984D01*
X292466Y53909D01*
X292710D01*
Y53076D01*
Y53067D01*
Y53057D01*
Y53048D01*
Y53039D01*
Y52268D01*
X294313D01*
Y53039D01*
Y53048D01*
Y53057D01*
Y53067D01*
Y53076D01*
Y53909D01*
X294557D01*
X296737Y57687D01*
X277556Y76869D01*
G75*
G02*
X277086Y78002I1133J1133D01*
G01*
G75*
G02*
X277336Y78861I1602J0D01*
G01*
Y138002D01*
X277288D01*
G75*
G02*
X270333I-3478J0D01*
G01*
X270041D01*
G37*
X280041D02*
G36*
X280041Y138002D02*
Y78916D01*
X299643Y59314D01*
G75*
G02*
X300114Y58180I-1130J-1135D01*
G01*
Y58179D01*
Y57984D01*
X302466Y53909D01*
X302710D01*
Y53076D01*
Y53067D01*
Y53057D01*
Y53048D01*
Y53039D01*
Y52268D01*
X304313D01*
Y53039D01*
Y53048D01*
Y53057D01*
Y53067D01*
Y53076D01*
Y53909D01*
X304557D01*
X306737Y57687D01*
X287556Y76869D01*
G75*
G02*
X287086Y78002I1133J1133D01*
G01*
G75*
G02*
X287336Y78861I1602J0D01*
G01*
Y138002D01*
X287288D01*
G75*
G02*
X280333I-3478J0D01*
G01*
X280041D01*
G37*
X290041D02*
G36*
X290041Y138002D02*
Y78916D01*
X309643Y59314D01*
G75*
G02*
X310114Y58180I-1130J-1135D01*
G01*
Y58179D01*
Y57984D01*
X312466Y53909D01*
X312710D01*
Y53076D01*
Y53067D01*
Y53057D01*
Y53048D01*
Y53039D01*
Y52268D01*
X314313D01*
Y53039D01*
Y53048D01*
Y53057D01*
Y53067D01*
Y53076D01*
Y53909D01*
X314557D01*
X316737Y57687D01*
X297556Y76869D01*
G75*
G02*
X297086Y78002I1133J1133D01*
G01*
G75*
G02*
X297336Y78861I1602J0D01*
G01*
Y138002D01*
X297288D01*
G75*
G02*
X290333I-3478J0D01*
G01*
X290041D01*
G37*
X300041D02*
G36*
X300041Y138002D02*
Y78916D01*
X319643Y59314D01*
G75*
G02*
X320114Y58180I-1130J-1135D01*
G01*
Y58179D01*
Y57984D01*
X322466Y53909D01*
X322710D01*
Y53076D01*
Y53067D01*
Y53057D01*
Y53048D01*
Y53039D01*
Y52268D01*
X324313D01*
Y53039D01*
Y53048D01*
Y53057D01*
Y53067D01*
Y53076D01*
Y53909D01*
X324557D01*
X326737Y57687D01*
X307556Y76869D01*
G75*
G02*
X307086Y78002I1133J1133D01*
G01*
G75*
G02*
X307336Y78861I1602J0D01*
G01*
Y138002D01*
X307288D01*
G75*
G02*
X300333I-3478J0D01*
G01*
X300041D01*
G37*
X310041D02*
G36*
X310041Y138002D02*
Y78916D01*
X329643Y59314D01*
G75*
G02*
X330114Y58180I-1130J-1135D01*
G01*
Y58179D01*
Y57984D01*
X332466Y53909D01*
X332710D01*
Y53076D01*
Y53067D01*
Y53057D01*
Y53048D01*
Y53039D01*
Y52268D01*
X334313D01*
Y53039D01*
Y53048D01*
Y53057D01*
Y53067D01*
Y53076D01*
Y53909D01*
X334557D01*
X336737Y57687D01*
X317556Y76869D01*
G75*
G02*
X317086Y78002I1133J1133D01*
G01*
G75*
G02*
X317336Y78861I1602J0D01*
G01*
Y138002D01*
X317288D01*
G75*
G02*
X310333I-3478J0D01*
G01*
X310041D01*
G37*
X320041D02*
G36*
X320041Y138002D02*
Y78916D01*
X339643Y59314D01*
G75*
G02*
X340114Y58180I-1130J-1135D01*
G01*
Y58179D01*
Y57984D01*
X342466Y53909D01*
X342710D01*
Y53076D01*
Y53067D01*
Y53057D01*
Y53048D01*
Y53039D01*
Y52268D01*
X344313D01*
Y53039D01*
Y53048D01*
Y53057D01*
Y53067D01*
Y53076D01*
Y53909D01*
X344557D01*
X346737Y57687D01*
X327556Y76869D01*
G75*
G02*
X327086Y78002I1133J1133D01*
G01*
G75*
G02*
X327336Y78861I1602J0D01*
G01*
Y138002D01*
X327288D01*
G75*
G02*
X320333I-3478J0D01*
G01*
X320041D01*
G37*
X330041D02*
G36*
X330041Y138002D02*
Y78916D01*
X349643Y59314D01*
G75*
G02*
X350114Y58180I-1130J-1135D01*
G01*
Y58179D01*
Y57984D01*
X352466Y53909D01*
X352710D01*
Y53076D01*
Y53067D01*
Y53057D01*
Y53048D01*
Y53039D01*
Y52268D01*
X354313D01*
Y53039D01*
Y53048D01*
Y53057D01*
Y53067D01*
Y53076D01*
Y53909D01*
X354557D01*
X356737Y57687D01*
X337556Y76869D01*
G75*
G02*
X337086Y78002I1133J1133D01*
G01*
G75*
G02*
X337336Y78861I1602J0D01*
G01*
Y138002D01*
X337288D01*
G75*
G02*
X330333I-3478J0D01*
G01*
X330041D01*
G37*
X340041D02*
G36*
X340041Y138002D02*
Y78916D01*
X359643Y59314D01*
G75*
G02*
X360114Y58180I-1130J-1135D01*
G01*
Y58179D01*
Y57984D01*
X362466Y53909D01*
X362710D01*
Y53076D01*
Y53067D01*
Y53057D01*
Y53048D01*
Y53039D01*
Y52268D01*
X364313D01*
Y53039D01*
Y53048D01*
Y53057D01*
Y53067D01*
Y53076D01*
Y53909D01*
X364557D01*
X366737Y57687D01*
X347556Y76869D01*
G75*
G02*
X347086Y78002I1133J1133D01*
G01*
G75*
G02*
X347336Y78861I1602J0D01*
G01*
Y138002D01*
X347288D01*
G75*
G02*
X340333I-3478J0D01*
G01*
X340041D01*
G37*
X350041D02*
G36*
X350041Y138002D02*
Y78916D01*
X369643Y59314D01*
G75*
G02*
X370114Y58180I-1130J-1135D01*
G01*
Y58179D01*
Y57984D01*
X372466Y53909D01*
X372710D01*
Y53076D01*
Y53067D01*
Y53057D01*
Y53048D01*
Y53039D01*
Y52268D01*
X374313D01*
Y53039D01*
Y53048D01*
Y53057D01*
Y53067D01*
Y53076D01*
Y53909D01*
X374557D01*
X376737Y57687D01*
X357556Y76869D01*
G75*
G02*
X357086Y78002I1133J1133D01*
G01*
G75*
G02*
X357336Y78861I1602J0D01*
G01*
Y138002D01*
X357288D01*
G75*
G02*
X350333I-3478J0D01*
G01*
X350041D01*
G37*
X360041D02*
G36*
X360041Y138002D02*
Y78916D01*
X378879Y60078D01*
G75*
G02*
X380114Y58519I-367J-1559D01*
G01*
Y58518D01*
Y57984D01*
X382466Y53909D01*
X382710D01*
Y53076D01*
Y53067D01*
Y53057D01*
Y53048D01*
Y53039D01*
Y52268D01*
X384313D01*
Y53039D01*
Y53048D01*
Y53057D01*
Y53067D01*
Y53076D01*
Y53909D01*
X384557D01*
X386737Y57687D01*
X367556Y76869D01*
G75*
G02*
X367086Y78002I1133J1133D01*
G01*
G75*
G02*
X367336Y78861I1602J0D01*
G01*
Y138002D01*
X367288D01*
G75*
G02*
X360333I-3478J0D01*
G01*
X360041D01*
G37*
X390041D02*
G36*
X390041Y138002D02*
Y78916D01*
X409213Y59744D01*
G75*
G02*
X410114Y58303I-702J-1441D01*
G01*
Y57984D01*
X412466Y53909D01*
X412710D01*
Y53076D01*
Y53067D01*
Y53057D01*
Y53048D01*
Y53039D01*
Y52268D01*
X414313D01*
Y53039D01*
Y53048D01*
Y53057D01*
Y53067D01*
Y53076D01*
Y53909D01*
X414557D01*
X416737Y57687D01*
X397556Y76869D01*
G75*
G02*
X397086Y78002I1133J1133D01*
G01*
G75*
G02*
X397336Y78861I1602J0D01*
G01*
Y138002D01*
X397288D01*
G75*
G02*
X390333I-3478J0D01*
G01*
X390041D01*
G37*
X400041D02*
G36*
X400041Y138002D02*
Y78916D01*
X419643Y59314D01*
G75*
G02*
X420114Y58180I-1130J-1135D01*
G01*
Y58179D01*
Y57984D01*
X422466Y53909D01*
X422710D01*
Y53076D01*
Y53067D01*
Y53057D01*
Y53048D01*
Y53039D01*
Y52268D01*
X424313D01*
Y53039D01*
Y53048D01*
Y53057D01*
Y53067D01*
Y53076D01*
Y53909D01*
X424557D01*
X426737Y57687D01*
X407556Y76869D01*
G75*
G02*
X407086Y78002I1133J1133D01*
G01*
G75*
G02*
X407336Y78861I1602J0D01*
G01*
Y138002D01*
X407288D01*
G75*
G02*
X400333I-3478J0D01*
G01*
X400041D01*
G37*
X410041D02*
G36*
X410041Y138002D02*
Y78916D01*
X429441Y59516D01*
G75*
G02*
X430114Y58211I-931J-1306D01*
G01*
Y57984D01*
X432466Y53909D01*
X432710D01*
Y53076D01*
Y53067D01*
Y53057D01*
Y53048D01*
Y53039D01*
Y52268D01*
X434313D01*
Y53039D01*
Y53048D01*
Y53057D01*
Y53067D01*
Y53076D01*
Y53909D01*
X434557D01*
X436737Y57687D01*
X417556Y76869D01*
G75*
G02*
X417086Y78002I1133J1133D01*
G01*
G75*
G02*
X417336Y78861I1602J0D01*
G01*
Y138002D01*
X417288D01*
G75*
G02*
X410333I-3478J0D01*
G01*
X410041D01*
G37*
X420041D02*
G36*
X420041Y138002D02*
Y78916D01*
X439643Y59314D01*
G75*
G02*
X440114Y58180I-1130J-1135D01*
G01*
Y58179D01*
Y57984D01*
X442466Y53909D01*
X442710D01*
Y53076D01*
Y53067D01*
Y53057D01*
Y53048D01*
Y53039D01*
Y52268D01*
X445787D01*
Y53391D01*
G75*
G02*
Y53392I3470J0D01*
G01*
G75*
G02*
X448256Y55860I2469J0D01*
G01*
X467877D01*
Y138002D01*
X457685D01*
G75*
G02*
X440336I-8674J4000D01*
G01*
X420041D01*
G37*
X119248Y142002D02*
G36*
X119248Y142002D02*
Y138002D01*
X129936D01*
G75*
G02*
X129058Y142002I8675J4000D01*
G01*
X119248D01*
G37*
X148163D02*
G36*
X148163Y142002D02*
G75*
G02*
X147285Y138002I-9553J0D01*
G01*
X170334D01*
Y141478D01*
X177287D01*
Y138002D01*
X177336D01*
Y142002D01*
X148163D01*
G37*
X180041D02*
G36*
X180041Y142002D02*
Y138002D01*
X180333D01*
G75*
G02*
X187288I3478J0D01*
G01*
X187336D01*
Y142002D01*
X180041D01*
G37*
X190041D02*
G36*
X190041Y142002D02*
Y138002D01*
X190333D01*
G75*
G02*
X197288I3478J0D01*
G01*
X197669D01*
Y142002D01*
X190041D01*
G37*
X200374D02*
G36*
X200374Y142002D02*
Y138534D01*
G75*
G02*
X207288Y138002I3437J-532D01*
G01*
X207336D01*
Y142002D01*
X200374D01*
G37*
X210041D02*
G36*
X210041Y142002D02*
Y138002D01*
X210333D01*
G75*
G02*
X217288I3478J0D01*
G01*
X217336D01*
Y142002D01*
X210041D01*
G37*
X220041D02*
G36*
X220041Y142002D02*
Y138002D01*
X220333D01*
G75*
G02*
X227288I3478J0D01*
G01*
X227336D01*
Y142002D01*
X220041D01*
G37*
X230041D02*
G36*
X230041Y142002D02*
Y138002D01*
X230333D01*
G75*
G02*
X237288I3478J0D01*
G01*
X237336D01*
Y142002D01*
X230041D01*
G37*
X240041D02*
G36*
X240041Y142002D02*
Y138002D01*
X240333D01*
G75*
G02*
X247288I3478J0D01*
G01*
X247336D01*
Y142002D01*
X240041D01*
G37*
X250041D02*
G36*
X250041Y142002D02*
Y138002D01*
X250333D01*
G75*
G02*
X257288I3478J0D01*
G01*
X257336D01*
Y142002D01*
X250041D01*
G37*
X260041D02*
G36*
X260041Y142002D02*
Y138002D01*
X260333D01*
G75*
G02*
X267288I3478J0D01*
G01*
X267336D01*
Y142002D01*
X260041D01*
G37*
X270041D02*
G36*
X270041Y142002D02*
Y138002D01*
X270333D01*
G75*
G02*
X277288I3478J0D01*
G01*
X277336D01*
Y142002D01*
X270041D01*
G37*
X280041D02*
G36*
X280041Y142002D02*
Y138002D01*
X280333D01*
G75*
G02*
X287288I3478J0D01*
G01*
X287336D01*
Y142002D01*
X280041D01*
G37*
X290041D02*
G36*
X290041Y142002D02*
Y138002D01*
X290333D01*
G75*
G02*
X297288I3478J0D01*
G01*
X297336D01*
Y142002D01*
X290041D01*
G37*
X300041D02*
G36*
X300041Y142002D02*
Y138002D01*
X300333D01*
G75*
G02*
X307288I3478J0D01*
G01*
X307336D01*
Y142002D01*
X300041D01*
G37*
X310041D02*
G36*
X310041Y142002D02*
Y138002D01*
X310333D01*
G75*
G02*
X317288I3478J0D01*
G01*
X317336D01*
Y142002D01*
X310041D01*
G37*
X320041D02*
G36*
X320041Y142002D02*
Y138002D01*
X320333D01*
G75*
G02*
X327288I3478J0D01*
G01*
X327336D01*
Y142002D01*
X320041D01*
G37*
X330041D02*
G36*
X330041Y142002D02*
Y138002D01*
X330333D01*
G75*
G02*
X337288I3478J0D01*
G01*
X337336D01*
Y142002D01*
X330041D01*
G37*
X340041D02*
G36*
X340041Y142002D02*
Y138002D01*
X340333D01*
G75*
G02*
X347288I3478J0D01*
G01*
X347336D01*
Y142002D01*
X340041D01*
G37*
X350041D02*
G36*
X350041Y142002D02*
Y138002D01*
X350333D01*
G75*
G02*
X357288I3478J0D01*
G01*
X357336D01*
Y142002D01*
X350041D01*
G37*
X360041D02*
G36*
X360041Y142002D02*
Y138002D01*
X360333D01*
G75*
G02*
X367288I3478J0D01*
G01*
X367336D01*
Y142002D01*
X360041D01*
G37*
X370041D02*
G36*
X370041Y142002D02*
Y138902D01*
G75*
G02*
X377336Y139609I3769J-900D01*
G01*
Y142002D01*
X370041D01*
G37*
X380041D02*
G36*
X380041Y142002D02*
Y138902D01*
G75*
G02*
X387336Y139609I3769J-900D01*
G01*
Y142002D01*
X380041D01*
G37*
X390041D02*
G36*
X390041Y142002D02*
Y138002D01*
X390333D01*
G75*
G02*
X397288I3478J0D01*
G01*
X397336D01*
Y142002D01*
X390041D01*
G37*
X400041D02*
G36*
X400041Y142002D02*
Y138002D01*
X400333D01*
G75*
G02*
X407288I3478J0D01*
G01*
X407336D01*
Y142002D01*
X400041D01*
G37*
X410041D02*
G36*
X410041Y142002D02*
Y138002D01*
X410333D01*
G75*
G02*
X417288I3478J0D01*
G01*
X417336D01*
Y142002D01*
X410041D01*
G37*
X420041D02*
G36*
X420041Y142002D02*
Y138002D01*
X440336D01*
G75*
G02*
X439458Y142002I8675J4000D01*
G01*
X420041D01*
G37*
X458563D02*
G36*
X458563Y142002D02*
G75*
G02*
X457685Y138002I-9553J0D01*
G01*
X467877D01*
Y142002D01*
X458563D01*
G37*
X119248Y187609D02*
G36*
X119248Y187609D02*
Y142002D01*
X129058D01*
G75*
G02*
X148163I9552J0D01*
G01*
X177336D01*
Y142563D01*
X176115Y143784D01*
X172961Y144630D01*
G75*
G02*
X170333Y148002I849J3372D01*
G01*
G75*
G02*
X173810Y151480I3478J0D01*
G01*
G75*
G02*
X177183Y148851I0J-3478D01*
G01*
X178028Y145697D01*
X179644Y144081D01*
G75*
G02*
X180041Y143124I-953J-957D01*
G01*
Y142002D01*
X187336D01*
Y142563D01*
X186115Y143784D01*
X182961Y144630D01*
G75*
G02*
X180333Y148002I849J3372D01*
G01*
G75*
G02*
X183810Y151480I3478J0D01*
G01*
G75*
G02*
X187183Y148851I0J-3478D01*
G01*
X188028Y145697D01*
X189644Y144081D01*
G75*
G02*
X190041Y143124I-953J-957D01*
G01*
Y142002D01*
X197669D01*
Y142231D01*
X196115Y143784D01*
X192961Y144630D01*
G75*
G02*
X190333Y148002I849J3372D01*
G01*
G75*
G02*
X193810Y151480I3478J0D01*
G01*
G75*
G02*
X197183Y148851I0J-3478D01*
G01*
X198028Y145697D01*
X199976Y143748D01*
G75*
G02*
X200374Y142792I-953J-957D01*
G01*
G75*
G02*
Y142791I-1253J0D01*
G01*
Y142002D01*
X207336D01*
Y142563D01*
X206115Y143784D01*
X202961Y144630D01*
G75*
G02*
X200333Y148002I849J3372D01*
G01*
G75*
G02*
X203810Y151480I3478J0D01*
G01*
G75*
G02*
X207183Y148851I0J-3478D01*
G01*
X208028Y145697D01*
X209644Y144081D01*
G75*
G02*
X210041Y143124I-953J-957D01*
G01*
Y142002D01*
X217336D01*
Y142563D01*
X216115Y143784D01*
X212961Y144630D01*
G75*
G02*
X210333Y148002I849J3372D01*
G01*
G75*
G02*
X213810Y151480I3478J0D01*
G01*
G75*
G02*
X217183Y148851I0J-3478D01*
G01*
X218028Y145697D01*
X219644Y144081D01*
G75*
G02*
X220041Y143124I-953J-957D01*
G01*
Y142002D01*
X227336D01*
Y142563D01*
X226115Y143784D01*
X222961Y144630D01*
G75*
G02*
X220333Y148002I849J3372D01*
G01*
G75*
G02*
X223810Y151480I3478J0D01*
G01*
G75*
G02*
X227183Y148851I0J-3478D01*
G01*
X228028Y145697D01*
X229644Y144081D01*
G75*
G02*
X230041Y143124I-953J-957D01*
G01*
Y142002D01*
X237336D01*
Y142563D01*
X236115Y143784D01*
X232961Y144630D01*
G75*
G02*
X230333Y148002I849J3372D01*
G01*
G75*
G02*
X233810Y151480I3478J0D01*
G01*
G75*
G02*
X237183Y148851I0J-3478D01*
G01*
X238028Y145697D01*
X239644Y144081D01*
G75*
G02*
X240041Y143124I-953J-957D01*
G01*
Y142002D01*
X247336D01*
Y142563D01*
X246115Y143784D01*
X242961Y144630D01*
G75*
G02*
X240333Y148002I849J3372D01*
G01*
G75*
G02*
X243810Y151480I3478J0D01*
G01*
G75*
G02*
X247183Y148851I0J-3478D01*
G01*
X248028Y145697D01*
X249644Y144081D01*
G75*
G02*
X250041Y143124I-953J-957D01*
G01*
Y142002D01*
X257336D01*
Y142563D01*
X256115Y143784D01*
X252961Y144630D01*
G75*
G02*
X250333Y148002I849J3372D01*
G01*
G75*
G02*
X253810Y151480I3478J0D01*
G01*
G75*
G02*
X257183Y148851I0J-3478D01*
G01*
X258028Y145697D01*
X259644Y144081D01*
G75*
G02*
X260041Y143124I-953J-957D01*
G01*
Y142002D01*
X267336D01*
Y142563D01*
X266115Y143784D01*
X262961Y144630D01*
G75*
G02*
X260333Y148002I849J3372D01*
G01*
G75*
G02*
X263810Y151480I3478J0D01*
G01*
G75*
G02*
X267183Y148851I0J-3478D01*
G01*
X268028Y145697D01*
X269644Y144081D01*
G75*
G02*
X270041Y143124I-953J-957D01*
G01*
Y142002D01*
X277336D01*
Y142563D01*
X276115Y143784D01*
X272961Y144630D01*
G75*
G02*
X270333Y148002I849J3372D01*
G01*
G75*
G02*
X273810Y151480I3478J0D01*
G01*
G75*
G02*
X277183Y148851I0J-3478D01*
G01*
X278028Y145697D01*
X279644Y144081D01*
G75*
G02*
X280041Y143124I-953J-957D01*
G01*
Y142002D01*
X287336D01*
Y142563D01*
X286115Y143784D01*
X282961Y144630D01*
G75*
G02*
X280333Y148002I849J3372D01*
G01*
G75*
G02*
X283810Y151480I3478J0D01*
G01*
G75*
G02*
X287183Y148851I0J-3478D01*
G01*
X288028Y145697D01*
X289644Y144081D01*
G75*
G02*
X290041Y143124I-953J-957D01*
G01*
Y142002D01*
X297336D01*
Y142563D01*
X296115Y143784D01*
X292961Y144630D01*
G75*
G02*
X290333Y148002I849J3372D01*
G01*
G75*
G02*
X293810Y151480I3478J0D01*
G01*
G75*
G02*
X297183Y148851I0J-3478D01*
G01*
X298028Y145697D01*
X299644Y144081D01*
G75*
G02*
X300041Y143124I-953J-957D01*
G01*
Y142002D01*
X307336D01*
Y142563D01*
X306115Y143784D01*
X302961Y144630D01*
G75*
G02*
X300333Y148002I849J3372D01*
G01*
G75*
G02*
X303810Y151480I3478J0D01*
G01*
G75*
G02*
X307183Y148851I0J-3478D01*
G01*
X308028Y145697D01*
X309644Y144081D01*
G75*
G02*
X310041Y143124I-953J-957D01*
G01*
Y142002D01*
X317336D01*
Y142563D01*
X316115Y143784D01*
X312961Y144630D01*
G75*
G02*
X310333Y148002I849J3372D01*
G01*
G75*
G02*
X313810Y151480I3478J0D01*
G01*
G75*
G02*
X317183Y148851I0J-3478D01*
G01*
X318028Y145697D01*
X319644Y144081D01*
G75*
G02*
X320041Y143124I-953J-957D01*
G01*
Y142002D01*
X327336D01*
Y142563D01*
X326115Y143784D01*
X322961Y144630D01*
G75*
G02*
X320333Y148002I849J3372D01*
G01*
G75*
G02*
X323810Y151480I3478J0D01*
G01*
G75*
G02*
X327183Y148851I0J-3478D01*
G01*
X328028Y145697D01*
X329644Y144081D01*
G75*
G02*
X330041Y143124I-953J-957D01*
G01*
Y142002D01*
X337336D01*
Y142563D01*
X336115Y143784D01*
X332961Y144630D01*
G75*
G02*
X330333Y148002I849J3372D01*
G01*
G75*
G02*
X333810Y151480I3478J0D01*
G01*
G75*
G02*
X337183Y148851I0J-3478D01*
G01*
X338028Y145697D01*
X339644Y144081D01*
G75*
G02*
X340041Y143124I-953J-957D01*
G01*
Y142002D01*
X347336D01*
Y142563D01*
X346115Y143784D01*
X342961Y144630D01*
G75*
G02*
X340333Y148002I849J3372D01*
G01*
G75*
G02*
X343810Y151480I3478J0D01*
G01*
G75*
G02*
X347183Y148851I0J-3478D01*
G01*
X348028Y145697D01*
X349644Y144081D01*
G75*
G02*
X350041Y143124I-953J-957D01*
G01*
Y142002D01*
X357336D01*
Y142563D01*
X356115Y143784D01*
X352961Y144630D01*
G75*
G02*
X350333Y148002I849J3372D01*
G01*
G75*
G02*
X353810Y151480I3478J0D01*
G01*
G75*
G02*
X357183Y148851I0J-3478D01*
G01*
X358028Y145697D01*
X359644Y144081D01*
G75*
G02*
X360041Y143124I-953J-957D01*
G01*
Y142002D01*
X367336D01*
Y142563D01*
X366115Y143784D01*
X362961Y144630D01*
G75*
G02*
X360333Y148002I849J3372D01*
G01*
G75*
G02*
X363810Y151480I3478J0D01*
G01*
G75*
G02*
X367183Y148851I0J-3478D01*
G01*
X368028Y145697D01*
X369644Y144081D01*
G75*
G02*
X370041Y143124I-953J-957D01*
G01*
Y142002D01*
X377336D01*
Y142563D01*
X376115Y143784D01*
X372961Y144630D01*
G75*
G02*
X370333Y148002I849J3372D01*
G01*
G75*
G02*
X373810Y151480I3478J0D01*
G01*
G75*
G02*
X377183Y148851I0J-3478D01*
G01*
X378028Y145697D01*
X379644Y144081D01*
G75*
G02*
X380041Y143124I-953J-957D01*
G01*
Y142002D01*
X387336D01*
Y142563D01*
X386115Y143784D01*
X382961Y144630D01*
G75*
G02*
X380333Y148002I849J3372D01*
G01*
G75*
G02*
X383810Y151480I3478J0D01*
G01*
G75*
G02*
X387183Y148851I0J-3478D01*
G01*
X388028Y145697D01*
X389644Y144081D01*
G75*
G02*
X390041Y143124I-953J-957D01*
G01*
Y142002D01*
X397336D01*
Y142563D01*
X396115Y143784D01*
X392961Y144630D01*
G75*
G02*
X390333Y148002I849J3372D01*
G01*
G75*
G02*
X393810Y151480I3478J0D01*
G01*
G75*
G02*
X397183Y148851I0J-3478D01*
G01*
X398028Y145697D01*
X399644Y144081D01*
G75*
G02*
X400041Y143124I-953J-957D01*
G01*
Y142002D01*
X407336D01*
Y142563D01*
X406115Y143784D01*
X402961Y144630D01*
G75*
G02*
X400333Y148002I849J3372D01*
G01*
G75*
G02*
X403810Y151480I3478J0D01*
G01*
G75*
G02*
X407183Y148851I0J-3478D01*
G01*
X408028Y145697D01*
X409644Y144081D01*
G75*
G02*
X410041Y143124I-953J-957D01*
G01*
Y142002D01*
X417336D01*
Y142563D01*
X416115Y143784D01*
X412961Y144630D01*
G75*
G02*
X410333Y148002I849J3372D01*
G01*
G75*
G02*
X413810Y151480I3478J0D01*
G01*
G75*
G02*
X417183Y148851I0J-3478D01*
G01*
X418028Y145697D01*
X419644Y144081D01*
G75*
G02*
X420041Y143124I-953J-957D01*
G01*
Y142002D01*
X439458D01*
G75*
G02*
X458563I9552J0D01*
G01*
X467877D01*
Y187943D01*
G75*
G03*
X467722Y188098I-856J-701D01*
G01*
X119737D01*
G75*
G03*
X119248Y187609I858J-1347D01*
G01*
G37*
X142863Y13541D02*
X443513D01*
G75*
G03*
X448256Y18283I0J4743D01*
G01*
Y53391D01*
X470596D01*
Y187243D01*
G75*
G03*
X467023Y190816I-3573J0D01*
G01*
X120594D01*
G75*
G03*
X116529Y186751I0J-4065D01*
G01*
Y53142D01*
X138744D01*
Y17659D01*
G75*
G03*
X142863Y13541I4119J0D01*
G01*
X370041Y137102D02*
Y78916D01*
X389643Y59314D01*
G75*
G02*
X390114Y58179I-1131J-1135D01*
G01*
Y57984D01*
X392466Y53909D01*
X392710D01*
Y53076D01*
G75*
G02*
Y53067I-1789J-4D01*
G01*
G75*
G02*
Y53057I-1841J-5D01*
G01*
G75*
G02*
Y53048I-1789J-4D01*
G01*
G75*
G02*
Y53039I-1841J-5D01*
G01*
Y52018D01*
X394313D01*
Y53039D01*
G75*
G02*
Y53048I1867J5D01*
G01*
G75*
G02*
Y53057I1765J5D01*
G01*
G75*
G02*
Y53067I1867J5D01*
G01*
G75*
G02*
Y53076I1765J5D01*
G01*
Y53909D01*
X394557D01*
X396737Y57687D01*
X377556Y76869D01*
G75*
G02*
X377336Y78861I1133J1133D01*
G01*
Y136394D01*
G75*
G02*
X370041Y137102I-3526J1607D01*
G01*
G36*
X370041Y137102D02*
Y78916D01*
X389643Y59314D01*
G75*
G02*
X390114Y58179I-1131J-1135D01*
G01*
Y57984D01*
X392466Y53909D01*
X392710D01*
Y53076D01*
G75*
G02*
Y53067I-1789J-4D01*
G01*
G75*
G02*
Y53057I-1841J-5D01*
G01*
G75*
G02*
Y53048I-1789J-4D01*
G01*
G75*
G02*
Y53039I-1841J-5D01*
G01*
Y52018D01*
X394313D01*
Y53039D01*
G75*
G02*
Y53048I1867J5D01*
G01*
G75*
G02*
Y53057I1765J5D01*
G01*
G75*
G02*
Y53067I1867J5D01*
G01*
G75*
G02*
Y53076I1765J5D01*
G01*
Y53909D01*
X394557D01*
X396737Y57687D01*
X377556Y76869D01*
G75*
G02*
X377336Y78861I1133J1133D01*
G01*
Y136394D01*
G75*
G02*
X370041Y137102I-3526J1607D01*
G01*
G37*
X380041D02*
Y78916D01*
X399643Y59314D01*
G75*
G02*
X400114Y58179I-1131J-1135D01*
G01*
Y57984D01*
X402466Y53909D01*
X402710D01*
Y53076D01*
G75*
G02*
Y53067I-1789J-4D01*
G01*
G75*
G02*
Y53057I-1841J-5D01*
G01*
G75*
G02*
Y53048I-1789J-4D01*
G01*
G75*
G02*
Y53039I-1841J-5D01*
G01*
Y52018D01*
X404313D01*
Y53039D01*
G75*
G02*
Y53048I1867J5D01*
G01*
G75*
G02*
Y53057I1765J5D01*
G01*
G75*
G02*
Y53067I1867J5D01*
G01*
G75*
G02*
Y53076I1765J5D01*
G01*
Y53909D01*
X404557D01*
X406737Y57687D01*
X387556Y76869D01*
G75*
G02*
X387336Y78861I1133J1133D01*
G01*
Y136394D01*
G75*
G02*
X380041Y137102I-3526J1607D01*
G01*
G36*
X380041Y137102D02*
Y78916D01*
X399643Y59314D01*
G75*
G02*
X400114Y58179I-1131J-1135D01*
G01*
Y57984D01*
X402466Y53909D01*
X402710D01*
Y53076D01*
G75*
G02*
Y53067I-1789J-4D01*
G01*
G75*
G02*
Y53057I-1841J-5D01*
G01*
G75*
G02*
Y53048I-1789J-4D01*
G01*
G75*
G02*
Y53039I-1841J-5D01*
G01*
Y52018D01*
X404313D01*
Y53039D01*
G75*
G02*
Y53048I1867J5D01*
G01*
G75*
G02*
Y53057I1765J5D01*
G01*
G75*
G02*
Y53067I1867J5D01*
G01*
G75*
G02*
Y53076I1765J5D01*
G01*
Y53909D01*
X404557D01*
X406737Y57687D01*
X387556Y76869D01*
G75*
G02*
X387336Y78861I1133J1133D01*
G01*
Y136394D01*
G75*
G02*
X380041Y137102I-3526J1607D01*
G01*
G37*
D02*
D86*
X176815Y144997D02*
X173260Y145950D01*
G75*
G03*
X175863Y148552I550J2052D01*
G01*
X176815Y144997D01*
G36*
X176815Y144997D02*
X173260Y145950D01*
G75*
G03*
X175863Y148552I550J2052D01*
G01*
X176815Y144997D01*
G37*
X178689Y78002D02*
Y143124D01*
X173810Y148002D01*
X186815Y144997D02*
X183260Y145950D01*
G75*
G03*
X185863Y148552I550J2052D01*
G01*
X186815Y144997D01*
G36*
X186815Y144997D02*
X183260Y145950D01*
G75*
G03*
X185863Y148552I550J2052D01*
G01*
X186815Y144997D01*
G37*
X188689Y78165D02*
Y143124D01*
X183810Y148002D01*
X193810D02*
X199021Y142791D01*
Y77114D01*
X196815Y144997D02*
X193260Y145950D01*
G75*
G03*
X195863Y148552I550J2052D01*
G01*
X196815Y144997D01*
G36*
X196815Y144997D02*
X193260Y145950D01*
G75*
G03*
X195863Y148552I550J2052D01*
G01*
X196815Y144997D01*
G37*
X206815D02*
X203260Y145950D01*
G75*
G03*
X205863Y148552I550J2052D01*
G01*
X206815Y144997D01*
G36*
X206815Y144997D02*
X203260Y145950D01*
G75*
G03*
X205863Y148552I550J2052D01*
G01*
X206815Y144997D01*
G37*
X208689Y78002D02*
Y143124D01*
X203810Y148002D01*
X216815Y144997D02*
X213260Y145950D01*
G75*
G03*
X215863Y148552I550J2052D01*
G01*
X216815Y144997D01*
G36*
X216815Y144997D02*
X213260Y145950D01*
G75*
G03*
X215863Y148552I550J2052D01*
G01*
X216815Y144997D01*
G37*
X218689Y78002D02*
Y143124D01*
X213810Y148002D01*
X226815Y144997D02*
X223260Y145950D01*
G75*
G03*
X225863Y148552I550J2052D01*
G01*
X226815Y144997D01*
G36*
X226815Y144997D02*
X223260Y145950D01*
G75*
G03*
X225863Y148552I550J2052D01*
G01*
X226815Y144997D01*
G37*
X228689Y78002D02*
Y143124D01*
X223810Y148002D01*
X233810D02*
X238689Y143124D01*
Y78002D01*
X236815Y144997D02*
X233260Y145950D01*
G75*
G03*
X235863Y148552I550J2052D01*
G01*
X236815Y144997D01*
G36*
X236815Y144997D02*
X233260Y145950D01*
G75*
G03*
X235863Y148552I550J2052D01*
G01*
X236815Y144997D01*
G37*
X246815D02*
X243260Y145950D01*
G75*
G03*
X245863Y148552I550J2052D01*
G01*
X246815Y144997D01*
G36*
X246815Y144997D02*
X243260Y145950D01*
G75*
G03*
X245863Y148552I550J2052D01*
G01*
X246815Y144997D01*
G37*
X248689Y78002D02*
Y143124D01*
X243810Y148002D01*
X256815Y144997D02*
X253260Y145950D01*
G75*
G03*
X255863Y148552I550J2052D01*
G01*
X256815Y144997D01*
G36*
X256815Y144997D02*
X253260Y145950D01*
G75*
G03*
X255863Y148552I550J2052D01*
G01*
X256815Y144997D01*
G37*
X258689Y78002D02*
Y143124D01*
X253810Y148002D01*
X266815Y144997D02*
X263260Y145950D01*
G75*
G03*
X265863Y148552I550J2052D01*
G01*
X266815Y144997D01*
G36*
X266815Y144997D02*
X263260Y145950D01*
G75*
G03*
X265863Y148552I550J2052D01*
G01*
X266815Y144997D01*
G37*
X268689Y78002D02*
Y143124D01*
X263810Y148002D01*
X276815Y144997D02*
X273260Y145950D01*
G75*
G03*
X275863Y148552I550J2052D01*
G01*
X276815Y144997D01*
G36*
X276815Y144997D02*
X273260Y145950D01*
G75*
G03*
X275863Y148552I550J2052D01*
G01*
X276815Y144997D01*
G37*
X278689Y78002D02*
Y143124D01*
X273810Y148002D01*
X286815Y144997D02*
X283260Y145950D01*
G75*
G03*
X285863Y148552I550J2052D01*
G01*
X286815Y144997D01*
G36*
X286815Y144997D02*
X283260Y145950D01*
G75*
G03*
X285863Y148552I550J2052D01*
G01*
X286815Y144997D01*
G37*
X288689Y78002D02*
Y143124D01*
X283810Y148002D01*
X296815Y144997D02*
X293260Y145950D01*
G75*
G03*
X295863Y148552I550J2052D01*
G01*
X296815Y144997D01*
G36*
X296815Y144997D02*
X293260Y145950D01*
G75*
G03*
X295863Y148552I550J2052D01*
G01*
X296815Y144997D01*
G37*
X298689Y78002D02*
Y143124D01*
X293810Y148002D01*
X306815Y144997D02*
X303260Y145950D01*
G75*
G03*
X305863Y148552I550J2052D01*
G01*
X306815Y144997D01*
G36*
X306815Y144997D02*
X303260Y145950D01*
G75*
G03*
X305863Y148552I550J2052D01*
G01*
X306815Y144997D01*
G37*
X308689Y78002D02*
Y143124D01*
X303810Y148002D01*
X316815Y144997D02*
X313260Y145950D01*
G75*
G03*
X315863Y148552I550J2052D01*
G01*
X316815Y144997D01*
G36*
X316815Y144997D02*
X313260Y145950D01*
G75*
G03*
X315863Y148552I550J2052D01*
G01*
X316815Y144997D01*
G37*
X318689Y78002D02*
Y143124D01*
X313810Y148002D01*
X326815Y144997D02*
X323260Y145950D01*
G75*
G03*
X325863Y148552I550J2052D01*
G01*
X326815Y144997D01*
G36*
X326815Y144997D02*
X323260Y145950D01*
G75*
G03*
X325863Y148552I550J2052D01*
G01*
X326815Y144997D01*
G37*
X328689Y78002D02*
Y143124D01*
X323810Y148002D01*
X336815Y144997D02*
X333260Y145950D01*
G75*
G03*
X335863Y148552I550J2052D01*
G01*
X336815Y144997D01*
G36*
X336815Y144997D02*
X333260Y145950D01*
G75*
G03*
X335863Y148552I550J2052D01*
G01*
X336815Y144997D01*
G37*
X338689Y78002D02*
Y143124D01*
X333810Y148002D01*
X346815Y144997D02*
X343260Y145950D01*
G75*
G03*
X345863Y148552I550J2052D01*
G01*
X346815Y144997D01*
G36*
X346815Y144997D02*
X343260Y145950D01*
G75*
G03*
X345863Y148552I550J2052D01*
G01*
X346815Y144997D01*
G37*
X348689Y78002D02*
Y143124D01*
X343810Y148002D01*
X356815Y144997D02*
X353260Y145950D01*
G75*
G03*
X355863Y148552I550J2052D01*
G01*
X356815Y144997D01*
G36*
X356815Y144997D02*
X353260Y145950D01*
G75*
G03*
X355863Y148552I550J2052D01*
G01*
X356815Y144997D01*
G37*
X358689Y78002D02*
Y143124D01*
X353810Y148002D01*
X366815Y144997D02*
X363260Y145950D01*
G75*
G03*
X365863Y148552I550J2052D01*
G01*
X366815Y144997D01*
G36*
X366815Y144997D02*
X363260Y145950D01*
G75*
G03*
X365863Y148552I550J2052D01*
G01*
X366815Y144997D01*
G37*
X368689Y78002D02*
Y143124D01*
X363810Y148002D01*
X372307Y136499D02*
X370893Y135085D01*
X372307Y139505D02*
X370893Y140919D01*
X375313Y136499D02*
X376727Y135085D01*
X375313Y139505D02*
X376727Y140919D01*
X376815Y144997D02*
X373260Y145950D01*
G75*
G03*
X375863Y148552I550J2052D01*
G01*
X376815Y144997D01*
G36*
X376815Y144997D02*
X373260Y145950D01*
G75*
G03*
X375863Y148552I550J2052D01*
G01*
X376815Y144997D01*
G37*
X378689Y78002D02*
Y143124D01*
X373810Y148002D01*
X382307Y136499D02*
X380893Y135085D01*
X382307Y139505D02*
X380893Y140919D01*
X385313Y136499D02*
X386727Y135085D01*
X385313Y139505D02*
X386727Y140919D01*
X386815Y144997D02*
X383260Y145950D01*
G75*
G03*
X385863Y148552I550J2052D01*
G01*
X386815Y144997D01*
G36*
X386815Y144997D02*
X383260Y145950D01*
G75*
G03*
X385863Y148552I550J2052D01*
G01*
X386815Y144997D01*
G37*
X388689Y78002D02*
Y143124D01*
X383810Y148002D01*
X396815Y144997D02*
X393260Y145950D01*
G75*
G03*
X395863Y148552I550J2052D01*
G01*
X396815Y144997D01*
G36*
X396815Y144997D02*
X393260Y145950D01*
G75*
G03*
X395863Y148552I550J2052D01*
G01*
X396815Y144997D01*
G37*
X398689Y78002D02*
Y143124D01*
X393810Y148002D01*
X406815Y144997D02*
X403260Y145950D01*
G75*
G03*
X405863Y148552I550J2052D01*
G01*
X406815Y144997D01*
G36*
X406815Y144997D02*
X403260Y145950D01*
G75*
G03*
X405863Y148552I550J2052D01*
G01*
X406815Y144997D01*
G37*
X408689Y78002D02*
Y143124D01*
X403810Y148002D01*
X416815Y144997D02*
X413260Y145950D01*
G75*
G03*
X415863Y148552I550J2052D01*
G01*
X416815Y144997D01*
G36*
X416815Y144997D02*
X413260Y145950D01*
G75*
G03*
X415863Y148552I550J2052D01*
G01*
X416815Y144997D01*
G37*
X418689Y78002D02*
Y143124D01*
X413810Y148002D01*
D02*
D89*
X198511Y35341D02*
Y58179D01*
X178689Y78002D01*
X198511Y57554D02*
X195915Y53057D01*
X201108D01*
X198511Y57554D01*
G36*
X198511Y57554D02*
X195915Y53057D01*
X201108D01*
X198511Y57554D01*
G37*
X199021Y77114D02*
X218511Y57624D01*
Y35341D01*
X208511D02*
Y58343D01*
X188689Y78165D01*
X208511Y57554D02*
X205915Y53057D01*
X211108D01*
X208511Y57554D01*
G36*
X208511Y57554D02*
X205915Y53057D01*
X211108D01*
X208511Y57554D01*
G37*
X218511D02*
X215915Y53057D01*
X221108D01*
X218511Y57554D01*
G36*
X218511Y57554D02*
X215915Y53057D01*
X221108D01*
X218511Y57554D01*
G37*
X228511Y35341D02*
Y58179D01*
X208689Y78002D01*
X228511Y57554D02*
X225915Y53057D01*
X231108D01*
X228511Y57554D01*
G36*
X228511Y57554D02*
X225915Y53057D01*
X231108D01*
X228511Y57554D01*
G37*
X238511Y35341D02*
Y58179D01*
X218689Y78002D01*
X238511Y57554D02*
X235915Y53057D01*
X241108D01*
X238511Y57554D01*
G36*
X238511Y57554D02*
X235915Y53057D01*
X241108D01*
X238511Y57554D01*
G37*
X238689Y78002D02*
Y77825D01*
X258511Y58002D01*
Y35341D01*
X248511D02*
Y58296D01*
X248394D01*
X228689Y78002D01*
X248511Y57554D02*
X245915Y53057D01*
X251108D01*
X248511Y57554D01*
G36*
X248511Y57554D02*
X245915Y53057D01*
X251108D01*
X248511Y57554D01*
G37*
X258511D02*
X255915Y53057D01*
X261108D01*
X258511Y57554D01*
G36*
X258511Y57554D02*
X255915Y53057D01*
X261108D01*
X258511Y57554D01*
G37*
X268511Y35341D02*
Y58179D01*
X248689Y78002D01*
X268511Y57554D02*
X265915Y53057D01*
X271108D01*
X268511Y57554D01*
G36*
X268511Y57554D02*
X265915Y53057D01*
X271108D01*
X268511Y57554D01*
G37*
X278511Y35341D02*
Y58179D01*
X258689Y78002D01*
X278511Y57554D02*
X275915Y53057D01*
X281108D01*
X278511Y57554D01*
G36*
X278511Y57554D02*
X275915Y53057D01*
X281108D01*
X278511Y57554D01*
G37*
X288511Y35341D02*
Y58179D01*
X268689Y78002D01*
X288511Y57554D02*
X285915Y53057D01*
X291108D01*
X288511Y57554D01*
G36*
X288511Y57554D02*
X285915Y53057D01*
X291108D01*
X288511Y57554D01*
G37*
X298511Y35341D02*
Y58179D01*
X278689Y78002D01*
X298511Y57554D02*
X295915Y53057D01*
X301108D01*
X298511Y57554D01*
G36*
X298511Y57554D02*
X295915Y53057D01*
X301108D01*
X298511Y57554D01*
G37*
X308511Y35341D02*
Y58179D01*
X288689Y78002D01*
X308511Y57554D02*
X305915Y53057D01*
X311108D01*
X308511Y57554D01*
G36*
X308511Y57554D02*
X305915Y53057D01*
X311108D01*
X308511Y57554D01*
G37*
X318511Y35341D02*
Y58179D01*
X298689Y78002D01*
X318511Y57554D02*
X315915Y53057D01*
X321108D01*
X318511Y57554D01*
G36*
X318511Y57554D02*
X315915Y53057D01*
X321108D01*
X318511Y57554D01*
G37*
X328511Y35341D02*
Y58179D01*
X308689Y78002D01*
X328511Y57554D02*
X325915Y53057D01*
X331108D01*
X328511Y57554D01*
G36*
X328511Y57554D02*
X325915Y53057D01*
X331108D01*
X328511Y57554D01*
G37*
X338511Y35341D02*
Y58179D01*
X318689Y78002D01*
X338511Y57554D02*
X335915Y53057D01*
X341108D01*
X338511Y57554D01*
G36*
X338511Y57554D02*
X335915Y53057D01*
X341108D01*
X338511Y57554D01*
G37*
X348511Y35341D02*
Y58179D01*
X328689Y78002D01*
X348511Y57554D02*
X345915Y53057D01*
X351108D01*
X348511Y57554D01*
G36*
X348511Y57554D02*
X345915Y53057D01*
X351108D01*
X348511Y57554D01*
G37*
X358511Y35341D02*
Y58179D01*
X338689Y78002D01*
X358511Y57554D02*
X355915Y53057D01*
X361108D01*
X358511Y57554D01*
G36*
X358511Y57554D02*
X355915Y53057D01*
X361108D01*
X358511Y57554D01*
G37*
X368511Y35341D02*
Y58179D01*
X348689Y78002D01*
X368511Y57554D02*
X365915Y53057D01*
X371108D01*
X368511Y57554D01*
G36*
X368511Y57554D02*
X365915Y53057D01*
X371108D01*
X368511Y57554D01*
G37*
X378511Y35341D02*
Y58518D01*
X378172D01*
X358689Y78002D01*
X378511Y57554D02*
X375915Y53057D01*
X381108D01*
X378511Y57554D01*
G36*
X378511Y57554D02*
X375915Y53057D01*
X381108D01*
X378511Y57554D01*
G37*
X388511Y35341D02*
Y58179D01*
X368689Y78002D01*
X388511Y57554D02*
X385915Y53057D01*
X391108D01*
X388511Y57554D01*
G36*
X388511Y57554D02*
X385915Y53057D01*
X391108D01*
X388511Y57554D01*
G37*
X398511Y35341D02*
Y58179D01*
X378689Y78002D01*
X398511Y57554D02*
X395915Y53057D01*
X401108D01*
X398511Y57554D01*
G36*
X398511Y57554D02*
X395915Y53057D01*
X401108D01*
X398511Y57554D01*
G37*
X408511Y38293D02*
Y58303D01*
X408387D01*
X388689Y78002D01*
X408511Y57554D02*
X405915Y53057D01*
X411108D01*
X408511Y57554D01*
G36*
X408511Y57554D02*
X405915Y53057D01*
X411108D01*
X408511Y57554D01*
G37*
X418511Y35341D02*
Y58179D01*
X398689Y78002D01*
X418511Y57554D02*
X415915Y53057D01*
X421108D01*
X418511Y57554D01*
G36*
X418511Y57554D02*
X415915Y53057D01*
X421108D01*
X418511Y57554D01*
G37*
X428511Y35341D02*
Y58211D01*
X428480D01*
X408689Y78002D01*
X428511Y57554D02*
X425915Y53057D01*
X431108D01*
X428511Y57554D01*
G36*
X428511Y57554D02*
X425915Y53057D01*
X431108D01*
X428511Y57554D01*
G37*
X438511Y35341D02*
Y58179D01*
X418689Y78002D01*
X438511Y57554D02*
X435915Y53057D01*
X441108D01*
X438511Y57554D01*
G36*
X438511Y57554D02*
X435915Y53057D01*
X441108D01*
X438511Y57554D01*
G37*
D02*
D92*
X121189Y58002D03*
X123689Y110502D03*
Y163002D03*
Y183002D03*
X166189Y58002D03*
X168689Y183002D03*
X173689Y113002D03*
X183689Y68002D03*
Y113002D03*
X193689Y68002D03*
Y113002D03*
X203689Y58002D03*
Y68002D03*
Y113002D03*
X213689Y68002D03*
Y113002D03*
Y183002D03*
X223689Y68002D03*
Y113002D03*
X233689Y68002D03*
X233704Y113002D03*
X243689D03*
X243704Y68002D03*
X253689Y58002D03*
Y68002D03*
Y113002D03*
X263689Y68002D03*
Y113002D03*
Y183002D03*
X273689Y113002D03*
X273781Y68002D03*
X283689D03*
Y113002D03*
X293689D03*
X293750Y68002D03*
X303689Y58002D03*
Y68002D03*
Y113002D03*
X313689Y183002D03*
X313704Y113002D03*
X313843Y68002D03*
X323689D03*
Y113002D03*
X333687Y68002D03*
X333689Y113002D03*
X343689D03*
X343796Y68002D03*
X353655D03*
X353689Y58002D03*
Y113002D03*
X363689Y68002D03*
Y113002D03*
Y183002D03*
X373689Y68002D03*
Y113002D03*
X383689Y68002D03*
Y113002D03*
X393689Y68002D03*
X393704Y113002D03*
X403689Y58002D03*
Y68002D03*
Y113002D03*
X413689Y68002D03*
Y113002D03*
Y183002D03*
X423689Y68002D03*
Y113002D03*
X433689D03*
X433779Y68002D03*
X443689Y113002D03*
X462439Y58002D03*
X463689Y110502D03*
Y163002D03*
D02*
D94*
X198511Y35341D03*
X208511D03*
X218511D03*
X228511D03*
X238511D03*
X248511D03*
X258511D03*
X268511D03*
X278511D03*
X288511D03*
X298511D03*
X308511D03*
X318511D03*
X328511D03*
X338511D03*
X348511D03*
X358511D03*
X368511D03*
X378511D03*
X388511D03*
X398511D03*
X418511D03*
X428511D03*
X438511D03*
D02*
D95*
X408511Y38293D03*
D02*
D120*
X173810Y138002D03*
D02*
D121*
Y148002D03*
X183810Y138002D03*
Y148002D03*
X193810Y138002D03*
Y148002D03*
X203810Y138002D03*
Y148002D03*
X213810Y138002D03*
Y148002D03*
X223810Y138002D03*
Y148002D03*
X233810Y138002D03*
Y148002D03*
X243810Y138002D03*
Y148002D03*
X253810Y138002D03*
Y148002D03*
X263810Y138002D03*
Y148002D03*
X273810Y138002D03*
Y148002D03*
X283810Y138002D03*
Y148002D03*
X293810Y138002D03*
Y148002D03*
X303810Y138002D03*
Y148002D03*
X313810Y138002D03*
Y148002D03*
X323810Y138002D03*
Y148002D03*
X333810Y138002D03*
Y148002D03*
X343810Y138002D03*
Y148002D03*
X353810Y138002D03*
Y148002D03*
X363810Y138002D03*
Y148002D03*
X373810Y138002D03*
Y148002D03*
X383810Y138002D03*
Y148002D03*
X393810Y138002D03*
Y148002D03*
X403810Y138002D03*
Y148002D03*
X413810Y138002D03*
Y148002D03*
D02*
D122*
X138610Y142002D03*
X449010D03*
X0Y0D02*
M02*
