G04 DesignSpark PCB PRO Gerber Version 10.0 Build 5299*
G04 #@! TF.Part,Single*
G04 #@! TF.FileFunction,Soldermask,Top*
G04 #@! TF.FilePolarity,Negative*
%FSLAX35Y35*%
%MOIN*%
G04 #@! TA.AperFunction,SMDPad,CuDef*
%ADD12R,0.06893X0.35633*%
G04 #@! TA.AperFunction,ComponentPad*
%ADD124R,0.05450X0.05450*%
G04 #@! TA.AperFunction,TestPad*
%ADD147R,0.19686X0.19686*%
G04 #@! TD.AperFunction*
%ADD23C,0.00500*%
G04 #@! TA.AperFunction,ComponentPad*
%ADD125C,0.05450*%
%ADD126C,0.17600*%
G04 #@! TA.AperFunction,TestPad*
%ADD135R,3.09607X0.41339*%
G04 #@! TD.AperFunction*
X0Y0D02*
D02*
D12*
X198511Y35341D03*
X208511D03*
X218511D03*
X228511D03*
X238511D03*
X248511D03*
X258511D03*
X268511D03*
X278511D03*
X288511D03*
X298511D03*
X308511D03*
X318511D03*
X328511D03*
X338511D03*
X348511D03*
X358511D03*
X368511D03*
X378511D03*
X388511D03*
X398511D03*
X408511D03*
X418511D03*
X428511D03*
X438511D03*
D02*
D23*
X142863Y13541D02*
X443513D01*
G75*
G03*
X448256Y18283I0J4743D01*
G01*
Y53391D01*
X470596D01*
Y187243D01*
G75*
G03*
X467023Y190816I-3573J0D01*
G01*
X120594D01*
G75*
G03*
X116529Y186751I0J-4065D01*
G01*
Y53142D01*
X138744D01*
Y17659D01*
G75*
G03*
X142863Y13541I4119J0D01*
G01*
D02*
D124*
X173810Y138002D03*
D02*
D125*
Y148002D03*
X183810Y138002D03*
Y148002D03*
X193810Y138002D03*
Y148002D03*
X203810Y138002D03*
Y148002D03*
X213810Y138002D03*
Y148002D03*
X223810Y138002D03*
Y148002D03*
X233810Y138002D03*
Y148002D03*
X243810Y138002D03*
Y148002D03*
X253810Y138002D03*
Y148002D03*
X263810Y138002D03*
Y148002D03*
X273810Y138002D03*
Y148002D03*
X283810Y138002D03*
Y148002D03*
X293810Y138002D03*
Y148002D03*
X303810Y138002D03*
Y148002D03*
X313810Y138002D03*
Y148002D03*
X323810Y138002D03*
Y148002D03*
X333810Y138002D03*
Y148002D03*
X343810Y138002D03*
Y148002D03*
X353810Y138002D03*
Y148002D03*
X363810Y138002D03*
Y148002D03*
X373810Y138002D03*
Y148002D03*
X383810Y138002D03*
Y148002D03*
X393810Y138002D03*
Y148002D03*
X403810Y138002D03*
Y148002D03*
X413810Y138002D03*
Y148002D03*
D02*
D126*
X138610Y142002D03*
X449010D03*
D02*
D135*
X293689Y31752D03*
D02*
D147*
X133689Y73002D03*
X453689D03*
X0Y0D02*
M02*
