G04 DesignSpark PCB PRO Gerber Version 10.0 Build 5299*
G04 #@! TF.Part,Single*
G04 #@! TF.FileFunction,Copper,L2,Bot*
G04 #@! TF.FilePolarity,Positive*
%FSLAX35Y35*%
%MOIN*%
G04 #@! TA.AperFunction,SMDPad,CuDef*
%ADD94R,0.06693X0.35433*%
G04 #@! TA.AperFunction,ComponentPad*
%ADD120R,0.05250X0.05250*%
G04 #@! TA.AperFunction,TestPad*
%ADD146R,0.19685X0.19685*%
G04 #@! TD.AperFunction*
%ADD23C,0.00500*%
%ADD87C,0.00602*%
%ADD86C,0.01000*%
%ADD89C,0.01500*%
G04 #@! TA.AperFunction,ViaPad*
%ADD92C,0.03200*%
G04 #@! TA.AperFunction,ComponentPad*
%ADD121C,0.05250*%
%ADD122C,0.17400*%
G04 #@! TD.AperFunction*
X0Y0D02*
D02*
D23*
X118998Y186751D02*
Y55610D01*
X138744D01*
G75*
G02*
X141213Y53142I0J-2469D01*
G01*
Y51894D01*
X194313D01*
Y53039D01*
G75*
G02*
Y53048I1867J5D01*
G01*
G75*
G02*
Y53057I1765J5D01*
G01*
G75*
G02*
Y53067I1867J5D01*
G01*
G75*
G02*
Y53076I1765J5D01*
G01*
Y53909D01*
X194557D01*
X196909Y57984D01*
Y112637D01*
X177252Y132294D01*
X171520Y133829D01*
G75*
G02*
X170578Y134524I415J1548D01*
G01*
X170333D01*
Y141480D01*
X177288D01*
Y141234D01*
G75*
G02*
X177983Y140292I-853J-1357D01*
G01*
X179519Y134559D01*
X199643Y114436D01*
G75*
G02*
X200114Y113301I-1131J-1135D01*
G01*
Y57984D01*
X202466Y53909D01*
X202710D01*
Y53076D01*
G75*
G02*
Y53067I-1789J-4D01*
G01*
G75*
G02*
Y53057I-1841J-5D01*
G01*
G75*
G02*
Y53048I-1789J-4D01*
G01*
G75*
G02*
Y53039I-1841J-5D01*
G01*
Y51894D01*
X204313D01*
Y53039D01*
G75*
G02*
Y53048I1867J5D01*
G01*
G75*
G02*
Y53057I1765J5D01*
G01*
G75*
G02*
Y53067I1867J5D01*
G01*
G75*
G02*
Y53076I1765J5D01*
G01*
Y53909D01*
X204557D01*
X206909Y57984D01*
Y112637D01*
X185632Y133914D01*
X182968Y134628D01*
G75*
G02*
X183810Y141480I843J3374D01*
G01*
G75*
G02*
X187184Y138844I0J-3478D01*
G01*
X187898Y136180D01*
X209643Y114436D01*
G75*
G02*
X210114Y113301I-1131J-1135D01*
G01*
Y57984D01*
X212466Y53909D01*
X212710D01*
Y53076D01*
G75*
G02*
Y53067I-1789J-4D01*
G01*
G75*
G02*
Y53057I-1841J-5D01*
G01*
G75*
G02*
Y53048I-1789J-4D01*
G01*
G75*
G02*
Y53039I-1841J-5D01*
G01*
Y51894D01*
X214313D01*
Y53039D01*
G75*
G02*
Y53048I1867J5D01*
G01*
G75*
G02*
Y53057I1765J5D01*
G01*
G75*
G02*
Y53067I1867J5D01*
G01*
G75*
G02*
Y53076I1765J5D01*
G01*
Y53909D01*
X214557D01*
X216909Y57984D01*
Y112637D01*
X195632Y133914D01*
X192968Y134628D01*
G75*
G02*
X193810Y141480I843J3374D01*
G01*
G75*
G02*
X197184Y138844I0J-3478D01*
G01*
X197898Y136180D01*
X219643Y114436D01*
G75*
G02*
X220114Y113301I-1131J-1135D01*
G01*
Y57984D01*
X222466Y53909D01*
X222710D01*
Y53076D01*
G75*
G02*
Y53067I-1789J-4D01*
G01*
G75*
G02*
Y53057I-1841J-5D01*
G01*
G75*
G02*
Y53048I-1789J-4D01*
G01*
G75*
G02*
Y53039I-1841J-5D01*
G01*
Y51894D01*
X224313D01*
Y53039D01*
G75*
G02*
Y53048I1867J5D01*
G01*
G75*
G02*
Y53057I1765J5D01*
G01*
G75*
G02*
Y53067I1867J5D01*
G01*
G75*
G02*
Y53076I1765J5D01*
G01*
Y53909D01*
X224557D01*
X226909Y57984D01*
Y112637D01*
X205632Y133914D01*
X202968Y134628D01*
G75*
G02*
X203810Y141480I843J3374D01*
G01*
G75*
G02*
X207184Y138844I0J-3478D01*
G01*
X207898Y136180D01*
X229643Y114436D01*
G75*
G02*
X230114Y113301I-1131J-1135D01*
G01*
Y57984D01*
X232466Y53909D01*
X232710D01*
Y53076D01*
G75*
G02*
Y53067I-1789J-4D01*
G01*
G75*
G02*
Y53057I-1841J-5D01*
G01*
G75*
G02*
Y53048I-1789J-4D01*
G01*
G75*
G02*
Y53039I-1841J-5D01*
G01*
Y51894D01*
X234313D01*
Y53039D01*
G75*
G02*
Y53048I1867J5D01*
G01*
G75*
G02*
Y53057I1765J5D01*
G01*
G75*
G02*
Y53067I1867J5D01*
G01*
G75*
G02*
Y53076I1765J5D01*
G01*
Y53909D01*
X234557D01*
X236909Y57984D01*
Y112637D01*
X215632Y133914D01*
X212968Y134628D01*
G75*
G02*
X213810Y141480I843J3374D01*
G01*
G75*
G02*
X217184Y138844I0J-3478D01*
G01*
X217898Y136180D01*
X239643Y114436D01*
G75*
G02*
X240114Y113301I-1131J-1135D01*
G01*
Y57984D01*
X242466Y53909D01*
X242710D01*
Y53076D01*
G75*
G02*
Y53067I-1789J-4D01*
G01*
G75*
G02*
Y53057I-1841J-5D01*
G01*
G75*
G02*
Y53048I-1789J-4D01*
G01*
G75*
G02*
Y53039I-1841J-5D01*
G01*
Y51894D01*
X244313D01*
Y53039D01*
G75*
G02*
Y53048I1867J5D01*
G01*
G75*
G02*
Y53057I1765J5D01*
G01*
G75*
G02*
Y53067I1867J5D01*
G01*
G75*
G02*
Y53076I1765J5D01*
G01*
Y53909D01*
X244557D01*
X246909Y57984D01*
Y112637D01*
X225632Y133914D01*
X222968Y134628D01*
G75*
G02*
X223810Y141480I843J3374D01*
G01*
G75*
G02*
X227184Y138844I0J-3478D01*
G01*
X227898Y136180D01*
X249643Y114436D01*
G75*
G02*
X250114Y113301I-1131J-1135D01*
G01*
Y57984D01*
X252466Y53909D01*
X252710D01*
Y53076D01*
G75*
G02*
Y53067I-1789J-4D01*
G01*
G75*
G02*
Y53057I-1841J-5D01*
G01*
G75*
G02*
Y53048I-1789J-4D01*
G01*
G75*
G02*
Y53039I-1841J-5D01*
G01*
Y51894D01*
X254313D01*
Y53039D01*
G75*
G02*
Y53048I1867J5D01*
G01*
G75*
G02*
Y53057I1765J5D01*
G01*
G75*
G02*
Y53067I1867J5D01*
G01*
G75*
G02*
Y53076I1765J5D01*
G01*
Y53909D01*
X254557D01*
X256909Y57984D01*
Y112637D01*
X235632Y133914D01*
X232968Y134628D01*
G75*
G02*
X233810Y141480I843J3374D01*
G01*
G75*
G02*
X237184Y138844I0J-3478D01*
G01*
X237898Y136180D01*
X259643Y114436D01*
G75*
G02*
X260114Y113301I-1131J-1135D01*
G01*
Y57984D01*
X262466Y53909D01*
X262710D01*
Y53076D01*
G75*
G02*
Y53067I-1789J-4D01*
G01*
G75*
G02*
Y53057I-1841J-5D01*
G01*
G75*
G02*
Y53048I-1789J-4D01*
G01*
G75*
G02*
Y53039I-1841J-5D01*
G01*
Y51894D01*
X264313D01*
Y53039D01*
G75*
G02*
Y53048I1867J5D01*
G01*
G75*
G02*
Y53057I1765J5D01*
G01*
G75*
G02*
Y53067I1867J5D01*
G01*
G75*
G02*
Y53076I1765J5D01*
G01*
Y53909D01*
X264557D01*
X266909Y57984D01*
Y112637D01*
X245632Y133914D01*
X242968Y134628D01*
G75*
G02*
X243810Y141480I843J3374D01*
G01*
G75*
G02*
X247184Y138844I0J-3478D01*
G01*
X247898Y136180D01*
X269643Y114436D01*
G75*
G02*
X270114Y113301I-1131J-1135D01*
G01*
Y57984D01*
X272466Y53909D01*
X272710D01*
Y53076D01*
G75*
G02*
Y53067I-1789J-4D01*
G01*
G75*
G02*
Y53057I-1841J-5D01*
G01*
G75*
G02*
Y53048I-1789J-4D01*
G01*
G75*
G02*
Y53039I-1841J-5D01*
G01*
Y51894D01*
X274313D01*
Y53039D01*
G75*
G02*
Y53048I1867J5D01*
G01*
G75*
G02*
Y53057I1765J5D01*
G01*
G75*
G02*
Y53067I1867J5D01*
G01*
G75*
G02*
Y53076I1765J5D01*
G01*
Y53909D01*
X274557D01*
X276909Y57984D01*
Y112637D01*
X255632Y133914D01*
X252968Y134628D01*
G75*
G02*
X253810Y141480I843J3374D01*
G01*
G75*
G02*
X257184Y138844I0J-3478D01*
G01*
X257898Y136180D01*
X279643Y114436D01*
G75*
G02*
X280114Y113301I-1131J-1135D01*
G01*
Y57984D01*
X282466Y53909D01*
X282710D01*
Y53076D01*
G75*
G02*
Y53067I-1789J-4D01*
G01*
G75*
G02*
Y53057I-1841J-5D01*
G01*
G75*
G02*
Y53048I-1789J-4D01*
G01*
G75*
G02*
Y53039I-1841J-5D01*
G01*
Y51894D01*
X284313D01*
Y53039D01*
G75*
G02*
Y53048I1867J5D01*
G01*
G75*
G02*
Y53057I1765J5D01*
G01*
G75*
G02*
Y53067I1867J5D01*
G01*
G75*
G02*
Y53076I1765J5D01*
G01*
Y53909D01*
X284557D01*
X286909Y57984D01*
Y112637D01*
X265632Y133914D01*
X262968Y134628D01*
G75*
G02*
X263810Y141480I843J3374D01*
G01*
G75*
G02*
X267184Y138844I0J-3478D01*
G01*
X267898Y136180D01*
X289643Y114436D01*
G75*
G02*
X290114Y113301I-1131J-1135D01*
G01*
Y57984D01*
X292466Y53909D01*
X292710D01*
Y53076D01*
G75*
G02*
Y53067I-1789J-4D01*
G01*
G75*
G02*
Y53057I-1841J-5D01*
G01*
G75*
G02*
Y53048I-1789J-4D01*
G01*
G75*
G02*
Y53039I-1841J-5D01*
G01*
Y51894D01*
X294313D01*
Y53039D01*
G75*
G02*
Y53048I1867J5D01*
G01*
G75*
G02*
Y53057I1765J5D01*
G01*
G75*
G02*
Y53067I1867J5D01*
G01*
G75*
G02*
Y53076I1765J5D01*
G01*
Y53909D01*
X294557D01*
X296909Y57984D01*
Y112637D01*
X275632Y133914D01*
X272968Y134628D01*
G75*
G02*
X273810Y141480I843J3374D01*
G01*
G75*
G02*
X277184Y138844I0J-3478D01*
G01*
X277898Y136180D01*
X299643Y114436D01*
G75*
G02*
X300114Y113301I-1131J-1135D01*
G01*
Y57984D01*
X302466Y53909D01*
X302710D01*
Y53076D01*
G75*
G02*
Y53067I-1789J-4D01*
G01*
G75*
G02*
Y53057I-1841J-5D01*
G01*
G75*
G02*
Y53048I-1789J-4D01*
G01*
G75*
G02*
Y53039I-1841J-5D01*
G01*
Y51894D01*
X304313D01*
Y53039D01*
G75*
G02*
Y53048I1867J5D01*
G01*
G75*
G02*
Y53057I1765J5D01*
G01*
G75*
G02*
Y53067I1867J5D01*
G01*
G75*
G02*
Y53076I1765J5D01*
G01*
Y53909D01*
X304557D01*
X306909Y57984D01*
Y112637D01*
X285632Y133914D01*
X282968Y134628D01*
G75*
G02*
X283810Y141480I843J3374D01*
G01*
G75*
G02*
X287184Y138844I0J-3478D01*
G01*
X287898Y136180D01*
X309643Y114436D01*
G75*
G02*
X310114Y113301I-1131J-1135D01*
G01*
Y57984D01*
X312466Y53909D01*
X312710D01*
Y53076D01*
G75*
G02*
Y53067I-1789J-4D01*
G01*
G75*
G02*
Y53057I-1841J-5D01*
G01*
G75*
G02*
Y53048I-1789J-4D01*
G01*
G75*
G02*
Y53039I-1841J-5D01*
G01*
Y51894D01*
X314313D01*
Y53039D01*
G75*
G02*
Y53048I1867J5D01*
G01*
G75*
G02*
Y53057I1765J5D01*
G01*
G75*
G02*
Y53067I1867J5D01*
G01*
G75*
G02*
Y53076I1765J5D01*
G01*
Y53909D01*
X314557D01*
X316909Y57984D01*
Y112637D01*
X295632Y133914D01*
X292968Y134628D01*
G75*
G02*
X293810Y141480I843J3374D01*
G01*
G75*
G02*
X297184Y138844I0J-3478D01*
G01*
X297898Y136180D01*
X319643Y114436D01*
G75*
G02*
X320114Y113301I-1131J-1135D01*
G01*
Y57984D01*
X322466Y53909D01*
X322710D01*
Y53076D01*
G75*
G02*
Y53067I-1789J-4D01*
G01*
G75*
G02*
Y53057I-1841J-5D01*
G01*
G75*
G02*
Y53048I-1789J-4D01*
G01*
G75*
G02*
Y53039I-1841J-5D01*
G01*
Y51894D01*
X324313D01*
Y53039D01*
G75*
G02*
Y53048I1867J5D01*
G01*
G75*
G02*
Y53057I1765J5D01*
G01*
G75*
G02*
Y53067I1867J5D01*
G01*
G75*
G02*
Y53076I1765J5D01*
G01*
Y53909D01*
X324557D01*
X326909Y57984D01*
Y112637D01*
X305632Y133914D01*
X302968Y134628D01*
G75*
G02*
X303810Y141480I843J3374D01*
G01*
G75*
G02*
X307184Y138844I0J-3478D01*
G01*
X307898Y136180D01*
X329643Y114436D01*
G75*
G02*
X330114Y113301I-1131J-1135D01*
G01*
Y57984D01*
X332466Y53909D01*
X332710D01*
Y53076D01*
G75*
G02*
Y53067I-1789J-4D01*
G01*
G75*
G02*
Y53057I-1841J-5D01*
G01*
G75*
G02*
Y53048I-1789J-4D01*
G01*
G75*
G02*
Y53039I-1841J-5D01*
G01*
Y51894D01*
X334313D01*
Y53039D01*
G75*
G02*
Y53048I1867J5D01*
G01*
G75*
G02*
Y53057I1765J5D01*
G01*
G75*
G02*
Y53067I1867J5D01*
G01*
G75*
G02*
Y53076I1765J5D01*
G01*
Y53909D01*
X334557D01*
X336909Y57984D01*
Y112637D01*
X315632Y133914D01*
X312968Y134628D01*
G75*
G02*
X313810Y141480I843J3374D01*
G01*
G75*
G02*
X317184Y138844I0J-3478D01*
G01*
X317898Y136180D01*
X339643Y114436D01*
G75*
G02*
X340114Y113301I-1131J-1135D01*
G01*
Y57984D01*
X342466Y53909D01*
X342710D01*
Y53076D01*
G75*
G02*
Y53067I-1789J-4D01*
G01*
G75*
G02*
Y53057I-1841J-5D01*
G01*
G75*
G02*
Y53048I-1789J-4D01*
G01*
G75*
G02*
Y53039I-1841J-5D01*
G01*
Y51894D01*
X344313D01*
Y53039D01*
G75*
G02*
Y53048I1867J5D01*
G01*
G75*
G02*
Y53057I1765J5D01*
G01*
G75*
G02*
Y53067I1867J5D01*
G01*
G75*
G02*
Y53076I1765J5D01*
G01*
Y53909D01*
X344557D01*
X346909Y57984D01*
Y112637D01*
X325632Y133914D01*
X322968Y134628D01*
G75*
G02*
X323810Y141480I843J3374D01*
G01*
G75*
G02*
X327184Y138844I0J-3478D01*
G01*
X327898Y136180D01*
X349643Y114436D01*
G75*
G02*
X350114Y113301I-1131J-1135D01*
G01*
Y57984D01*
X352466Y53909D01*
X352710D01*
Y53076D01*
G75*
G02*
Y53067I-1789J-4D01*
G01*
G75*
G02*
Y53057I-1841J-5D01*
G01*
G75*
G02*
Y53048I-1789J-4D01*
G01*
G75*
G02*
Y53039I-1841J-5D01*
G01*
Y51894D01*
X354313D01*
Y53039D01*
G75*
G02*
Y53048I1867J5D01*
G01*
G75*
G02*
Y53057I1765J5D01*
G01*
G75*
G02*
Y53067I1867J5D01*
G01*
G75*
G02*
Y53076I1765J5D01*
G01*
Y53909D01*
X354557D01*
X356909Y57984D01*
Y112637D01*
X335632Y133914D01*
X332968Y134628D01*
G75*
G02*
X333810Y141480I843J3374D01*
G01*
G75*
G02*
X337184Y138844I0J-3478D01*
G01*
X337898Y136180D01*
X359643Y114436D01*
G75*
G02*
X360114Y113301I-1131J-1135D01*
G01*
Y57984D01*
X362466Y53909D01*
X362710D01*
Y53076D01*
G75*
G02*
Y53067I-1789J-4D01*
G01*
G75*
G02*
Y53057I-1841J-5D01*
G01*
G75*
G02*
Y53048I-1789J-4D01*
G01*
G75*
G02*
Y53039I-1841J-5D01*
G01*
Y51894D01*
X364313D01*
Y53039D01*
G75*
G02*
Y53048I1867J5D01*
G01*
G75*
G02*
Y53057I1765J5D01*
G01*
G75*
G02*
Y53067I1867J5D01*
G01*
G75*
G02*
Y53076I1765J5D01*
G01*
Y53909D01*
X364557D01*
X366909Y57984D01*
Y112637D01*
X345632Y133914D01*
X342968Y134628D01*
G75*
G02*
X343810Y141480I843J3374D01*
G01*
G75*
G02*
X347184Y138844I0J-3478D01*
G01*
X347898Y136180D01*
X369643Y114436D01*
G75*
G02*
X370114Y113301I-1131J-1135D01*
G01*
Y57984D01*
X372466Y53909D01*
X372710D01*
Y53076D01*
G75*
G02*
Y53067I-1789J-4D01*
G01*
G75*
G02*
Y53057I-1841J-5D01*
G01*
G75*
G02*
Y53048I-1789J-4D01*
G01*
G75*
G02*
Y53039I-1841J-5D01*
G01*
Y51894D01*
X374313D01*
Y53039D01*
G75*
G02*
Y53048I1867J5D01*
G01*
G75*
G02*
Y53057I1765J5D01*
G01*
G75*
G02*
Y53067I1867J5D01*
G01*
G75*
G02*
Y53076I1765J5D01*
G01*
Y53909D01*
X374557D01*
X376909Y57984D01*
Y112637D01*
X355632Y133914D01*
X352968Y134628D01*
G75*
G02*
X353810Y141480I843J3374D01*
G01*
G75*
G02*
X357184Y138844I0J-3478D01*
G01*
X357898Y136180D01*
X379643Y114436D01*
G75*
G02*
X380114Y113301I-1131J-1135D01*
G01*
Y57984D01*
X382466Y53909D01*
X382710D01*
Y53076D01*
G75*
G02*
Y53067I-1789J-4D01*
G01*
G75*
G02*
Y53057I-1841J-5D01*
G01*
G75*
G02*
Y53048I-1789J-4D01*
G01*
G75*
G02*
Y53039I-1841J-5D01*
G01*
Y51894D01*
X384313D01*
Y53039D01*
G75*
G02*
Y53048I1867J5D01*
G01*
G75*
G02*
Y53057I1765J5D01*
G01*
G75*
G02*
Y53067I1867J5D01*
G01*
G75*
G02*
Y53076I1765J5D01*
G01*
Y53909D01*
X384557D01*
X386909Y57984D01*
Y112637D01*
X365632Y133914D01*
X362968Y134628D01*
G75*
G02*
X363810Y141480I843J3374D01*
G01*
G75*
G02*
X367184Y138844I0J-3478D01*
G01*
X367898Y136180D01*
X389643Y114436D01*
G75*
G02*
X390114Y113301I-1131J-1135D01*
G01*
Y57984D01*
X392466Y53909D01*
X392710D01*
Y53076D01*
G75*
G02*
Y53067I-1789J-4D01*
G01*
G75*
G02*
Y53057I-1841J-5D01*
G01*
G75*
G02*
Y53048I-1789J-4D01*
G01*
G75*
G02*
Y53039I-1841J-5D01*
G01*
Y51894D01*
X414313D01*
Y53039D01*
G75*
G02*
Y53048I1867J5D01*
G01*
G75*
G02*
Y53057I1765J5D01*
G01*
G75*
G02*
Y53067I1867J5D01*
G01*
G75*
G02*
Y53076I1765J5D01*
G01*
Y53909D01*
X414557D01*
X416909Y57984D01*
Y112637D01*
X395632Y133914D01*
X392968Y134628D01*
G75*
G02*
X393810Y141480I843J3374D01*
G01*
G75*
G02*
X397184Y138844I0J-3478D01*
G01*
X397898Y136180D01*
X419643Y114436D01*
G75*
G02*
X420114Y113301I-1131J-1135D01*
G01*
Y57984D01*
X422466Y53909D01*
X422710D01*
Y53076D01*
G75*
G02*
Y53067I-1789J-4D01*
G01*
G75*
G02*
Y53057I-1841J-5D01*
G01*
G75*
G02*
Y53048I-1789J-4D01*
G01*
G75*
G02*
Y53039I-1841J-5D01*
G01*
Y51894D01*
X424313D01*
Y53039D01*
G75*
G02*
Y53048I1867J5D01*
G01*
G75*
G02*
Y53057I1765J5D01*
G01*
G75*
G02*
Y53067I1867J5D01*
G01*
G75*
G02*
Y53076I1765J5D01*
G01*
Y53909D01*
X424557D01*
X426909Y57984D01*
Y112637D01*
X405632Y133914D01*
X402968Y134628D01*
G75*
G02*
X403810Y141480I843J3374D01*
G01*
G75*
G02*
X407184Y138844I0J-3478D01*
G01*
X407898Y136180D01*
X429643Y114436D01*
G75*
G02*
X430114Y113301I-1131J-1135D01*
G01*
Y57984D01*
X432466Y53909D01*
X432710D01*
Y53076D01*
G75*
G02*
Y53067I-1789J-4D01*
G01*
G75*
G02*
Y53057I-1841J-5D01*
G01*
G75*
G02*
Y53048I-1789J-4D01*
G01*
G75*
G02*
Y53039I-1841J-5D01*
G01*
Y51894D01*
X434313D01*
Y53039D01*
G75*
G02*
Y53048I1867J5D01*
G01*
G75*
G02*
Y53057I1765J5D01*
G01*
G75*
G02*
Y53067I1867J5D01*
G01*
G75*
G02*
Y53076I1765J5D01*
G01*
Y53909D01*
X434557D01*
X436909Y57984D01*
Y112637D01*
X415632Y133914D01*
X412968Y134628D01*
G75*
G02*
X413810Y141480I843J3374D01*
G01*
G75*
G02*
X417184Y138844I0J-3478D01*
G01*
X417898Y136180D01*
X439643Y114436D01*
G75*
G02*
X440114Y113301I-1131J-1135D01*
G01*
Y57984D01*
X442466Y53909D01*
X442710D01*
Y53076D01*
G75*
G02*
Y53067I-1789J-4D01*
G01*
G75*
G02*
Y53057I-1841J-5D01*
G01*
G75*
G02*
Y53048I-1789J-4D01*
G01*
G75*
G02*
Y53039I-1841J-5D01*
G01*
Y51894D01*
X445787D01*
Y53391D01*
G75*
G02*
X448256Y55860I2469J0D01*
G01*
X468127D01*
Y175433D01*
G75*
G02*
X467339Y175153I-788J970D01*
G01*
X441737D01*
G75*
G02*
X440487Y176403I0J1250D01*
G01*
Y181153D01*
X426737D01*
G75*
G02*
X425487Y182403I0J1250D01*
G01*
Y188348D01*
X120594D01*
G75*
G03*
X118998Y186751I0J-1596D01*
G01*
X439458Y142002D02*
G75*
G02*
X458563I9552J0D01*
G01*
G75*
G02*
X439458I-9552J0D01*
G01*
X442596Y84094D02*
X464781D01*
Y61909D01*
X442596D01*
Y84094D01*
X122596D02*
X144781D01*
Y61909D01*
X122596D01*
Y84094D01*
X129058Y142002D02*
G75*
G02*
X148163I9552J0D01*
G01*
G75*
G02*
X129058I-9552J0D01*
G01*
X170333Y148002D02*
G75*
G02*
X177288I3478J0D01*
G01*
G75*
G02*
X170333I-3478J0D01*
G01*
X180333D02*
G75*
G02*
X187288I3478J0D01*
G01*
G75*
G02*
X180333I-3478J0D01*
G01*
X190333D02*
G75*
G02*
X197288I3478J0D01*
G01*
G75*
G02*
X190333I-3478J0D01*
G01*
X200333D02*
G75*
G02*
X207288I3478J0D01*
G01*
G75*
G02*
X200333I-3478J0D01*
G01*
X210333D02*
G75*
G02*
X217288I3478J0D01*
G01*
G75*
G02*
X210333I-3478J0D01*
G01*
X220333D02*
G75*
G02*
X227288I3478J0D01*
G01*
G75*
G02*
X220333I-3478J0D01*
G01*
X230333D02*
G75*
G02*
X237288I3478J0D01*
G01*
G75*
G02*
X230333I-3478J0D01*
G01*
X240333D02*
G75*
G02*
X247288I3478J0D01*
G01*
G75*
G02*
X240333I-3478J0D01*
G01*
X250333D02*
G75*
G02*
X257288I3478J0D01*
G01*
G75*
G02*
X250333I-3478J0D01*
G01*
X260333D02*
G75*
G02*
X267288I3478J0D01*
G01*
G75*
G02*
X260333I-3478J0D01*
G01*
X270333D02*
G75*
G02*
X277288I3478J0D01*
G01*
G75*
G02*
X270333I-3478J0D01*
G01*
X280333D02*
G75*
G02*
X287288I3478J0D01*
G01*
G75*
G02*
X280333I-3478J0D01*
G01*
X290333D02*
G75*
G02*
X297288I3478J0D01*
G01*
G75*
G02*
X290333I-3478J0D01*
G01*
X300333D02*
G75*
G02*
X307288I3478J0D01*
G01*
G75*
G02*
X300333I-3478J0D01*
G01*
X310333D02*
G75*
G02*
X317288I3478J0D01*
G01*
G75*
G02*
X310333I-3478J0D01*
G01*
X320333D02*
G75*
G02*
X327288I3478J0D01*
G01*
G75*
G02*
X320333I-3478J0D01*
G01*
X330333D02*
G75*
G02*
X337288I3478J0D01*
G01*
G75*
G02*
X330333I-3478J0D01*
G01*
X340333D02*
G75*
G02*
X347288I3478J0D01*
G01*
G75*
G02*
X340333I-3478J0D01*
G01*
X350333D02*
G75*
G02*
X357288I3478J0D01*
G01*
G75*
G02*
X350333I-3478J0D01*
G01*
X360333D02*
G75*
G02*
X367288I3478J0D01*
G01*
G75*
G02*
X360333I-3478J0D01*
G01*
X369935Y138002D02*
G75*
G02*
X377685I3875J0D01*
G01*
G75*
G02*
X369935I-3875J0D01*
G01*
X370333Y148002D02*
G75*
G02*
X377288I3478J0D01*
G01*
G75*
G02*
X370333I-3478J0D01*
G01*
X379935Y138002D02*
G75*
G02*
X387685I3875J0D01*
G01*
G75*
G02*
X379935I-3875J0D01*
G01*
X380333Y148002D02*
G75*
G02*
X387288I3478J0D01*
G01*
G75*
G02*
X380333I-3478J0D01*
G01*
X390333D02*
G75*
G02*
X397288I3478J0D01*
G01*
G75*
G02*
X390333I-3478J0D01*
G01*
X400333D02*
G75*
G02*
X407288I3478J0D01*
G01*
G75*
G02*
X400333I-3478J0D01*
G01*
X410333D02*
G75*
G02*
X417288I3478J0D01*
G01*
G75*
G02*
X410333I-3478J0D01*
G01*
X119248Y73002D02*
G36*
X119248Y73002D02*
Y55610D01*
X138744D01*
G75*
G02*
X141213Y53143I0J-2468D01*
G01*
G75*
G02*
Y53142I-3470J0D01*
G01*
Y52144D01*
X194313D01*
Y53039D01*
Y53048D01*
Y53057D01*
Y53067D01*
Y53076D01*
Y53909D01*
X194557D01*
X196909Y57984D01*
Y73002D01*
X144781D01*
Y61909D01*
X122596D01*
Y73002D01*
X119248D01*
G37*
X200114D02*
G36*
X200114Y73002D02*
Y57984D01*
X202466Y53909D01*
X202710D01*
Y53076D01*
Y53067D01*
Y53057D01*
Y53048D01*
Y53039D01*
Y52144D01*
X204313D01*
Y53039D01*
Y53048D01*
Y53057D01*
Y53067D01*
Y53076D01*
Y53909D01*
X204557D01*
X206909Y57984D01*
Y73002D01*
X200114D01*
G37*
X210114D02*
G36*
X210114Y73002D02*
Y57984D01*
X212466Y53909D01*
X212710D01*
Y53076D01*
Y53067D01*
Y53057D01*
Y53048D01*
Y53039D01*
Y52144D01*
X214313D01*
Y53039D01*
Y53048D01*
Y53057D01*
Y53067D01*
Y53076D01*
Y53909D01*
X214557D01*
X216909Y57984D01*
Y73002D01*
X210114D01*
G37*
X220114D02*
G36*
X220114Y73002D02*
Y57984D01*
X222466Y53909D01*
X222710D01*
Y53076D01*
Y53067D01*
Y53057D01*
Y53048D01*
Y53039D01*
Y52144D01*
X224313D01*
Y53039D01*
Y53048D01*
Y53057D01*
Y53067D01*
Y53076D01*
Y53909D01*
X224557D01*
X226909Y57984D01*
Y73002D01*
X220114D01*
G37*
X230114D02*
G36*
X230114Y73002D02*
Y57984D01*
X232466Y53909D01*
X232710D01*
Y53076D01*
Y53067D01*
Y53057D01*
Y53048D01*
Y53039D01*
Y52144D01*
X234313D01*
Y53039D01*
Y53048D01*
Y53057D01*
Y53067D01*
Y53076D01*
Y53909D01*
X234557D01*
X236909Y57984D01*
Y73002D01*
X230114D01*
G37*
X240114D02*
G36*
X240114Y73002D02*
Y57984D01*
X242466Y53909D01*
X242710D01*
Y53076D01*
Y53067D01*
Y53057D01*
Y53048D01*
Y53039D01*
Y52144D01*
X244313D01*
Y53039D01*
Y53048D01*
Y53057D01*
Y53067D01*
Y53076D01*
Y53909D01*
X244557D01*
X246909Y57984D01*
Y73002D01*
X240114D01*
G37*
X250114D02*
G36*
X250114Y73002D02*
Y57984D01*
X252466Y53909D01*
X252710D01*
Y53076D01*
Y53067D01*
Y53057D01*
Y53048D01*
Y53039D01*
Y52144D01*
X254313D01*
Y53039D01*
Y53048D01*
Y53057D01*
Y53067D01*
Y53076D01*
Y53909D01*
X254557D01*
X256909Y57984D01*
Y73002D01*
X250114D01*
G37*
X260114D02*
G36*
X260114Y73002D02*
Y57984D01*
X262466Y53909D01*
X262710D01*
Y53076D01*
Y53067D01*
Y53057D01*
Y53048D01*
Y53039D01*
Y52144D01*
X264313D01*
Y53039D01*
Y53048D01*
Y53057D01*
Y53067D01*
Y53076D01*
Y53909D01*
X264557D01*
X266909Y57984D01*
Y73002D01*
X260114D01*
G37*
X270114D02*
G36*
X270114Y73002D02*
Y57984D01*
X272466Y53909D01*
X272710D01*
Y53076D01*
Y53067D01*
Y53057D01*
Y53048D01*
Y53039D01*
Y52144D01*
X274313D01*
Y53039D01*
Y53048D01*
Y53057D01*
Y53067D01*
Y53076D01*
Y53909D01*
X274557D01*
X276909Y57984D01*
Y73002D01*
X270114D01*
G37*
X280114D02*
G36*
X280114Y73002D02*
Y57984D01*
X282466Y53909D01*
X282710D01*
Y53076D01*
Y53067D01*
Y53057D01*
Y53048D01*
Y53039D01*
Y52144D01*
X284313D01*
Y53039D01*
Y53048D01*
Y53057D01*
Y53067D01*
Y53076D01*
Y53909D01*
X284557D01*
X286909Y57984D01*
Y73002D01*
X280114D01*
G37*
X290114D02*
G36*
X290114Y73002D02*
Y57984D01*
X292466Y53909D01*
X292710D01*
Y53076D01*
Y53067D01*
Y53057D01*
Y53048D01*
Y53039D01*
Y52144D01*
X294313D01*
Y53039D01*
Y53048D01*
Y53057D01*
Y53067D01*
Y53076D01*
Y53909D01*
X294557D01*
X296909Y57984D01*
Y73002D01*
X290114D01*
G37*
X300114D02*
G36*
X300114Y73002D02*
Y57984D01*
X302466Y53909D01*
X302710D01*
Y53076D01*
Y53067D01*
Y53057D01*
Y53048D01*
Y53039D01*
Y52144D01*
X304313D01*
Y53039D01*
Y53048D01*
Y53057D01*
Y53067D01*
Y53076D01*
Y53909D01*
X304557D01*
X306909Y57984D01*
Y73002D01*
X300114D01*
G37*
X310114D02*
G36*
X310114Y73002D02*
Y57984D01*
X312466Y53909D01*
X312710D01*
Y53076D01*
Y53067D01*
Y53057D01*
Y53048D01*
Y53039D01*
Y52144D01*
X314313D01*
Y53039D01*
Y53048D01*
Y53057D01*
Y53067D01*
Y53076D01*
Y53909D01*
X314557D01*
X316909Y57984D01*
Y73002D01*
X310114D01*
G37*
X320114D02*
G36*
X320114Y73002D02*
Y57984D01*
X322466Y53909D01*
X322710D01*
Y53076D01*
Y53067D01*
Y53057D01*
Y53048D01*
Y53039D01*
Y52144D01*
X324313D01*
Y53039D01*
Y53048D01*
Y53057D01*
Y53067D01*
Y53076D01*
Y53909D01*
X324557D01*
X326909Y57984D01*
Y73002D01*
X320114D01*
G37*
X330114D02*
G36*
X330114Y73002D02*
Y57984D01*
X332466Y53909D01*
X332710D01*
Y53076D01*
Y53067D01*
Y53057D01*
Y53048D01*
Y53039D01*
Y52144D01*
X334313D01*
Y53039D01*
Y53048D01*
Y53057D01*
Y53067D01*
Y53076D01*
Y53909D01*
X334557D01*
X336909Y57984D01*
Y73002D01*
X330114D01*
G37*
X340114D02*
G36*
X340114Y73002D02*
Y57984D01*
X342466Y53909D01*
X342710D01*
Y53076D01*
Y53067D01*
Y53057D01*
Y53048D01*
Y53039D01*
Y52144D01*
X344313D01*
Y53039D01*
Y53048D01*
Y53057D01*
Y53067D01*
Y53076D01*
Y53909D01*
X344557D01*
X346909Y57984D01*
Y73002D01*
X340114D01*
G37*
X350114D02*
G36*
X350114Y73002D02*
Y57984D01*
X352466Y53909D01*
X352710D01*
Y53076D01*
Y53067D01*
Y53057D01*
Y53048D01*
Y53039D01*
Y52144D01*
X354313D01*
Y53039D01*
Y53048D01*
Y53057D01*
Y53067D01*
Y53076D01*
Y53909D01*
X354557D01*
X356909Y57984D01*
Y73002D01*
X350114D01*
G37*
X360114D02*
G36*
X360114Y73002D02*
Y57984D01*
X362466Y53909D01*
X362710D01*
Y53076D01*
Y53067D01*
Y53057D01*
Y53048D01*
Y53039D01*
Y52144D01*
X364313D01*
Y53039D01*
Y53048D01*
Y53057D01*
Y53067D01*
Y53076D01*
Y53909D01*
X364557D01*
X366909Y57984D01*
Y73002D01*
X360114D01*
G37*
X370114D02*
G36*
X370114Y73002D02*
Y57984D01*
X372466Y53909D01*
X372710D01*
Y53076D01*
Y53067D01*
Y53057D01*
Y53048D01*
Y53039D01*
Y52144D01*
X374313D01*
Y53039D01*
Y53048D01*
Y53057D01*
Y53067D01*
Y53076D01*
Y53909D01*
X374557D01*
X376909Y57984D01*
Y73002D01*
X370114D01*
G37*
X380114D02*
G36*
X380114Y73002D02*
Y57984D01*
X382466Y53909D01*
X382710D01*
Y53076D01*
Y53067D01*
Y53057D01*
Y53048D01*
Y53039D01*
Y52144D01*
X384313D01*
Y53039D01*
Y53048D01*
Y53057D01*
Y53067D01*
Y53076D01*
Y53909D01*
X384557D01*
X386909Y57984D01*
Y73002D01*
X380114D01*
G37*
X390114D02*
G36*
X390114Y73002D02*
Y57984D01*
X392466Y53909D01*
X392710D01*
Y53076D01*
Y53067D01*
Y53057D01*
Y53048D01*
Y53039D01*
Y52144D01*
X414313D01*
Y53039D01*
Y53048D01*
Y53057D01*
Y53067D01*
Y53076D01*
Y53909D01*
X414557D01*
X416909Y57984D01*
Y73002D01*
X390114D01*
G37*
X420114D02*
G36*
X420114Y73002D02*
Y57984D01*
X422466Y53909D01*
X422710D01*
Y53076D01*
Y53067D01*
Y53057D01*
Y53048D01*
Y53039D01*
Y52144D01*
X424313D01*
Y53039D01*
Y53048D01*
Y53057D01*
Y53067D01*
Y53076D01*
Y53909D01*
X424557D01*
X426909Y57984D01*
Y73002D01*
X420114D01*
G37*
X430114D02*
G36*
X430114Y73002D02*
Y57984D01*
X432466Y53909D01*
X432710D01*
Y53076D01*
Y53067D01*
Y53057D01*
Y53048D01*
Y53039D01*
Y52144D01*
X434313D01*
Y53039D01*
Y53048D01*
Y53057D01*
Y53067D01*
Y53076D01*
Y53909D01*
X434557D01*
X436909Y57984D01*
Y73002D01*
X430114D01*
G37*
X440114D02*
G36*
X440114Y73002D02*
Y57984D01*
X442466Y53909D01*
X442710D01*
Y53076D01*
Y53067D01*
Y53057D01*
Y53048D01*
Y53039D01*
Y52144D01*
X445787D01*
Y53391D01*
G75*
G02*
Y53392I3470J0D01*
G01*
G75*
G02*
X448256Y55860I2469J0D01*
G01*
X467877D01*
Y73002D01*
X464781D01*
Y61909D01*
X442596D01*
Y73002D01*
X440114D01*
G37*
X119248Y138002D02*
G36*
X119248Y138002D02*
Y73002D01*
X122596D01*
Y84094D01*
X144781D01*
Y73002D01*
X196909D01*
Y112637D01*
X177252Y132294D01*
X171520Y133829D01*
G75*
G02*
X170578Y134524I415J1548D01*
G01*
X170333D01*
Y138002D01*
X147285D01*
G75*
G02*
X129936I-8674J4000D01*
G01*
X119248D01*
G37*
X178596D02*
G36*
X178596Y138002D02*
X179519Y134559D01*
X199643Y114436D01*
G75*
G02*
X200114Y113301I-1130J-1135D01*
G01*
Y113301D01*
Y73002D01*
X206909D01*
Y112637D01*
X185632Y133914D01*
X182968Y134628D01*
G75*
G02*
X180333Y138002I843J3374D01*
G01*
X178596D01*
G37*
X187410D02*
G36*
X187410Y138002D02*
X187898Y136180D01*
X209643Y114436D01*
G75*
G02*
X210114Y113301I-1130J-1135D01*
G01*
Y113301D01*
Y73002D01*
X216909D01*
Y112637D01*
X195632Y133914D01*
X192968Y134628D01*
G75*
G02*
X190333Y138002I843J3374D01*
G01*
X187410D01*
G37*
X197410D02*
G36*
X197410Y138002D02*
X197898Y136180D01*
X219643Y114436D01*
G75*
G02*
X220114Y113301I-1130J-1135D01*
G01*
Y113301D01*
Y73002D01*
X226909D01*
Y112637D01*
X205632Y133914D01*
X202968Y134628D01*
G75*
G02*
X200333Y138002I843J3374D01*
G01*
X197410D01*
G37*
X207410D02*
G36*
X207410Y138002D02*
X207898Y136180D01*
X229643Y114436D01*
G75*
G02*
X230114Y113301I-1130J-1135D01*
G01*
Y113301D01*
Y73002D01*
X236909D01*
Y112637D01*
X215632Y133914D01*
X212968Y134628D01*
G75*
G02*
X210333Y138002I843J3374D01*
G01*
X207410D01*
G37*
X217410D02*
G36*
X217410Y138002D02*
X217898Y136180D01*
X239643Y114436D01*
G75*
G02*
X240114Y113301I-1130J-1135D01*
G01*
Y113301D01*
Y73002D01*
X246909D01*
Y112637D01*
X225632Y133914D01*
X222968Y134628D01*
G75*
G02*
X220333Y138002I843J3374D01*
G01*
X217410D01*
G37*
X227410D02*
G36*
X227410Y138002D02*
X227898Y136180D01*
X249643Y114436D01*
G75*
G02*
X250114Y113301I-1130J-1135D01*
G01*
Y113301D01*
Y73002D01*
X256909D01*
Y112637D01*
X235632Y133914D01*
X232968Y134628D01*
G75*
G02*
X230333Y138002I843J3374D01*
G01*
X227410D01*
G37*
X237410D02*
G36*
X237410Y138002D02*
X237898Y136180D01*
X259643Y114436D01*
G75*
G02*
X260114Y113301I-1130J-1135D01*
G01*
Y113301D01*
Y73002D01*
X266909D01*
Y112637D01*
X245632Y133914D01*
X242968Y134628D01*
G75*
G02*
X240333Y138002I843J3374D01*
G01*
X237410D01*
G37*
X247410D02*
G36*
X247410Y138002D02*
X247898Y136180D01*
X269643Y114436D01*
G75*
G02*
X270114Y113301I-1130J-1135D01*
G01*
Y113301D01*
Y73002D01*
X276909D01*
Y112637D01*
X255632Y133914D01*
X252968Y134628D01*
G75*
G02*
X250333Y138002I843J3374D01*
G01*
X247410D01*
G37*
X257410D02*
G36*
X257410Y138002D02*
X257898Y136180D01*
X279643Y114436D01*
G75*
G02*
X280114Y113301I-1130J-1135D01*
G01*
Y113301D01*
Y73002D01*
X286909D01*
Y112637D01*
X265632Y133914D01*
X262968Y134628D01*
G75*
G02*
X260333Y138002I843J3374D01*
G01*
X257410D01*
G37*
X267410D02*
G36*
X267410Y138002D02*
X267898Y136180D01*
X289643Y114436D01*
G75*
G02*
X290114Y113301I-1130J-1135D01*
G01*
Y113301D01*
Y73002D01*
X296909D01*
Y112637D01*
X275632Y133914D01*
X272968Y134628D01*
G75*
G02*
X270333Y138002I843J3374D01*
G01*
X267410D01*
G37*
X277410D02*
G36*
X277410Y138002D02*
X277898Y136180D01*
X299643Y114436D01*
G75*
G02*
X300114Y113301I-1130J-1135D01*
G01*
Y113301D01*
Y73002D01*
X306909D01*
Y112637D01*
X285632Y133914D01*
X282968Y134628D01*
G75*
G02*
X280333Y138002I843J3374D01*
G01*
X277410D01*
G37*
X287410D02*
G36*
X287410Y138002D02*
X287898Y136180D01*
X309643Y114436D01*
G75*
G02*
X310114Y113301I-1130J-1135D01*
G01*
Y113301D01*
Y73002D01*
X316909D01*
Y112637D01*
X295632Y133914D01*
X292968Y134628D01*
G75*
G02*
X290333Y138002I843J3374D01*
G01*
X287410D01*
G37*
X297410D02*
G36*
X297410Y138002D02*
X297898Y136180D01*
X319643Y114436D01*
G75*
G02*
X320114Y113301I-1130J-1135D01*
G01*
Y113301D01*
Y73002D01*
X326909D01*
Y112637D01*
X305632Y133914D01*
X302968Y134628D01*
G75*
G02*
X300333Y138002I843J3374D01*
G01*
X297410D01*
G37*
X307410D02*
G36*
X307410Y138002D02*
X307898Y136180D01*
X329643Y114436D01*
G75*
G02*
X330114Y113301I-1130J-1135D01*
G01*
Y113301D01*
Y73002D01*
X336909D01*
Y112637D01*
X315632Y133914D01*
X312968Y134628D01*
G75*
G02*
X310333Y138002I843J3374D01*
G01*
X307410D01*
G37*
X317410D02*
G36*
X317410Y138002D02*
X317898Y136180D01*
X339643Y114436D01*
G75*
G02*
X340114Y113301I-1130J-1135D01*
G01*
Y113301D01*
Y73002D01*
X346909D01*
Y112637D01*
X325632Y133914D01*
X322968Y134628D01*
G75*
G02*
X320333Y138002I843J3374D01*
G01*
X317410D01*
G37*
X327410D02*
G36*
X327410Y138002D02*
X327898Y136180D01*
X349643Y114436D01*
G75*
G02*
X350114Y113301I-1130J-1135D01*
G01*
Y113301D01*
Y73002D01*
X356909D01*
Y112637D01*
X335632Y133914D01*
X332968Y134628D01*
G75*
G02*
X330333Y138002I843J3374D01*
G01*
X327410D01*
G37*
X337410D02*
G36*
X337410Y138002D02*
X337898Y136180D01*
X359643Y114436D01*
G75*
G02*
X360114Y113301I-1130J-1135D01*
G01*
Y113301D01*
Y73002D01*
X366909D01*
Y112637D01*
X345632Y133914D01*
X342968Y134628D01*
G75*
G02*
X340333Y138002I843J3374D01*
G01*
X337410D01*
G37*
X347410D02*
G36*
X347410Y138002D02*
X347898Y136180D01*
X369643Y114436D01*
G75*
G02*
X370114Y113301I-1130J-1135D01*
G01*
Y113301D01*
Y73002D01*
X376909D01*
Y112637D01*
X355632Y133914D01*
X352968Y134628D01*
G75*
G02*
X350333Y138002I843J3374D01*
G01*
X347410D01*
G37*
X357410D02*
G36*
X357410Y138002D02*
X357898Y136180D01*
X379643Y114436D01*
G75*
G02*
X380114Y113301I-1130J-1135D01*
G01*
Y113301D01*
Y73002D01*
X386909D01*
Y112637D01*
X365632Y133914D01*
X362968Y134628D01*
G75*
G02*
X360333Y138002I843J3374D01*
G01*
X357410D01*
G37*
X367410D02*
G36*
X367410Y138002D02*
X367898Y136180D01*
X389643Y114436D01*
G75*
G02*
X390114Y113301I-1130J-1135D01*
G01*
Y113301D01*
Y73002D01*
X416909D01*
Y112637D01*
X395632Y133914D01*
X392968Y134628D01*
G75*
G02*
X390333Y138002I843J3374D01*
G01*
X387685D01*
G75*
G02*
X379935I-3875J0D01*
G01*
X377685D01*
G75*
G02*
X369935I-3875J0D01*
G01*
X367410D01*
G37*
X397410D02*
G36*
X397410Y138002D02*
X397898Y136180D01*
X419643Y114436D01*
G75*
G02*
X420114Y113301I-1130J-1135D01*
G01*
Y113301D01*
Y73002D01*
X426909D01*
Y112637D01*
X405632Y133914D01*
X402968Y134628D01*
G75*
G02*
X400333Y138002I843J3374D01*
G01*
X397410D01*
G37*
X407410D02*
G36*
X407410Y138002D02*
X407898Y136180D01*
X429643Y114436D01*
G75*
G02*
X430114Y113301I-1130J-1135D01*
G01*
Y113301D01*
Y73002D01*
X436909D01*
Y112637D01*
X415632Y133914D01*
X412968Y134628D01*
G75*
G02*
X410333Y138002I843J3374D01*
G01*
X407410D01*
G37*
X417410D02*
G36*
X417410Y138002D02*
X417898Y136180D01*
X439643Y114436D01*
G75*
G02*
X440114Y113301I-1130J-1135D01*
G01*
Y113301D01*
Y73002D01*
X442596D01*
Y84094D01*
X464781D01*
Y73002D01*
X467877D01*
Y138002D01*
X457685D01*
G75*
G02*
X440336I-8674J4000D01*
G01*
X417410D01*
G37*
X119248Y142002D02*
G36*
X119248Y142002D02*
Y138002D01*
X129936D01*
G75*
G02*
X129058Y142002I8675J4000D01*
G01*
X119248D01*
G37*
X148163D02*
G36*
X148163Y142002D02*
G75*
G02*
X147285Y138002I-9553J0D01*
G01*
X170333D01*
Y141480D01*
X177288D01*
Y141234D01*
G75*
G02*
X177983Y140292I-853J-1357D01*
G01*
X178596Y138002D01*
X180333D01*
G75*
G02*
X183810Y141480I3478J0D01*
G01*
G75*
G02*
X187184Y138844I0J-3477D01*
G01*
X187410Y138002D01*
X190333D01*
G75*
G02*
X193810Y141480I3478J0D01*
G01*
G75*
G02*
X197184Y138844I0J-3477D01*
G01*
X197410Y138002D01*
X200333D01*
G75*
G02*
X203810Y141480I3478J0D01*
G01*
G75*
G02*
X207184Y138844I0J-3477D01*
G01*
X207410Y138002D01*
X210333D01*
G75*
G02*
X213810Y141480I3478J0D01*
G01*
G75*
G02*
X217184Y138844I0J-3477D01*
G01*
X217410Y138002D01*
X220333D01*
G75*
G02*
X223810Y141480I3478J0D01*
G01*
G75*
G02*
X227184Y138844I0J-3477D01*
G01*
X227410Y138002D01*
X230333D01*
G75*
G02*
X233810Y141480I3478J0D01*
G01*
G75*
G02*
X237184Y138844I0J-3477D01*
G01*
X237410Y138002D01*
X240333D01*
G75*
G02*
X243810Y141480I3478J0D01*
G01*
G75*
G02*
X247184Y138844I0J-3477D01*
G01*
X247410Y138002D01*
X250333D01*
G75*
G02*
X253810Y141480I3478J0D01*
G01*
G75*
G02*
X257184Y138844I0J-3477D01*
G01*
X257410Y138002D01*
X260333D01*
G75*
G02*
X263810Y141480I3478J0D01*
G01*
G75*
G02*
X267184Y138844I0J-3477D01*
G01*
X267410Y138002D01*
X270333D01*
G75*
G02*
X273810Y141480I3478J0D01*
G01*
G75*
G02*
X277184Y138844I0J-3477D01*
G01*
X277410Y138002D01*
X280333D01*
G75*
G02*
X283810Y141480I3478J0D01*
G01*
G75*
G02*
X287184Y138844I0J-3477D01*
G01*
X287410Y138002D01*
X290333D01*
G75*
G02*
X293810Y141480I3478J0D01*
G01*
G75*
G02*
X297184Y138844I0J-3477D01*
G01*
X297410Y138002D01*
X300333D01*
G75*
G02*
X303810Y141480I3478J0D01*
G01*
G75*
G02*
X307184Y138844I0J-3477D01*
G01*
X307410Y138002D01*
X310333D01*
G75*
G02*
X313810Y141480I3478J0D01*
G01*
G75*
G02*
X317184Y138844I0J-3477D01*
G01*
X317410Y138002D01*
X320333D01*
G75*
G02*
X323810Y141480I3478J0D01*
G01*
G75*
G02*
X327184Y138844I0J-3477D01*
G01*
X327410Y138002D01*
X330333D01*
G75*
G02*
X333810Y141480I3478J0D01*
G01*
G75*
G02*
X337184Y138844I0J-3477D01*
G01*
X337410Y138002D01*
X340333D01*
G75*
G02*
X343810Y141480I3478J0D01*
G01*
G75*
G02*
X347184Y138844I0J-3477D01*
G01*
X347410Y138002D01*
X350333D01*
G75*
G02*
X353810Y141480I3478J0D01*
G01*
G75*
G02*
X357184Y138844I0J-3477D01*
G01*
X357410Y138002D01*
X360333D01*
G75*
G02*
X363810Y141480I3478J0D01*
G01*
G75*
G02*
X367184Y138844I0J-3477D01*
G01*
X367410Y138002D01*
X369935D01*
G75*
G02*
X377685I3875J0D01*
G01*
X379935D01*
G75*
G02*
X387685I3875J0D01*
G01*
X390333D01*
G75*
G02*
X393810Y141480I3478J0D01*
G01*
G75*
G02*
X397184Y138844I0J-3477D01*
G01*
X397410Y138002D01*
X400333D01*
G75*
G02*
X403810Y141480I3478J0D01*
G01*
G75*
G02*
X407184Y138844I0J-3477D01*
G01*
X407410Y138002D01*
X410333D01*
G75*
G02*
X413810Y141480I3478J0D01*
G01*
G75*
G02*
X417184Y138844I0J-3477D01*
G01*
X417410Y138002D01*
X440336D01*
G75*
G02*
X439458Y142002I8675J4000D01*
G01*
X148163D01*
G37*
X458563D02*
G36*
X458563Y142002D02*
G75*
G02*
X457685Y138002I-9553J0D01*
G01*
X467877D01*
Y142002D01*
X458563D01*
G37*
X119248Y148002D02*
G36*
X119248Y148002D02*
Y142002D01*
X129058D01*
G75*
G02*
X131177Y148002I9552J0D01*
G01*
X119248D01*
G37*
X146043D02*
G36*
X146043Y148002D02*
G75*
G02*
X148163Y142002I-7433J-6000D01*
G01*
X439458D01*
G75*
G02*
X441577Y148002I9552J0D01*
G01*
X417288D01*
G75*
G02*
X410333I-3478J0D01*
G01*
X407288D01*
G75*
G02*
X400333I-3478J0D01*
G01*
X397288D01*
G75*
G02*
X390333I-3478J0D01*
G01*
X387288D01*
G75*
G02*
X380333I-3478J0D01*
G01*
X377288D01*
G75*
G02*
X370333I-3478J0D01*
G01*
X367288D01*
G75*
G02*
X360333I-3478J0D01*
G01*
X357288D01*
G75*
G02*
X350333I-3478J0D01*
G01*
X347288D01*
G75*
G02*
X340333I-3478J0D01*
G01*
X337288D01*
G75*
G02*
X330333I-3478J0D01*
G01*
X327288D01*
G75*
G02*
X320333I-3478J0D01*
G01*
X317288D01*
G75*
G02*
X310333I-3478J0D01*
G01*
X307288D01*
G75*
G02*
X300333I-3478J0D01*
G01*
X297288D01*
G75*
G02*
X290333I-3478J0D01*
G01*
X287288D01*
G75*
G02*
X280333I-3478J0D01*
G01*
X277288D01*
G75*
G02*
X270333I-3478J0D01*
G01*
X267288D01*
G75*
G02*
X260333I-3478J0D01*
G01*
X257288D01*
G75*
G02*
X250333I-3478J0D01*
G01*
X247288D01*
G75*
G02*
X240333I-3478J0D01*
G01*
X237288D01*
G75*
G02*
X230333I-3478J0D01*
G01*
X227288D01*
G75*
G02*
X220333I-3478J0D01*
G01*
X217288D01*
G75*
G02*
X210333I-3478J0D01*
G01*
X207288D01*
G75*
G02*
X200333I-3478J0D01*
G01*
X197288D01*
G75*
G02*
X190333I-3478J0D01*
G01*
X187288D01*
G75*
G02*
X180333I-3478J0D01*
G01*
X177288D01*
G75*
G02*
X170333I-3478J0D01*
G01*
X146043D01*
G37*
X456443D02*
G36*
X456443Y148002D02*
G75*
G02*
X458563Y142002I-7433J-6000D01*
G01*
X467877D01*
Y148002D01*
X456443D01*
G37*
X119248Y187609D02*
G36*
X119248Y187609D02*
Y148002D01*
X131177D01*
G75*
G02*
X146043I7433J-6000D01*
G01*
X170333D01*
G75*
G02*
X177288I3478J0D01*
G01*
X180333D01*
G75*
G02*
X187288I3478J0D01*
G01*
X190333D01*
G75*
G02*
X197288I3478J0D01*
G01*
X200333D01*
G75*
G02*
X207288I3478J0D01*
G01*
X210333D01*
G75*
G02*
X217288I3478J0D01*
G01*
X220333D01*
G75*
G02*
X227288I3478J0D01*
G01*
X230333D01*
G75*
G02*
X237288I3478J0D01*
G01*
X240333D01*
G75*
G02*
X247288I3478J0D01*
G01*
X250333D01*
G75*
G02*
X257288I3478J0D01*
G01*
X260333D01*
G75*
G02*
X267288I3478J0D01*
G01*
X270333D01*
G75*
G02*
X277288I3478J0D01*
G01*
X280333D01*
G75*
G02*
X287288I3478J0D01*
G01*
X290333D01*
G75*
G02*
X297288I3478J0D01*
G01*
X300333D01*
G75*
G02*
X307288I3478J0D01*
G01*
X310333D01*
G75*
G02*
X317288I3478J0D01*
G01*
X320333D01*
G75*
G02*
X327288I3478J0D01*
G01*
X330333D01*
G75*
G02*
X337288I3478J0D01*
G01*
X340333D01*
G75*
G02*
X347288I3478J0D01*
G01*
X350333D01*
G75*
G02*
X357288I3478J0D01*
G01*
X360333D01*
G75*
G02*
X367288I3478J0D01*
G01*
X370333D01*
G75*
G02*
X377288I3478J0D01*
G01*
X380333D01*
G75*
G02*
X387288I3478J0D01*
G01*
X390333D01*
G75*
G02*
X397288I3478J0D01*
G01*
X400333D01*
G75*
G02*
X407288I3478J0D01*
G01*
X410333D01*
G75*
G02*
X417288I3478J0D01*
G01*
X441577D01*
G75*
G02*
X456443I7433J-6000D01*
G01*
X467877D01*
Y175275D01*
G75*
G02*
X467339Y175153I-539J1128D01*
G01*
X441737D01*
G75*
G02*
X440487Y176403I0J1250D01*
G01*
Y181153D01*
X426737D01*
G75*
G02*
X425487Y182403I0J1250D01*
G01*
Y188098D01*
X119737D01*
G75*
G03*
X119248Y187609I858J-1347D01*
G01*
G37*
X142863Y13541D02*
X443513D01*
G75*
G03*
X448256Y18283I0J4743D01*
G01*
Y53391D01*
X470596D01*
Y187243D01*
G75*
G03*
X467023Y190816I-3573J0D01*
G01*
X120594D01*
G75*
G03*
X116529Y186751I0J-4065D01*
G01*
Y53142D01*
X138744D01*
Y17659D01*
G75*
G03*
X142863Y13541I4119J0D01*
G01*
D02*
D86*
X124346Y73002D02*
X122346D01*
X133689Y63659D02*
Y61659D01*
Y82344D02*
Y84344D01*
X143031Y73002D02*
X145031D01*
X371685Y138002D02*
X369685D01*
X373810Y135877D02*
Y133877D01*
Y140127D02*
Y142127D01*
X375935Y138002D02*
X377935D01*
X381685D02*
X379685D01*
X383810Y135877D02*
Y133877D01*
Y140127D02*
Y142127D01*
X385935Y138002D02*
X387935D01*
X444346Y73002D02*
X442346D01*
X453689Y63659D02*
Y61659D01*
Y82344D02*
Y84344D01*
X463031Y73002D02*
X465031D01*
D02*
D87*
X464538Y183641D02*
X467038D01*
X464850Y185829D01*
X464538Y186454D01*
X464850Y187079D01*
X465475Y187391D01*
X466413D01*
X467038Y187079D01*
X461725Y183954D02*
X461100Y183641D01*
X460475D01*
X459850Y183954D01*
X459538Y184579D01*
Y186454D01*
X459850Y187079D01*
X460475Y187391D01*
X461100D01*
X461725Y187079D01*
X462038Y186454D01*
Y184579D01*
X461725Y183954D01*
X459850Y187079D01*
X454538Y183641D02*
X457038D01*
X454850Y185829D01*
X454538Y186454D01*
X454850Y187079D01*
X455475Y187391D01*
X456413D01*
X457038Y187079D01*
X451413Y183641D02*
X450163D01*
X450788D02*
Y187391D01*
X451413Y186767D01*
X447038Y183641D02*
X443913Y187391D01*
X441725Y183954D02*
X441100Y183641D01*
X440475D01*
X439850Y183954D01*
X439538Y184579D01*
Y186454D01*
X439850Y187079D01*
X440475Y187391D01*
X441100D01*
X441725Y187079D01*
X442038Y186454D01*
Y184579D01*
X441725Y183954D01*
X439850Y187079D01*
X437038Y183641D02*
X434538Y187391D01*
X437038D01*
X432038Y183641D02*
X429538Y187391D01*
X432038D01*
X467038Y177641D02*
Y181391D01*
X464850D01*
X464225Y181079D01*
X463913Y180454D01*
X464225Y179829D01*
X464850Y179517D01*
X467038D01*
X464850D02*
X463913Y177641D01*
X459538Y177954D02*
X459850Y177641D01*
X460475D01*
X461100D01*
X461725Y177954D01*
X462038Y178579D01*
Y179517D01*
X461725Y179829D01*
X461100Y180141D01*
X460475D01*
X459850Y179829D01*
X459538Y179517D01*
Y179204D01*
X459850Y178891D01*
X460475Y178579D01*
X461100D01*
X461725Y178891D01*
X462038Y179204D01*
X457038Y180141D02*
X455788Y177641D01*
X454538Y180141D01*
X450475Y177641D02*
X450163Y177954D01*
X450475Y178267D01*
X450788Y177954D01*
X450475Y177641D01*
Y179204D02*
X450163Y179517D01*
X450475Y179829D01*
X450788Y179517D01*
X450475Y179204D01*
X447038Y177641D02*
X445475Y181391D01*
X443913Y177641D01*
X446413Y179204D02*
X444538D01*
D02*
D89*
X178082Y133730D02*
X176435Y139877D01*
X171935Y135377D01*
X178082Y133730D01*
G36*
X178082Y133730D02*
X176435Y139877D01*
X171935Y135377D01*
X178082Y133730D01*
G37*
X183810Y138002D02*
X208511Y113301D01*
Y35341D01*
X186461Y135351D02*
X183325Y136191D01*
G75*
G03*
X185621Y138487I485J1811D01*
G01*
X186461Y135351D01*
G36*
X186461Y135351D02*
X183325Y136191D01*
G75*
G03*
X185621Y138487I485J1811D01*
G01*
X186461Y135351D01*
G37*
X193810Y138002D02*
X218511Y113301D01*
Y35341D01*
X196461Y135351D02*
X193325Y136191D01*
G75*
G03*
X195621Y138487I485J1811D01*
G01*
X196461Y135351D01*
G36*
X196461Y135351D02*
X193325Y136191D01*
G75*
G03*
X195621Y138487I485J1811D01*
G01*
X196461Y135351D01*
G37*
X198511Y35341D02*
Y113301D01*
X173810Y138002D01*
X198511Y57554D02*
X195915Y53057D01*
X201108D01*
X198511Y57554D01*
G36*
X198511Y57554D02*
X195915Y53057D01*
X201108D01*
X198511Y57554D01*
G37*
X203810Y138002D02*
X228511Y113301D01*
Y35341D01*
X206461Y135351D02*
X203325Y136191D01*
G75*
G03*
X205621Y138487I485J1811D01*
G01*
X206461Y135351D01*
G36*
X206461Y135351D02*
X203325Y136191D01*
G75*
G03*
X205621Y138487I485J1811D01*
G01*
X206461Y135351D01*
G37*
X208511Y57554D02*
X205915Y53057D01*
X211108D01*
X208511Y57554D01*
G36*
X208511Y57554D02*
X205915Y53057D01*
X211108D01*
X208511Y57554D01*
G37*
X213810Y138002D02*
X238511Y113301D01*
Y35341D01*
X216461Y135351D02*
X213325Y136191D01*
G75*
G03*
X215621Y138487I485J1811D01*
G01*
X216461Y135351D01*
G36*
X216461Y135351D02*
X213325Y136191D01*
G75*
G03*
X215621Y138487I485J1811D01*
G01*
X216461Y135351D01*
G37*
X218511Y57554D02*
X215915Y53057D01*
X221108D01*
X218511Y57554D01*
G36*
X218511Y57554D02*
X215915Y53057D01*
X221108D01*
X218511Y57554D01*
G37*
X226461Y135351D02*
X223325Y136191D01*
G75*
G03*
X225621Y138487I485J1811D01*
G01*
X226461Y135351D01*
G36*
X226461Y135351D02*
X223325Y136191D01*
G75*
G03*
X225621Y138487I485J1811D01*
G01*
X226461Y135351D01*
G37*
X228511Y57554D02*
X225915Y53057D01*
X231108D01*
X228511Y57554D01*
G36*
X228511Y57554D02*
X225915Y53057D01*
X231108D01*
X228511Y57554D01*
G37*
X236461Y135351D02*
X233325Y136191D01*
G75*
G03*
X235621Y138487I485J1811D01*
G01*
X236461Y135351D01*
G36*
X236461Y135351D02*
X233325Y136191D01*
G75*
G03*
X235621Y138487I485J1811D01*
G01*
X236461Y135351D01*
G37*
X238511Y57554D02*
X235915Y53057D01*
X241108D01*
X238511Y57554D01*
G36*
X238511Y57554D02*
X235915Y53057D01*
X241108D01*
X238511Y57554D01*
G37*
X243810Y138002D02*
X268511Y113301D01*
Y35341D01*
X246461Y135351D02*
X243325Y136191D01*
G75*
G03*
X245621Y138487I485J1811D01*
G01*
X246461Y135351D01*
G36*
X246461Y135351D02*
X243325Y136191D01*
G75*
G03*
X245621Y138487I485J1811D01*
G01*
X246461Y135351D01*
G37*
X248511Y35341D02*
Y113301D01*
X223810Y138002D01*
X248511Y57554D02*
X245915Y53057D01*
X251108D01*
X248511Y57554D01*
G36*
X248511Y57554D02*
X245915Y53057D01*
X251108D01*
X248511Y57554D01*
G37*
X253810Y138002D02*
X278511Y113301D01*
Y35341D01*
X256461Y135351D02*
X253325Y136191D01*
G75*
G03*
X255621Y138487I485J1811D01*
G01*
X256461Y135351D01*
G36*
X256461Y135351D02*
X253325Y136191D01*
G75*
G03*
X255621Y138487I485J1811D01*
G01*
X256461Y135351D01*
G37*
X258511Y35341D02*
Y113301D01*
X233810Y138002D01*
X258511Y57554D02*
X255915Y53057D01*
X261108D01*
X258511Y57554D01*
G36*
X258511Y57554D02*
X255915Y53057D01*
X261108D01*
X258511Y57554D01*
G37*
X263810Y138002D02*
X288511Y113301D01*
Y35341D01*
X266461Y135351D02*
X263325Y136191D01*
G75*
G03*
X265621Y138487I485J1811D01*
G01*
X266461Y135351D01*
G36*
X266461Y135351D02*
X263325Y136191D01*
G75*
G03*
X265621Y138487I485J1811D01*
G01*
X266461Y135351D01*
G37*
X268511Y57554D02*
X265915Y53057D01*
X271108D01*
X268511Y57554D01*
G36*
X268511Y57554D02*
X265915Y53057D01*
X271108D01*
X268511Y57554D01*
G37*
X273810Y138002D02*
X298511Y113301D01*
Y35341D01*
X276461Y135351D02*
X273325Y136191D01*
G75*
G03*
X275621Y138487I485J1811D01*
G01*
X276461Y135351D01*
G36*
X276461Y135351D02*
X273325Y136191D01*
G75*
G03*
X275621Y138487I485J1811D01*
G01*
X276461Y135351D01*
G37*
X278511Y57554D02*
X275915Y53057D01*
X281108D01*
X278511Y57554D01*
G36*
X278511Y57554D02*
X275915Y53057D01*
X281108D01*
X278511Y57554D01*
G37*
X283810Y138002D02*
X308511Y113301D01*
Y35341D01*
X286461Y135351D02*
X283325Y136191D01*
G75*
G03*
X285621Y138487I485J1811D01*
G01*
X286461Y135351D01*
G36*
X286461Y135351D02*
X283325Y136191D01*
G75*
G03*
X285621Y138487I485J1811D01*
G01*
X286461Y135351D01*
G37*
X288511Y57554D02*
X285915Y53057D01*
X291108D01*
X288511Y57554D01*
G36*
X288511Y57554D02*
X285915Y53057D01*
X291108D01*
X288511Y57554D01*
G37*
X293810Y138002D02*
X318511Y113301D01*
Y35341D01*
X296461Y135351D02*
X293325Y136191D01*
G75*
G03*
X295621Y138487I485J1811D01*
G01*
X296461Y135351D01*
G36*
X296461Y135351D02*
X293325Y136191D01*
G75*
G03*
X295621Y138487I485J1811D01*
G01*
X296461Y135351D01*
G37*
X298511Y57554D02*
X295915Y53057D01*
X301108D01*
X298511Y57554D01*
G36*
X298511Y57554D02*
X295915Y53057D01*
X301108D01*
X298511Y57554D01*
G37*
X303810Y138002D02*
X328511Y113301D01*
Y35341D01*
X306461Y135351D02*
X303325Y136191D01*
G75*
G03*
X305621Y138487I485J1811D01*
G01*
X306461Y135351D01*
G36*
X306461Y135351D02*
X303325Y136191D01*
G75*
G03*
X305621Y138487I485J1811D01*
G01*
X306461Y135351D01*
G37*
X308511Y57554D02*
X305915Y53057D01*
X311108D01*
X308511Y57554D01*
G36*
X308511Y57554D02*
X305915Y53057D01*
X311108D01*
X308511Y57554D01*
G37*
X313810Y138002D02*
X338511Y113301D01*
Y35341D01*
X316461Y135351D02*
X313325Y136191D01*
G75*
G03*
X315621Y138487I485J1811D01*
G01*
X316461Y135351D01*
G36*
X316461Y135351D02*
X313325Y136191D01*
G75*
G03*
X315621Y138487I485J1811D01*
G01*
X316461Y135351D01*
G37*
X318511Y57554D02*
X315915Y53057D01*
X321108D01*
X318511Y57554D01*
G36*
X318511Y57554D02*
X315915Y53057D01*
X321108D01*
X318511Y57554D01*
G37*
X323810Y138002D02*
X348511Y113301D01*
Y35341D01*
X326461Y135351D02*
X323325Y136191D01*
G75*
G03*
X325621Y138487I485J1811D01*
G01*
X326461Y135351D01*
G36*
X326461Y135351D02*
X323325Y136191D01*
G75*
G03*
X325621Y138487I485J1811D01*
G01*
X326461Y135351D01*
G37*
X328511Y57554D02*
X325915Y53057D01*
X331108D01*
X328511Y57554D01*
G36*
X328511Y57554D02*
X325915Y53057D01*
X331108D01*
X328511Y57554D01*
G37*
X333810Y138002D02*
X358511Y113301D01*
Y35341D01*
X336461Y135351D02*
X333325Y136191D01*
G75*
G03*
X335621Y138487I485J1811D01*
G01*
X336461Y135351D01*
G36*
X336461Y135351D02*
X333325Y136191D01*
G75*
G03*
X335621Y138487I485J1811D01*
G01*
X336461Y135351D01*
G37*
X338511Y57554D02*
X335915Y53057D01*
X341108D01*
X338511Y57554D01*
G36*
X338511Y57554D02*
X335915Y53057D01*
X341108D01*
X338511Y57554D01*
G37*
X343810Y138002D02*
X368511Y113301D01*
Y35341D01*
X346461Y135351D02*
X343325Y136191D01*
G75*
G03*
X345621Y138487I485J1811D01*
G01*
X346461Y135351D01*
G36*
X346461Y135351D02*
X343325Y136191D01*
G75*
G03*
X345621Y138487I485J1811D01*
G01*
X346461Y135351D01*
G37*
X348511Y57554D02*
X345915Y53057D01*
X351108D01*
X348511Y57554D01*
G36*
X348511Y57554D02*
X345915Y53057D01*
X351108D01*
X348511Y57554D01*
G37*
X353810Y138002D02*
X378511Y113301D01*
Y35341D01*
X356461Y135351D02*
X353325Y136191D01*
G75*
G03*
X355621Y138487I485J1811D01*
G01*
X356461Y135351D01*
G36*
X356461Y135351D02*
X353325Y136191D01*
G75*
G03*
X355621Y138487I485J1811D01*
G01*
X356461Y135351D01*
G37*
X358511Y57554D02*
X355915Y53057D01*
X361108D01*
X358511Y57554D01*
G36*
X358511Y57554D02*
X355915Y53057D01*
X361108D01*
X358511Y57554D01*
G37*
X363810Y138002D02*
X388511Y113301D01*
Y35341D01*
X366461Y135351D02*
X363325Y136191D01*
G75*
G03*
X365621Y138487I485J1811D01*
G01*
X366461Y135351D01*
G36*
X366461Y135351D02*
X363325Y136191D01*
G75*
G03*
X365621Y138487I485J1811D01*
G01*
X366461Y135351D01*
G37*
X368511Y57554D02*
X365915Y53057D01*
X371108D01*
X368511Y57554D01*
G36*
X368511Y57554D02*
X365915Y53057D01*
X371108D01*
X368511Y57554D01*
G37*
X378511D02*
X375915Y53057D01*
X381108D01*
X378511Y57554D01*
G36*
X378511Y57554D02*
X375915Y53057D01*
X381108D01*
X378511Y57554D01*
G37*
X388511D02*
X385915Y53057D01*
X391108D01*
X388511Y57554D01*
G36*
X388511Y57554D02*
X385915Y53057D01*
X391108D01*
X388511Y57554D01*
G37*
X393810Y138002D02*
X418511Y113301D01*
Y35341D01*
X396461Y135351D02*
X393325Y136191D01*
G75*
G03*
X395621Y138487I485J1811D01*
G01*
X396461Y135351D01*
G36*
X396461Y135351D02*
X393325Y136191D01*
G75*
G03*
X395621Y138487I485J1811D01*
G01*
X396461Y135351D01*
G37*
X403810Y138002D02*
X428511Y113301D01*
Y35341D01*
X406461Y135351D02*
X403325Y136191D01*
G75*
G03*
X405621Y138487I485J1811D01*
G01*
X406461Y135351D01*
G36*
X406461Y135351D02*
X403325Y136191D01*
G75*
G03*
X405621Y138487I485J1811D01*
G01*
X406461Y135351D01*
G37*
X413810Y138002D02*
X438511Y113301D01*
Y35341D01*
X416461Y135351D02*
X413325Y136191D01*
G75*
G03*
X415621Y138487I485J1811D01*
G01*
X416461Y135351D01*
G36*
X416461Y135351D02*
X413325Y136191D01*
G75*
G03*
X415621Y138487I485J1811D01*
G01*
X416461Y135351D01*
G37*
X418511Y57554D02*
X415915Y53057D01*
X421108D01*
X418511Y57554D01*
G36*
X418511Y57554D02*
X415915Y53057D01*
X421108D01*
X418511Y57554D01*
G37*
X428511D02*
X425915Y53057D01*
X431108D01*
X428511Y57554D01*
G36*
X428511Y57554D02*
X425915Y53057D01*
X431108D01*
X428511Y57554D01*
G37*
X438511D02*
X435915Y53057D01*
X441108D01*
X438511Y57554D01*
G36*
X438511Y57554D02*
X435915Y53057D01*
X441108D01*
X438511Y57554D01*
G37*
D02*
D92*
X121189Y58002D03*
X123689Y110502D03*
Y163002D03*
Y183002D03*
X166189Y58002D03*
X168689Y183002D03*
X173689Y113002D03*
X183689Y68002D03*
Y113002D03*
X193689Y68002D03*
Y113002D03*
X203689Y58002D03*
Y68002D03*
Y113002D03*
X213689Y68002D03*
Y113002D03*
Y183002D03*
X223689Y68002D03*
Y113002D03*
X233689Y68002D03*
X233704Y113002D03*
X243689D03*
X243704Y68002D03*
X253689Y58002D03*
Y68002D03*
Y113002D03*
X263689Y68002D03*
Y113002D03*
Y183002D03*
X273689Y113002D03*
X273781Y68002D03*
X283689D03*
Y113002D03*
X293689D03*
X293750Y68002D03*
X303689Y58002D03*
Y68002D03*
Y113002D03*
X313689Y183002D03*
X313704Y113002D03*
X313843Y68002D03*
X323689D03*
Y113002D03*
X333687Y68002D03*
X333689Y113002D03*
X343689D03*
X343796Y68002D03*
X353655D03*
X353689Y58002D03*
Y113002D03*
X363689Y68002D03*
Y113002D03*
Y183002D03*
X373689Y68002D03*
Y113002D03*
X383689Y68002D03*
Y113002D03*
X393689Y68002D03*
X393704Y113002D03*
X403689Y58002D03*
Y68002D03*
Y113002D03*
X413689Y68002D03*
Y113002D03*
Y183002D03*
X423689Y68002D03*
Y113002D03*
X433689D03*
X433779Y68002D03*
X443689Y113002D03*
X462439Y58002D03*
X463689Y110502D03*
Y163002D03*
D02*
D94*
X198511Y35341D03*
X208511D03*
X218511D03*
X228511D03*
X238511D03*
X248511D03*
X258511D03*
X268511D03*
X278511D03*
X288511D03*
X298511D03*
X308511D03*
X318511D03*
X328511D03*
X338511D03*
X348511D03*
X358511D03*
X368511D03*
X378511D03*
X388511D03*
X398511D03*
X408511D03*
X418511D03*
X428511D03*
X438511D03*
D02*
D120*
X173810Y138002D03*
D02*
D121*
Y148002D03*
X183810Y138002D03*
Y148002D03*
X193810Y138002D03*
Y148002D03*
X203810Y138002D03*
Y148002D03*
X213810Y138002D03*
Y148002D03*
X223810Y138002D03*
Y148002D03*
X233810Y138002D03*
Y148002D03*
X243810Y138002D03*
Y148002D03*
X253810Y138002D03*
Y148002D03*
X263810Y138002D03*
Y148002D03*
X273810Y138002D03*
Y148002D03*
X283810Y138002D03*
Y148002D03*
X293810Y138002D03*
Y148002D03*
X303810Y138002D03*
Y148002D03*
X313810Y138002D03*
Y148002D03*
X323810Y138002D03*
Y148002D03*
X333810Y138002D03*
Y148002D03*
X343810Y138002D03*
Y148002D03*
X353810Y138002D03*
Y148002D03*
X363810Y138002D03*
Y148002D03*
X373810Y138002D03*
Y148002D03*
X383810Y138002D03*
Y148002D03*
X393810Y138002D03*
Y148002D03*
X403810Y138002D03*
Y148002D03*
X413810Y138002D03*
Y148002D03*
D02*
D122*
X138610Y142002D03*
X449010D03*
D02*
D146*
X133689Y73002D03*
X453689D03*
X0Y0D02*
M02*
