G04 DesignSpark PCB PRO Gerber Version 10.0 Build 5299*
G04 #@! TF.Part,Single*
G04 #@! TF.FileFunction,Legend,Top*
G04 #@! TF.FilePolarity,Positive*
%FSLAX35Y35*%
%MOIN*%
%ADD80C,0.00197*%
%ADD23C,0.00500*%
%ADD117C,0.00600*%
%ADD82C,0.00787*%
%ADD118C,0.02000*%
G04 #@! TD.AperFunction*
X0Y0D02*
D02*
D23*
X142450Y9569D02*
G75*
G02*
X137170Y14849I0J5280D01*
G01*
Y57207D01*
X112485D01*
G75*
G02*
X107485Y62207I0J5000D01*
G01*
Y102207D01*
G75*
G03*
X102485Y107207I-5000J0D01*
G01*
X63735D01*
G75*
G02*
X57485Y113457I0J6250D01*
G01*
Y344707D01*
G75*
G02*
X63735Y350957I6250J0D01*
G01*
X436235D01*
G75*
G02*
X442485Y344707I0J-6250D01*
G01*
Y59707D01*
G75*
G02*
X439985Y57207I-2500J0D01*
G01*
X394807D01*
Y15066D01*
G75*
G02*
X389310Y9569I-5497J0D01*
G01*
X142450D01*
X435297Y320331D02*
X434985Y320644D01*
X434672Y321269D01*
Y322207D01*
X434985Y322831D01*
X435297Y323144D01*
X435922Y323457D01*
X437172D01*
X437797Y323144D01*
X438110Y322831D01*
X438422Y322207D01*
Y321269D01*
X438110Y320644D01*
X437797Y320331D01*
X434672Y318457D02*
X438422D01*
X434672Y315331D01*
X438422D01*
X434672Y312831D02*
Y311581D01*
Y312207D02*
X438422D01*
X437797Y312831D01*
D02*
D80*
X262484Y212807D02*
X290785D01*
X262484Y213307D02*
X290785D01*
X262484Y213807D02*
X290785D01*
X262484Y214607D02*
X290785D01*
X262484Y215107D02*
X290785D01*
X262484Y215607D02*
X266284D01*
X262484Y216107D02*
X265385D01*
X262484Y216607D02*
X265084D01*
X262484Y217107D02*
X265084D01*
X262484Y217607D02*
X265185D01*
X262484Y218107D02*
X265384D01*
X262484Y218407D02*
X265784D01*
X262484Y218907D02*
X271485D01*
X262484Y219407D02*
X271184D01*
X262484Y219907D02*
X290785D01*
X262484Y220407D02*
X290785D01*
X262484Y220907D02*
X290785D01*
X262484Y221407D02*
X265485Y221407D01*
X262484Y221907D02*
X265485Y221907D01*
X262484Y222207D02*
X265485Y222206D01*
X262484Y222707D02*
X265485Y222706D01*
X262484Y223207D02*
X265485D01*
X262484Y223707D02*
X264985D01*
X262484Y224207D02*
X265485D01*
X262484Y224707D02*
X265585Y224707D01*
X262484Y225207D02*
X290785D01*
X262484Y225707D02*
X273685Y225706D01*
X262484Y226007D02*
X272985D01*
X262484Y226507D02*
X270485D01*
X262484Y227007D02*
X265185D01*
X262484Y227507D02*
X265185D01*
X262484Y228007D02*
X265185D01*
X262484Y228507D02*
X265185D01*
X262484Y229007D02*
X264885D01*
X262484Y229507D02*
X266685D01*
X262484Y230307D02*
X265084D01*
X262484Y230807D02*
X290785D01*
X262484Y231307D02*
X290785D01*
X262484Y231807D02*
X290785D01*
X262484Y232307D02*
X290785D01*
X262484Y232807D02*
X290785D01*
X262484Y233307D02*
X290785D01*
X262484Y234107D02*
X290785D01*
X262484Y234607D02*
X290785D01*
X262484Y235107D02*
X290785D01*
X262484Y235607D02*
X290785D01*
X262484Y236107D02*
X290785D01*
X262484Y236607D02*
X290785D01*
X262484Y237107D02*
X290785D01*
X262484Y237607D02*
X290785D01*
X262484Y237907D02*
X290785D01*
X262484Y238407D02*
X290785D01*
X262484Y238907D02*
X290785D01*
X262484Y239407D02*
X290785D01*
X262484Y239907D02*
X290785D01*
X262484Y240407D02*
X290785D01*
X262484Y240907D02*
X290785D01*
X262485Y212907D02*
X290785Y212906D01*
X262485Y213007D02*
X290785D01*
X262485Y213106D02*
X290785Y213107D01*
X262485Y213207D02*
X290784D01*
X262485Y213407D02*
X290785D01*
X262485Y213507D02*
X290785D01*
X262485Y213606D02*
X290785Y213607D01*
X262485Y213707D02*
X290784D01*
X262485Y213907D02*
X290785D01*
X262485Y214007D02*
X290785Y214006D01*
X262485Y214106D02*
X290785Y214107D01*
X262485Y214207D02*
X290784D01*
X262485Y214307D02*
X290785D01*
X262485Y214407D02*
X290785D01*
X262485Y214507D02*
X290785Y214506D01*
X262485Y214707D02*
X290784D01*
X262485Y214807D02*
X290785D01*
X262485Y214907D02*
X290785D01*
X262485Y215007D02*
X290785Y215006D01*
X262485Y215207D02*
X290785Y215207D01*
X262485Y215307D02*
X290785D01*
X262485Y215407D02*
X290785D01*
X262485Y215507D02*
X290785Y215506D01*
X262485Y215707D02*
X265885Y215707D01*
X262485Y215807D02*
X265685D01*
X262485Y215906D02*
X265484Y215907D01*
X262485Y216007D02*
X265385Y216006D01*
X262485Y216207D02*
X265285D01*
X262485Y216307D02*
X265185D01*
X262485Y216406D02*
X265185Y216407D01*
X262485Y216507D02*
X265184D01*
X262485Y216707D02*
X265085D01*
X262485Y216807D02*
X265085D01*
X262485Y216906D02*
X265085D01*
X262485Y217007D02*
X265085D01*
X262485Y217207D02*
X265085D01*
X262485Y217307D02*
X265085D01*
X262485Y217406D02*
X265084Y217407D01*
X262485Y217507D02*
X265085D01*
X262485Y217707D02*
X265184D01*
X262485Y217807D02*
X265184D01*
X262485Y217906D02*
X265284Y217907D01*
X262485Y218007D02*
X265384D01*
X262485Y218207D02*
X265484D01*
X262485Y218307D02*
X265684D01*
X262485Y218507D02*
X266085D01*
X262485Y218607D02*
X271485D01*
X262485Y218707D02*
X271485D01*
X262485Y218807D02*
X271485Y218806D01*
X262485Y219007D02*
X271484D01*
X262485Y219107D02*
X271185Y219106D01*
X262485Y219207D02*
X271185D01*
X262485Y219307D02*
X271184Y219307D01*
X262485Y219507D02*
X271185Y219507D01*
X262485Y219607D02*
X290785D01*
X262485Y219706D02*
X290785D01*
X262485Y219807D02*
X290784D01*
X262485Y220007D02*
X290785Y220006D01*
X262485Y220107D02*
X290785D01*
X262485Y220207D02*
X290784Y220207D01*
X262485Y220307D02*
X290784D01*
X262485Y220507D02*
X290785Y220506D01*
X262485Y220607D02*
X290785D01*
X262485Y220706D02*
X290784Y220707D01*
X262485Y220807D02*
X290784D01*
X262485Y221007D02*
X290785D01*
X262485Y221107D02*
X267884Y221107D01*
X262485Y221206D02*
X265484Y221207D01*
X262485Y221307D02*
X265484D01*
X262485Y221507D02*
X265485Y221506D01*
X262485Y221607D02*
X265484D01*
X262485Y221706D02*
X265485D01*
X262485Y221807D02*
X265484D01*
X262485Y222007D02*
X265485Y222006D01*
X262485Y222107D02*
X265484D01*
X262485Y222307D02*
X265484D01*
X262485Y222407D02*
X265485D01*
X262485Y222507D02*
X265484D01*
X262485Y222607D02*
X265484D01*
X262485Y222807D02*
X265484D01*
X262485Y222907D02*
X265485D01*
X262485Y223007D02*
X265484Y223007D01*
X262485Y223107D02*
X265484D01*
X262485Y223307D02*
X264984D01*
X262485Y223407D02*
X264985D01*
X262485Y223506D02*
X264984Y223507D01*
X262485Y223607D02*
X264984D01*
X262485Y223807D02*
X264985Y223806D01*
X262485Y223907D02*
X265485D01*
X262485Y224007D02*
X265484Y224007D01*
X262485Y224107D02*
X265484D01*
X262485Y224307D02*
X265485Y224306D01*
X262485Y224407D02*
X265485D01*
X262485Y224506D02*
X265484Y224507D01*
X262485Y224607D02*
X265484D01*
X262485Y224807D02*
X265585D01*
X262485Y224907D02*
X265685D01*
X262485Y225006D02*
X265984Y225007D01*
X262485Y225107D02*
X279584D01*
X262485Y225307D02*
X290785D01*
X262485Y225407D02*
X290785Y225406D01*
X262485Y225506D02*
X290785Y225507D01*
X262485Y225607D02*
X290784D01*
X262485Y225807D02*
X273284D01*
X262485Y225907D02*
X273084D01*
X262485Y226107D02*
X272984D01*
X262485Y226207D02*
X272884D01*
X262485Y226307D02*
X272885D01*
X262485Y226407D02*
X272885D01*
X262485Y226607D02*
X265184D01*
X262485Y226707D02*
X265185D01*
X262485Y226807D02*
X265184D01*
X262485Y226907D02*
X265184D01*
X262485Y227107D02*
X265184D01*
X262485Y227207D02*
X265185D01*
X262485Y227306D02*
X265185Y227307D01*
X262485Y227407D02*
X265184D01*
X262485Y227607D02*
X265184D01*
X262485Y227707D02*
X265185D01*
X262485Y227807D02*
X265185D01*
X262485Y227907D02*
X265184D01*
X262485Y228107D02*
X265184D01*
X262485Y228207D02*
X265185D01*
X262485Y228306D02*
X265185Y228307D01*
X262485Y228407D02*
X265184D01*
X262485Y228607D02*
X265184D01*
X262485Y228707D02*
X264885D01*
X262485Y228806D02*
X264885Y228807D01*
X262485Y228907D02*
X264884D01*
X262485Y229107D02*
X264885D01*
X262485Y229207D02*
X264885Y229206D01*
X262485Y229306D02*
X266685Y229307D01*
X262485Y229407D02*
X266684D01*
X262485Y229607D02*
X266685D01*
X262485Y229707D02*
X265285D01*
X262485Y229806D02*
X265185Y229807D01*
X262485Y229907D02*
X265085D01*
X262485Y230007D02*
X265085Y230006D01*
X262485Y230107D02*
X265085D01*
X262485Y230207D02*
X265084Y230207D01*
X262485Y230407D02*
X265184D01*
X262485Y230507D02*
X265284D01*
X262485Y230607D02*
X290785D01*
X262485Y230707D02*
X290785Y230706D01*
X262485Y230907D02*
X290785Y230907D01*
X262485Y231007D02*
X290785D01*
X262485Y231106D02*
X290785D01*
X262485Y231207D02*
X290785Y231206D01*
X262485Y231407D02*
X290785Y231406D01*
X262485Y231507D02*
X290785D01*
X262485Y231606D02*
X290785D01*
X262485Y231707D02*
X290784D01*
X262485Y231907D02*
X290785Y231906D01*
X262485Y232007D02*
X290785D01*
X262485Y232106D02*
X290784Y232107D01*
X262485Y232207D02*
X290784D01*
X262485Y232407D02*
X290785Y232406D01*
X262485Y232507D02*
X290785D01*
X262485Y232606D02*
X290785Y232607D01*
X262485Y232707D02*
X290784D01*
X262485Y232907D02*
X290785D01*
X262485Y233007D02*
X290785D01*
X262485Y233106D02*
X290785Y233107D01*
X262485Y233207D02*
X290784D01*
X262485Y233407D02*
X290785D01*
X262485Y233507D02*
X290785Y233506D01*
X262485Y233606D02*
X290785Y233607D01*
X262485Y233707D02*
X290784D01*
X262485Y233807D02*
X290785D01*
X262485Y233907D02*
X290785D01*
X262485Y234007D02*
X290785Y234006D01*
X262485Y234207D02*
X290784D01*
X262485Y234307D02*
X290785D01*
X262485Y234407D02*
X290785D01*
X262485Y234507D02*
X290785Y234506D01*
X262485Y234707D02*
X290785Y234707D01*
X262485Y234807D02*
X290785D01*
X262485Y234907D02*
X290785D01*
X262485Y235007D02*
X290785Y235006D01*
X262485Y235207D02*
X290785Y235206D01*
X262485Y235307D02*
X290785D01*
X262485Y235406D02*
X290785D01*
X262485Y235507D02*
X290784D01*
X262485Y235707D02*
X290785Y235706D01*
X262485Y235807D02*
X290785D01*
X262485Y235906D02*
X290784Y235907D01*
X262485Y236007D02*
X290784D01*
X262485Y236207D02*
X290785Y236206D01*
X262485Y236307D02*
X290785D01*
X262485Y236406D02*
X290785Y236407D01*
X262485Y236507D02*
X290784D01*
X262485Y236707D02*
X290785D01*
X262485Y236807D02*
X290785D01*
X262485Y236906D02*
X290785Y236907D01*
X262485Y237007D02*
X290784D01*
X262485Y237207D02*
X290785D01*
X262485Y237307D02*
X290785Y237306D01*
X262485Y237406D02*
X290785Y237407D01*
X262485Y237507D02*
X290784D01*
X262485Y237707D02*
X290785D01*
X262485Y237807D02*
X290785Y237806D01*
X262485Y238007D02*
X290784D01*
X262485Y238107D02*
X290785D01*
X262485Y238207D02*
X290785D01*
X262485Y238307D02*
X290785Y238306D01*
X262485Y238507D02*
X290785Y238507D01*
X262485Y238607D02*
X290785D01*
X262485Y238707D02*
X290785D01*
X262485Y238807D02*
X290785Y238806D01*
X262485Y239007D02*
X290785D01*
X262485Y239107D02*
X290785D01*
X262485Y239206D02*
X290785D01*
X262485Y239307D02*
X290784D01*
X262485Y239507D02*
X290785Y239506D01*
X262485Y239607D02*
X290785D01*
X262485Y239707D02*
X290784Y239707D01*
X262485Y239807D02*
X290784D01*
X262485Y240007D02*
X290785Y240006D01*
X262485Y240107D02*
X290785D01*
X262485Y240206D02*
X290784Y240207D01*
X262485Y240307D02*
X290784D01*
X262485Y240507D02*
X290785D01*
X262485Y240607D02*
X290785D01*
X262485Y240706D02*
X290785Y240707D01*
X262485Y240807D02*
X290784D01*
X262485Y241007D02*
X290785D01*
X265984Y216907D02*
X268384Y216907D01*
X265984Y217007D02*
X268484D01*
X265985Y216807D02*
X268284D01*
X265985Y217107D02*
X268584D01*
X265985Y217206D02*
X268785Y217206D01*
X265985Y217307D02*
X268984D01*
X265985Y229706D02*
X266685D01*
X265985Y230507D02*
X290785D01*
X266084Y227007D02*
X266685D01*
X266084Y227507D02*
X266685D01*
X266084Y228007D02*
X266685D01*
X266084Y230307D02*
X266384D01*
X266085Y216507D02*
X267085D01*
X266085Y216607D02*
X267084Y216607D01*
X266085Y216707D02*
X267085D01*
X266085Y217406D02*
X267084Y217407D01*
X266085Y217507D02*
X267085D01*
X266085Y217606D02*
X267084Y217607D01*
X266085Y226607D02*
X266684D01*
X266085Y226807D02*
X266685D01*
X266085Y226907D02*
X266684Y226907D01*
X266085Y227107D02*
X266684D01*
X266085Y227306D02*
X266685Y227307D01*
X266085Y227407D02*
X266684D01*
X266085Y227607D02*
X266684D01*
X266085Y227806D02*
X266685Y227807D01*
X266085Y227907D02*
X266684D01*
X266085Y228107D02*
X266684D01*
X266085Y228306D02*
X266685Y228307D01*
X266085Y228407D02*
X266684D01*
X266085Y228507D02*
X266685Y228507D01*
X266085Y228607D02*
X266684D01*
X266085Y228806D02*
X266685Y228807D01*
X266085Y228907D02*
X266684D01*
X266085Y229007D02*
X266685Y229007D01*
X266085Y229107D02*
X266684D01*
X266085Y229806D02*
X266685Y229807D01*
X266085Y229907D02*
X266385Y229907D01*
X266085Y230407D02*
X266385Y230407D01*
X266085Y226707D02*
X266685D01*
X266085Y227207D02*
X266685D01*
X266085Y227707D02*
X266685D01*
X266085Y228207D02*
X266685D01*
X266085Y228707D02*
X266685D01*
X266085Y229206D02*
X266685D01*
X266085Y230206D02*
X266384Y230207D01*
X266184Y217707D02*
X266985D01*
X266185Y216407D02*
X266984Y216407D01*
X266185Y217806D02*
X266985D01*
X266185Y230007D02*
X266385Y230006D01*
X266185Y230107D02*
X266385D01*
X266285Y216307D02*
X266884D01*
X266384Y223907D02*
X271785D01*
X266384Y217907D02*
X266785Y217906D01*
X266384Y221207D02*
X267685D01*
X266384Y221306D02*
X267585Y221307D01*
X266384Y221407D02*
X267485D01*
X266384Y221607D02*
X267384Y221607D01*
X266384Y221707D02*
X267384D01*
X266384Y221806D02*
X267385Y221807D01*
X266384Y222107D02*
X267384D01*
X266384Y222207D02*
X267384D01*
X266384Y222507D02*
X267385D01*
X266384Y222607D02*
X267384D01*
X266384Y222707D02*
X267384D01*
X266384Y222906D02*
X267385D01*
X266384Y223007D02*
X267385D01*
X266384Y223107D02*
X267384D01*
X266384Y223207D02*
X267384D01*
X266384Y224007D02*
X277485Y224006D01*
X266384Y224207D02*
X277484D01*
X266384Y224407D02*
X277485D01*
X266385Y221507D02*
X267485D01*
X266385Y221906D02*
X267385D01*
X266385Y222007D02*
X267385D01*
X266385Y222307D02*
X267385Y222307D01*
X266385Y222406D02*
X267385D01*
X266385Y222807D02*
X267385Y222807D01*
X266385Y224106D02*
X277485Y224107D01*
X266385Y224307D02*
X277485D01*
X266485Y216206D02*
X266785Y216207D01*
X266884Y215607D02*
X268985D01*
X266984Y223607D02*
X267085D01*
X266984Y224507D02*
X277485Y224506D01*
X266984Y224607D02*
X277485D01*
X266984Y225007D02*
X279484Y225007D01*
X266985Y223307D02*
X267085D01*
X266985Y223407D02*
X267084D01*
X266985Y223707D02*
X267084D01*
X266985Y223806D02*
X267085Y223807D01*
X266985Y224707D02*
X277485Y224707D01*
X266985Y224806D02*
X279385Y224807D01*
X266985Y224907D02*
X279385D01*
X266985Y223506D02*
X267084Y223507D01*
X267085Y218507D02*
X269085D01*
X267285Y215706D02*
X268585Y215707D01*
X267384Y218407D02*
X268785Y218406D01*
X267385Y215806D02*
X268485Y215807D01*
X267485Y218306D02*
X268585Y218307D01*
X267584Y215907D02*
X268385Y215906D01*
X267584Y226707D02*
X268185D01*
X267584Y227007D02*
X268185D01*
X267584Y227207D02*
X268185D01*
X267584Y227307D02*
X268185D01*
X267584Y227507D02*
X268185D01*
X267584Y227707D02*
X268185D01*
X267584Y227807D02*
X268185D01*
X267584Y228007D02*
X268185D01*
X267584Y228207D02*
X268185D01*
X267584Y228307D02*
X268185D01*
X267584Y228507D02*
X268185D01*
X267584Y228807D02*
X268185D01*
X267584Y229007D02*
X268185D01*
X267584Y229307D02*
X268185D01*
X267584Y229507D02*
X268185D01*
X267584Y229807D02*
X268185D01*
X267584Y230007D02*
X267885Y230006D01*
X267584Y230307D02*
X267884D01*
X267585Y226607D02*
X268184D01*
X267585Y226807D02*
X268185D01*
X267585Y226907D02*
X268185Y226906D01*
X267585Y227107D02*
X268184D01*
X267585Y227407D02*
X268185Y227406D01*
X267585Y227607D02*
X268184D01*
X267585Y227907D02*
X268184D01*
X267585Y228107D02*
X268185D01*
X267585Y228407D02*
X268184D01*
X267585Y228607D02*
X268185D01*
X267585Y228707D02*
X268185D01*
X267585Y228907D02*
X268184D01*
X267585Y229107D02*
X268185D01*
X267585Y229207D02*
X268185Y229206D01*
X267585Y229407D02*
X268184D01*
X267585Y229607D02*
X268185D01*
X267585Y229707D02*
X268185Y229706D01*
X267585Y229907D02*
X267885D01*
X267585Y230107D02*
X267885D01*
X267585Y230207D02*
X267884Y230207D01*
X267585Y230407D02*
X267885D01*
X267684Y216007D02*
X268284D01*
X267685Y216107D02*
X268284Y216106D01*
X267685Y218207D02*
X268485D01*
X267784Y216307D02*
X268185D01*
X267784Y218007D02*
X268284D01*
X267785Y216206D02*
X268285D01*
X267785Y218107D02*
X268385Y218106D01*
X267884Y216407D02*
X268185D01*
X267884Y216607D02*
X268285Y216607D01*
X267884Y217407D02*
X269284Y217407D01*
X267884Y217807D02*
X268284Y217807D01*
X267884Y217907D02*
X268285Y217906D01*
X267885Y216506D02*
X268184Y216507D01*
X267885Y216707D02*
X268285Y216706D01*
X267885Y217507D02*
X268284D01*
X267885Y217606D02*
X268285Y217607D01*
X267885Y217707D02*
X268284D01*
Y222007D02*
X269185D01*
X268284Y221807D02*
X269085D01*
X268284Y222107D02*
X269184D01*
X268284Y222307D02*
X269184D01*
X268284Y222507D02*
X269185D01*
X268284Y222607D02*
X269184D01*
X268284Y222706D02*
X269185Y222707D01*
X268284Y222807D02*
X269184D01*
X268284Y223007D02*
X269185D01*
X268284Y223107D02*
X269185Y223107D01*
X268284Y223206D02*
X269185Y223207D01*
X268284Y223307D02*
X269185Y223307D01*
X268284Y223507D02*
X269185D01*
X268284Y223607D02*
X269185Y223606D01*
X268284Y223706D02*
X269185Y223707D01*
X268285Y221907D02*
X269184Y221907D01*
X268285Y222206D02*
X269185Y222207D01*
X268285Y222407D02*
X269184D01*
X268285Y222907D02*
X269184D01*
X268285Y223407D02*
X269184D01*
X268285Y223806D02*
X269185Y223807D01*
X268384Y221707D02*
X268884D01*
X268485Y221606D02*
X268685Y221607D01*
X269084Y226707D02*
X269985D01*
X269084Y227007D02*
X269785D01*
X269084Y227507D02*
X269584D01*
X269084Y228007D02*
X269584D01*
X269084Y228507D02*
X269684D01*
X269084Y228807D02*
X269784Y228807D01*
X269084Y229007D02*
X269985D01*
X269084Y229307D02*
X270485D01*
X269084Y229507D02*
X279385D01*
X269084Y229807D02*
X279385D01*
X269084Y230007D02*
X279085D01*
X269084Y230307D02*
X279085D01*
X269085Y217507D02*
X269784D01*
X269085Y221107D02*
X274684D01*
X269085Y226607D02*
X270185Y226607D01*
X269085Y226807D02*
X269885D01*
X269085Y226907D02*
X269784D01*
X269085Y227107D02*
X269685Y227107D01*
X269085Y227207D02*
X269684D01*
X269085Y227306D02*
X269585D01*
X269085Y227407D02*
X269585D01*
X269085Y227607D02*
X269585D01*
X269085Y227707D02*
X269585D01*
X269085Y227806D02*
X269585D01*
X269085Y227907D02*
X269585D01*
X269085Y228107D02*
X269585D01*
X269085Y228207D02*
X269585D01*
X269085Y228306D02*
X269585D01*
X269085Y228407D02*
X269585D01*
X269085Y228607D02*
X269685D01*
X269085Y228707D02*
X269684D01*
X269085Y228907D02*
X269885D01*
X269085Y229107D02*
X270085D01*
X269085Y229207D02*
X270184D01*
X269085Y229407D02*
X279384D01*
X269085Y229607D02*
X279385D01*
X269085Y229707D02*
X279385Y229706D01*
X269085Y229907D02*
X279084D01*
X269085Y230107D02*
X279085D01*
X269085Y230207D02*
X279085Y230206D01*
X269085Y230407D02*
X279084D01*
X269184Y216307D02*
X269785D01*
X269185Y216407D02*
X269885Y216406D01*
X269185Y216506D02*
X269984Y216507D01*
X269185Y216607D02*
X270084D01*
X269185Y217606D02*
X270084Y217607D01*
X269185Y217707D02*
X269984D01*
X269284Y217807D02*
X269985Y217806D01*
X269284Y221207D02*
X269285Y216206D02*
X269484Y216207D01*
X269285Y216706D02*
X270085Y216707D01*
X269384Y217907D02*
X269785Y217906D01*
X269485Y215607D02*
X290785D01*
X269485Y216807D02*
X270085D01*
X269784Y216907D02*
X270085Y216906D01*
X269885Y215707D02*
X290785Y215706D01*
X270084Y221407D02*
X270684D01*
X270084Y221907D02*
X270685Y221906D01*
X270084Y222207D02*
X270684D01*
X270084Y222707D02*
X270684D01*
X270084Y223207D02*
X270684D01*
X270084Y223707D02*
X270384D01*
X270085Y215807D02*
X270184D01*
X270085Y218507D02*
X271484D01*
X270085Y221206D02*
X270684Y221207D01*
X270085Y221307D02*
X270684Y221306D01*
X270085Y221507D02*
X270685D01*
X270085Y221607D02*
X270684Y221607D01*
X270085Y221706D02*
X270684Y221707D01*
X270085Y221807D02*
X270685D01*
X270085Y222007D02*
X270685D01*
X270085Y222107D02*
X270684Y222107D01*
X270085Y222307D02*
X270685D01*
X270085Y222407D02*
X270685Y222406D01*
X270085Y222507D02*
X270685D01*
X270085Y222607D02*
X270684Y222607D01*
X270085Y222807D02*
X270685Y222807D01*
X270085Y222907D02*
X270685Y222906D01*
X270085Y223007D02*
X270684D01*
X270085Y223107D02*
X270684Y223107D01*
X270085Y223307D02*
X270385D01*
X270085Y223407D02*
X270385D01*
X270085Y223506D02*
X270385D01*
X270085Y223607D02*
X270385D01*
X270085Y223807D02*
X270385D01*
Y218406D02*
X271485Y218407D01*
X270484Y227607D02*
X273185D01*
X270485Y227507D02*
X271684D01*
X270485Y227707D02*
X273285D01*
X270584Y228507D02*
X271485D01*
X270585Y218307D02*
X271485Y218306D01*
X270585Y227306D02*
X271685D01*
X270585Y227407D02*
X271685Y227406D01*
X270585Y228407D02*
X271484D01*
X270684Y227206D02*
X271585Y227207D01*
X270685Y218207D02*
X271485D01*
X270685Y228607D02*
X271385D01*
X270784Y227107D02*
X271484D01*
X270785Y218107D02*
X271485D01*
X270785Y228707D02*
X271285D01*
X270884Y217907D02*
X271485D01*
X270885Y217807D02*
X271485Y217806D01*
X270885Y218007D02*
X271484D01*
X270984Y216007D02*
X271484D01*
X270984Y216207D02*
X271484D01*
X270984Y216507D02*
X271484D01*
X270984Y216707D02*
X271484D01*
X270984Y217007D02*
X271484D01*
X270984Y217207D02*
X271485D01*
X270984Y217507D02*
X271484D01*
X270985Y215907D02*
X271485D01*
X270985Y216107D02*
X271485D01*
X270985Y216307D02*
X271485D01*
X270985Y216407D02*
X271485D01*
X270985Y216607D02*
X271485D01*
X270985Y216807D02*
X271485D01*
X270985Y216907D02*
X271485D01*
X270985Y217107D02*
X271485D01*
X270985Y217307D02*
X271485D01*
X270985Y217407D02*
X271485D01*
X270985Y217607D02*
X271485D01*
X270985Y217707D02*
X271485D01*
X270985Y228807D02*
X271084D01*
X271085Y215807D02*
X271485D01*
X271484Y223807D02*
X271585Y223806D01*
X271584Y221507D02*
X272485D01*
X271584Y222007D02*
X272485D01*
X271584Y222507D02*
X272485D01*
X271584Y221207D02*
X272485Y221207D01*
X271584Y221307D02*
X272484D01*
X271584Y221607D02*
X272485Y221606D01*
X271584Y221807D02*
X272484D01*
X271584Y222107D02*
X272485D01*
X271584Y222206D02*
X272485Y222207D01*
X271584Y222307D02*
X272484D01*
X271584Y222607D02*
X272485Y222606D01*
X271584Y222706D02*
X272485Y222707D01*
X271584Y222807D02*
X272484D01*
X271584Y223007D02*
X272485D01*
X271585Y221407D02*
X272485Y221407D01*
X271585Y221706D02*
X272485Y221707D01*
X271585Y221907D02*
X272485Y221907D01*
X271585Y222407D02*
X272485D01*
X271585Y222907D02*
X272485D01*
X271585Y229306D02*
X273585D01*
X271684Y223107D02*
X272485Y223106D01*
X271684Y226507D02*
X272884D01*
X271785Y223207D02*
X272485D01*
X271885Y223307D02*
X272385D01*
X271885Y226607D02*
X272885D01*
X271885Y229207D02*
X273385D01*
X271985Y229107D02*
X273185D01*
X272085Y226707D02*
X272984D01*
X272085Y229007D02*
X273185D01*
X272185Y226807D02*
X272985D01*
X272185Y228907D02*
X273084D01*
X272285Y226906D02*
X273185Y226907D01*
X272285Y228806D02*
X272985Y228807D01*
X272384Y215807D02*
X272984D01*
X272384Y216107D02*
X272985D01*
X272384Y216407D02*
X272985D01*
X272384Y216607D02*
X272985D01*
X272384Y216907D02*
X272985D01*
X272384Y217107D02*
X272985D01*
X272384Y217407D02*
X272985D01*
X272384Y217607D02*
X272985Y217606D01*
X272384Y217907D02*
X272985D01*
X272384Y218107D02*
X272984D01*
X272384Y218407D02*
X272985D01*
X272384Y218607D02*
X272984D01*
X272384Y218907D02*
X272985D01*
X272384Y219107D02*
X272685Y219106D01*
X272384Y219407D02*
X272684D01*
X272384Y227007D02*
X273184D01*
X272384Y227207D02*
X273085D01*
X272384Y228507D02*
X272985D01*
X272385Y215906D02*
X272985Y215907D01*
X272385Y216007D02*
X272985Y216006D01*
X272385Y216207D02*
X272985Y216207D01*
X272385Y216307D02*
X272984D01*
X272385Y216507D02*
X272985Y216506D01*
X272385Y216707D02*
X272985D01*
X272385Y216807D02*
X272984D01*
X272385Y217007D02*
X272984D01*
X272385Y217207D02*
X272985D01*
X272385Y217307D02*
X272983D01*
X272385Y217507D02*
X272984D01*
X272385Y217707D02*
X272985D01*
X272385Y217807D02*
X272984D01*
X272385Y218007D02*
X272984D01*
X272385Y218207D02*
X272985D01*
X272385Y218307D02*
X272984D01*
X272385Y218507D02*
X272984D01*
X272385Y218707D02*
X272985D01*
X272385Y218807D02*
X272984D01*
X272385Y219007D02*
X272984D01*
X272385Y219207D02*
X272685D01*
X272385Y219307D02*
X272684Y219307D01*
X272385Y219507D02*
X272685D01*
X272385Y227107D02*
X273084D01*
X272385Y228607D02*
X272985D01*
X272385Y228707D02*
X272984D01*
X272484Y228407D02*
X272985Y228406D01*
X272485Y227307D02*
X273084Y227307D01*
X272485Y227406D02*
X273084Y227407D01*
X272485Y227507D02*
X273085D01*
X272485Y227807D02*
X273285D01*
X272485Y227906D02*
X273185Y227907D01*
X272485Y228007D02*
X273085D01*
X272485Y228107D02*
X272985D01*
X272485Y228207D02*
X272984D01*
X272485Y228307D02*
X272985D01*
X272885Y223907D02*
X274885D01*
X273085Y223806D02*
X274585Y223806D01*
X273184Y223707D02*
X274384D01*
X273284Y223607D02*
X274284D01*
X273285Y223507D02*
X274185Y223506D01*
X273384Y221407D02*
X274285D01*
X273384Y221707D02*
X274085Y221706D01*
X273384Y221907D02*
X273985Y221906D01*
X273384Y222207D02*
X273884D01*
X273384Y222407D02*
X273885D01*
X273384Y222707D02*
X273884D01*
X273384Y223207D02*
X273984D01*
X273385Y221206D02*
X274484Y221207D01*
X273385Y221307D02*
X274385D01*
X273385Y221507D02*
X274185D01*
X273385Y221607D02*
X274085Y221606D01*
X273385Y221807D02*
X273984Y221806D01*
X273385Y222007D02*
X273985D01*
X273385Y222107D02*
X273885D01*
X273385Y222307D02*
X273885D01*
X273385Y222507D02*
X273885D01*
X273385Y222607D02*
X273885D01*
X273385Y222807D02*
X273885D01*
X273385Y222907D02*
X273885D01*
X273385Y223007D02*
X273984D01*
X273385Y223107D02*
X273984Y223107D01*
X273385Y223307D02*
X274084D01*
X273385Y223407D02*
X274085D01*
X273784Y226407D02*
X274885D01*
X273784Y226607D02*
X274784D01*
X273785Y226507D02*
X274885Y226506D01*
X273884Y216107D02*
X290785D01*
X273884Y216607D02*
X290785D01*
X273884Y217107D02*
X290785D01*
X273884Y217607D02*
X290785D01*
X273884Y217907D02*
X290785D01*
X273884Y218107D02*
X290785D01*
X273884Y218407D02*
X290785D01*
X273884Y218907D02*
X290785D01*
X273884Y219407D02*
X290785D01*
X273884Y228507D02*
X274484D01*
X273885Y215807D02*
X290785D01*
X273885Y215906D02*
X290785D01*
X273885Y216007D02*
X290784D01*
X273885Y216207D02*
X290785Y216206D01*
X273885Y216307D02*
X290785D01*
X273885Y216406D02*
X290784Y216407D01*
X273885Y216507D02*
X290784D01*
X273885Y216707D02*
X290785Y216706D01*
X273885Y216807D02*
X290785D01*
X273885Y216906D02*
X290785Y216907D01*
X273885Y217007D02*
X290784D01*
X273885Y217207D02*
X290785D01*
X273885Y217307D02*
X290785D01*
X273885Y217406D02*
X290785Y217407D01*
X273885Y217507D02*
X290784D01*
X273885Y217707D02*
X290785D01*
X273885Y217807D02*
X290785Y217806D01*
X273885Y218007D02*
X290784D01*
X273885Y218207D02*
X290785D01*
X273885Y218307D02*
X290785Y218306D01*
X273885Y218507D02*
X290784D01*
X273885Y218607D02*
X290785D01*
X273885Y218707D02*
X290785D01*
X273885Y218807D02*
X290785Y218806D01*
X273885Y219007D02*
X290785Y219007D01*
X273885Y219107D02*
X290785D01*
X273885Y219207D02*
X290785D01*
X273885Y219307D02*
X290785Y219306D01*
X273885Y219507D02*
X290785D01*
X273885Y226707D02*
X274385D01*
X273885Y228306D02*
X274484Y228307D01*
X273885Y228407D02*
X274485Y228406D01*
X273885Y228607D02*
X274485D01*
X273984Y228207D02*
X274385D01*
X273984Y226307D02*
X274685D01*
X273984Y227507D02*
X276085D01*
X273984Y228707D02*
X274385D01*
X274185Y228806D02*
X274485Y227406D02*
X276085D01*
X274685Y227607D02*
X276185D01*
X274784Y222307D02*
X277485D01*
X274785Y222407D02*
X277485Y222406D01*
X274785Y222507D02*
X277485D01*
X274785Y222606D02*
X277485Y222607D01*
X274785Y222707D02*
X277484D01*
X274785Y229307D02*
X275184D01*
X274883Y223007D02*
X275884D01*
X274884Y222007D02*
X275884D01*
X274885Y222107D02*
X275884D01*
X274885Y222206D02*
X275984Y222207D01*
X274885Y222807D02*
X275884D01*
X274885Y222907D02*
X275885D01*
X274885Y225707D02*
X290785Y225707D01*
X274984Y223107D02*
X275884Y223107D01*
X274984Y223207D02*
X275785D01*
X274984Y227707D02*
X276184D01*
X274984Y229207D02*
X275085Y229206D01*
X274985Y221807D02*
X275784D01*
X274985Y221906D02*
X275885Y221907D01*
X275084Y227807D02*
X276285Y227807D01*
X275085Y221707D02*
X275684D01*
X275184Y227307D02*
X276085Y227306D01*
X275185Y223307D02*
X275685D01*
X275185Y227907D02*
X276384D01*
X275284Y228107D02*
X276685D01*
X275285Y221606D02*
X275484Y221607D01*
X275285Y225807D02*
X290785D01*
X275285Y228007D02*
X276585D01*
X275384Y228607D02*
X276185D01*
X275384Y228207D02*
X276985D01*
X275384Y228307D02*
X276184D01*
X275384Y228407D02*
X276185D01*
X275384Y228507D02*
X276184D01*
X275385Y227207D02*
X276085D01*
X275484Y225907D02*
X290785Y225906D01*
X275585Y226007D02*
X290785D01*
X275585Y227107D02*
X276085D01*
X275585Y228707D02*
X276185D01*
X275684Y226207D02*
X290785D01*
X275684Y227007D02*
X276085D01*
X275685Y226107D02*
X290784D01*
X275685Y226807D02*
X276185D01*
X275685Y226907D02*
X276185D01*
X275784Y226607D02*
X276384D01*
X275784Y228907D02*
X276284D01*
X275785Y226307D02*
X290785D01*
X275785Y226406D02*
X290785D01*
X275785Y226507D02*
X276585D01*
X275785Y226707D02*
X276285D01*
X275785Y228807D02*
X276184D01*
X275785Y229007D02*
X276285D01*
X275785Y229107D02*
X276485D01*
X275785Y229206D02*
X276584Y229207D01*
X275785Y229307D02*
X276785D01*
X275984Y221107D02*
X281685Y221107D01*
X275985Y223906D02*
X277485Y223907D01*
X276184Y221207D02*
X277784D01*
X276185Y223807D02*
X276985D01*
X276284Y221307D02*
X277584D01*
X276384Y223706D02*
X276984Y223707D01*
X276385Y221407D02*
X277585Y221407D01*
X276485Y221507D02*
X277485D01*
X276485Y223606D02*
X276985Y223607D01*
X276584Y223507D02*
X276985Y223506D01*
X276584Y221607D02*
X277485Y221606D01*
X276585Y221707D02*
X277485Y221706D01*
X276684Y221907D02*
X277485Y221906D01*
X276684Y222207D02*
X277484D01*
X276684Y222907D02*
X277485D01*
X276684Y223207D02*
X277484D01*
X276684Y223407D02*
X276985D01*
X276685Y221807D02*
X277485D01*
X276685Y222007D02*
X277485D01*
X276685Y222107D02*
X277485Y222106D01*
X276685Y222807D02*
X277485D01*
X276685Y223007D02*
X277485D01*
X276685Y223107D02*
X277485Y223107D01*
X276685Y223307D02*
X276985D01*
Y227306D02*
X277784Y227307D01*
X276985Y228306D02*
X277384Y228307D01*
X276985Y228407D02*
X277985D01*
X277084Y227107D02*
X277584D01*
X277084Y227407D02*
X277985D01*
X277084Y228607D02*
X277885Y228606D01*
X277085Y227207D02*
X277685D01*
X277085Y227507D02*
X277984D01*
X277085Y228507D02*
X277885D01*
X277185Y228707D02*
X277784D01*
X277285Y227607D02*
X277985Y227607D01*
X277384Y228807D02*
X277585Y228807D01*
X277485Y227707D02*
X277985D01*
X277684Y226507D02*
X290785D01*
X277884Y226607D02*
X278084D01*
X277884Y227807D02*
X277985Y227806D01*
X278085Y229307D02*
X279385D01*
X278384Y221807D02*
X279485D01*
X278384Y222307D02*
X279485D01*
X278384Y222807D02*
X279485D01*
X278384Y223107D02*
X279485D01*
X278384Y224007D02*
X290784D01*
X278384Y224107D02*
X290784D01*
X278384Y224507D02*
X279385Y224507D01*
X278384Y224607D02*
X279384D01*
X278385Y221907D02*
X279484D01*
X278385Y222106D02*
X279485Y222107D01*
X278385Y222207D02*
X279484D01*
X278385Y222407D02*
X279484D01*
X278385Y222606D02*
X279485Y222607D01*
X278385Y222707D02*
X279484D01*
X278385Y222907D02*
X279484D01*
X278385Y223207D02*
X279484D01*
X278385Y223907D02*
X281785D01*
X278385Y224207D02*
X279684D01*
X278385Y224306D02*
X279485Y224307D01*
X278385Y224407D02*
X279385D01*
X278385Y224707D02*
X279385D01*
X278385Y229206D02*
X279385D01*
X278385Y222007D02*
X279485D01*
X278385Y222507D02*
X279485D01*
X278385Y223007D02*
X279485D01*
X278485Y229107D02*
X279385D01*
X278585Y221707D02*
X279484D01*
X278585Y229007D02*
X279385D01*
X278685Y228907D02*
X279384D01*
X278784Y228507D02*
X279385D01*
X278784Y228707D02*
X279385D01*
X278784Y228807D02*
X279385Y228807D01*
X278785Y228607D02*
X279385D01*
X278884Y226607D02*
X279385Y226607D01*
X278884Y227407D02*
X279385Y227406D01*
X278884Y227807D02*
X279385Y227806D01*
X278884Y227907D02*
X279384D01*
X278884Y228307D02*
X279385Y228307D01*
X278884Y228407D02*
X279384D01*
X278885Y226707D02*
X279385D01*
X278885Y226906D02*
X279385D01*
X278885Y227007D02*
X279385D01*
X278885Y227107D02*
X279385D01*
X278885Y227207D02*
X279385D01*
X278885Y227507D02*
X279385D01*
X278885Y227606D02*
X279385D01*
X278885Y227707D02*
X279385D01*
X278885Y228007D02*
X279385D01*
X278885Y228106D02*
X279385D01*
X278885Y228207D02*
X279385D01*
X278885Y226807D02*
X279385D01*
X278885Y227306D02*
X279385D01*
X279084Y221307D02*
X279485D01*
X279084Y223307D02*
X279184D01*
X279084Y223607D02*
X279184D01*
X279084Y223807D02*
X279185Y223806D01*
X279085Y221207D02*
X279484D01*
X279085Y221407D02*
X279484D01*
X279085Y221507D02*
X279485D01*
X279085Y221606D02*
X279485Y221607D01*
X279085Y223407D02*
X279185D01*
X279085Y223507D02*
X279184D01*
X279085Y223707D02*
X279184D01*
X280085Y224207D02*
X290785D01*
X280184Y225107D02*
X290784D01*
X280284Y225007D02*
X290785Y225007D01*
X280284Y226907D02*
X290785Y226906D01*
X280284Y227007D02*
X290785D01*
X280284Y227507D02*
X290785D01*
X280284Y228007D02*
X290785D01*
X280284Y228507D02*
X290785D01*
X280284Y228807D02*
X290785Y228807D01*
X280284Y229007D02*
X290785D01*
X280284Y229207D02*
X290785Y229206D01*
X280284Y229307D02*
X290785D01*
X280284Y229707D02*
X290785Y229706D01*
X280284Y229807D02*
X290785D01*
X280284Y230207D02*
X290785Y230206D01*
X280284Y230307D02*
X290785D01*
X280285Y224307D02*
X290785Y224306D01*
X280285Y226607D02*
X290784D01*
X280285Y226706D02*
X290785Y226707D01*
X280285Y226807D02*
X290785D01*
X280285Y227107D02*
X290785D01*
X280285Y227206D02*
X290785Y227207D01*
X280285Y227306D02*
X290785D01*
X280285Y227406D02*
X290784Y227407D01*
X280285Y227607D02*
X290785Y227606D01*
X280285Y227806D02*
X290784Y227807D01*
X280285Y227907D02*
X290784D01*
X280285Y228107D02*
X290785Y228106D01*
X280285Y228306D02*
X290784Y228307D01*
X280285Y228407D02*
X290784D01*
X280285Y228607D02*
X290785Y228606D01*
X280285Y228907D02*
X290784D01*
X280285Y229107D02*
X290785D01*
X280285Y229407D02*
X290784D01*
X280285Y229506D02*
X290785Y229507D01*
X280285Y229607D02*
X290785D01*
X280285Y229907D02*
X290784D01*
X280285Y230006D02*
X290785Y230007D01*
X280285Y230107D02*
X290785D01*
X280285Y230407D02*
X290784D01*
X280285Y227707D02*
X290785D01*
X280285Y228207D02*
X290785D01*
X280285Y228707D02*
X290785D01*
X280384Y221307D02*
X281285D01*
X280384Y221607D02*
X281084D01*
X280384Y221807D02*
X280985D01*
X280384Y222107D02*
X280884D01*
X280384Y222307D02*
X280884D01*
X280384Y222607D02*
X280884D01*
X280384Y222807D02*
X280884D01*
X280384Y223107D02*
X280985D01*
X280384Y223307D02*
X280985D01*
X280384Y223607D02*
X281285D01*
X280384Y224407D02*
X290785D01*
X280384Y224607D02*
X290784D01*
X280384Y224907D02*
X290785D01*
X280385Y221407D02*
X281185Y221407D01*
X280385Y221707D02*
X280984D01*
X280385Y221907D02*
X280885D01*
X280385Y222207D02*
X280885D01*
X280385Y222407D02*
X280885D01*
X280385Y222707D02*
X280885D01*
X280385Y222907D02*
X280885D01*
X280385Y223207D02*
X280984D01*
X280385Y223407D02*
X281084D01*
X280385Y223707D02*
X281385D01*
X280385Y224707D02*
X290785D01*
X280385Y221206D02*
X281485D01*
X280385Y221507D02*
X281085D01*
X280385Y222007D02*
X280884D01*
X280385Y222507D02*
X280884D01*
X280385Y223007D02*
X280884D01*
X280385Y223507D02*
X281184Y223507D01*
X280385Y223807D02*
X281485D01*
X280385Y224506D02*
X290784Y224507D01*
X280385Y224807D02*
X290785Y224806D01*
X281784Y222707D02*
X282885D01*
X281785Y222206D02*
X282885Y222207D01*
X281785Y222307D02*
X282884D01*
X281785Y222507D02*
X282885D01*
X281785Y222807D02*
X282884D01*
X281785Y222107D02*
X282885Y222106D01*
X281785Y222407D02*
X282885D01*
X281785Y222606D02*
X282885D01*
X281785Y222907D02*
X282885D01*
X281884Y222007D02*
X282785D01*
X281884Y223107D02*
X282785D01*
X281885Y221907D02*
X282784D01*
X281885Y223007D02*
X282784D01*
X281984Y223207D02*
X282685D01*
X281985Y221807D02*
X282684D01*
X282084Y221707D02*
X282584D01*
X282085Y223307D02*
X282585D01*
X282185Y221606D02*
X282385D01*
X282885Y223907D02*
X285485D01*
X282985Y221107D02*
X290785D01*
X283185Y221207D02*
X284284Y221207D01*
X283185Y223806D02*
X283985Y223806D01*
X283284Y223707D02*
X283984Y223706D01*
X283384Y221307D02*
X284285D01*
X283384Y223607D02*
X283984D01*
X283484Y223507D02*
X283984D01*
X283485Y221407D02*
X284284Y221407D01*
X283584Y221607D02*
X284285Y221607D01*
X283585Y221507D02*
X284285D01*
X283585Y223406D02*
X283985Y223407D01*
X283684Y221807D02*
X284285D01*
X283685Y221707D02*
X284284D01*
X283685Y223207D02*
X284284D01*
X283685Y223307D02*
X283984D01*
X283784Y221907D02*
X284284D01*
X283784Y222207D02*
X284284D01*
X283784Y222407D02*
X284284D01*
X283784Y222707D02*
X284284D01*
X283784Y222907D02*
X284284D01*
X283785Y222007D02*
X284285D01*
X283785Y222107D02*
X284285D01*
X283785Y222307D02*
X284285D01*
X283785Y222507D02*
X284285D01*
X283785Y222607D02*
X284285D01*
X283785Y222807D02*
X284285D01*
X283785Y223007D02*
X284285D01*
X283785Y223107D02*
X284285D01*
X285084Y223707D02*
X285085Y223807D02*
X285184D01*
Y221307D02*
X286184D01*
X285184Y221507D02*
X286184D01*
X285184Y221607D02*
X286185Y221606D01*
X285184Y221807D02*
X286184D01*
X285184Y222007D02*
X286185D01*
X285184Y222107D02*
X286185Y222106D01*
X285184Y222307D02*
X286184D01*
X285184Y222507D02*
X286185D01*
X285184Y222607D02*
X286184D01*
X285184Y222807D02*
X286184D01*
X285185Y221207D02*
X286185D01*
X285185Y221407D02*
X286185D01*
X285185Y221707D02*
X286185D01*
X285185Y221907D02*
X286185D01*
X285185Y222207D02*
X286185D01*
X285185Y222407D02*
X286185D01*
X285185Y222707D02*
X286185D01*
X285185Y222907D02*
X286185D01*
X285185Y223007D02*
X286085D01*
X285285Y223107D02*
X286085Y223107D01*
X285384Y223207D02*
X286084D01*
X285484Y223307D02*
X285984D01*
X286485Y223907D02*
X290785D01*
X286684Y223807D02*
X290785Y223806D01*
X286784Y223707D02*
X290785D01*
X286885Y223606D02*
X290784Y223607D01*
X286984Y221307D02*
X290784D01*
X286984Y221807D02*
X290784D01*
X286984Y222307D02*
X290784D01*
X286985Y221207D02*
X290785D01*
X286985Y221407D02*
X290785D01*
X286985Y221606D02*
X290785D01*
X286985Y221707D02*
X290785D01*
X286985Y221907D02*
X290785D01*
X286985Y222106D02*
X290785D01*
X286985Y222207D02*
X290785D01*
X286985Y222407D02*
X290785D01*
X286985Y222606D02*
X290785D01*
X286985Y222707D02*
X290785D01*
X286985Y222807D02*
X290784Y222807D01*
X286985Y222907D02*
X290785D01*
X286985Y223106D02*
X290785D01*
X286985Y223207D02*
X290785D01*
X286985Y223307D02*
X290785D01*
X286985Y223407D02*
X290785D01*
X286985Y221507D02*
X290785D01*
X286985Y222007D02*
X290785D01*
X286985Y222507D02*
X290785D01*
X286985Y223007D02*
X290785D01*
X286985Y223506D02*
X290785D01*
D02*
D82*
X116672Y49191D02*
X137172D01*
X137170Y56689D02*
Y49209D01*
X142989Y54699D02*
X143619Y54384D01*
X144563D01*
X145193Y54699D01*
X145508Y55329D01*
Y55644D01*
X145193Y56274D01*
X144563Y56589D01*
X142989D01*
Y58163D01*
X145508D01*
X148343Y54699D02*
X148973Y54384D01*
X149603D01*
X150233Y54699D01*
X150548Y55329D01*
Y57219D01*
X150233Y57848D01*
X149603Y58163D01*
X148973D01*
X148343Y57848D01*
X148028Y57219D01*
Y55329D01*
X148343Y54699D01*
X150233Y57848D01*
X297485Y229052D02*
Y236434D01*
X300561Y232743D01*
X303636Y236434D01*
Y229052D01*
X307327Y230898D02*
X307943Y229667D01*
X309173Y229052D01*
X311633D01*
X312864Y229667D01*
X313479Y230898D01*
X312864Y232128D01*
X311633Y232743D01*
X309173D01*
X307943Y233358D01*
X307327Y234589D01*
X307943Y235819D01*
X309173Y236434D01*
X311633D01*
X312864Y235819D01*
X313479Y234589D01*
X317170Y229052D02*
X323321Y236434D01*
X317170D02*
X323321Y229052D01*
X336855Y236434D02*
Y230898D01*
X337470Y229667D01*
X338700Y229052D01*
X341161D01*
X342391Y229667D01*
X343006Y230898D01*
Y236434D01*
X352849Y230283D02*
X352234Y229667D01*
X351004Y229052D01*
X349158D01*
X347928Y229667D01*
X347313Y230283D01*
X346697Y231513D01*
Y233974D01*
X347313Y235204D01*
X347928Y235819D01*
X349158Y236434D01*
X351004D01*
X352234Y235819D01*
X352849Y235204D01*
X356540Y229052D02*
Y236434D01*
X362691Y229052D01*
Y236434D01*
X366382Y231513D02*
X371304D01*
X376840Y229667D02*
X378070Y229052D01*
X379301D01*
X380531Y229667D01*
X381146Y230898D01*
Y234589D01*
X380531Y235819D01*
X379301Y236434D01*
X378070D01*
X376840Y235819D01*
X376225Y234589D01*
Y230898D01*
X376840Y229667D01*
X380531Y235819D01*
X387298Y229052D02*
X389758D01*
X388528D02*
Y236434D01*
X387298Y235204D01*
X297485Y217241D02*
Y224623D01*
X300561Y220932D01*
X303636Y224623D01*
Y217241D01*
X307327Y219087D02*
X307943Y217856D01*
X309173Y217241D01*
X310403D01*
X311633Y217856D01*
X312248Y219087D01*
Y220317D01*
X311633Y221547D01*
X310403Y222163D01*
X309173D01*
X307943Y221547D01*
X307327Y220317D01*
Y219087D01*
X322091Y220317D02*
X321476Y221547D01*
X320246Y222163D01*
X319015D01*
X317785Y221547D01*
X317170Y220317D01*
Y219087D01*
X317785Y217856D01*
X319015Y217241D01*
X320246D01*
X321476Y217856D01*
X322091Y219087D01*
Y217241D02*
Y224623D01*
X327012Y219702D02*
X331933D01*
X336855Y219087D02*
X337470Y217856D01*
X338700Y217241D01*
X339931D01*
X341161Y217856D01*
X341776Y219087D01*
Y220317D01*
X341161Y221547D01*
X339931Y222163D01*
X338700D01*
X337470Y221547D01*
X336855Y220317D01*
Y219087D01*
X346697Y217241D02*
Y224623D01*
Y219702D02*
X348543D01*
X351619Y222163D01*
X348543Y219702D02*
X351619Y217241D01*
X359000D02*
Y222163D01*
Y224008D02*
X296274Y296980D02*
Y291075D01*
X298735D02*
X293813D01*
X290861Y295504D02*
X290369Y296488D01*
X289384Y296980D01*
X288400D01*
X287416Y296488D01*
X286924Y295504D01*
Y294520D01*
X287416Y293535D01*
X288400Y293043D01*
X289384D01*
X290369Y293535D01*
X290861Y294520D01*
Y295504D01*
X275113D02*
X274620Y296488D01*
X273636Y296980D01*
X271668D01*
X270683Y296488D01*
X270191Y295504D01*
X270683Y294520D01*
X271668Y294028D01*
X273636D01*
X274620Y293535D01*
X275113Y292551D01*
X274620Y291567D01*
X273636Y291075D01*
X271668D01*
X270683Y291567D01*
X270191Y292551D01*
X267239Y291075D02*
Y295504D01*
X266746Y296488D01*
X265762Y296980D01*
X263794D01*
X262809Y296488D01*
X262317Y295504D01*
Y291075D01*
X255920Y294028D02*
X254935Y294520D01*
X254443Y295504D01*
X254935Y296488D01*
X255920Y296980D01*
X259365D01*
Y291075D01*
X255920D01*
X254935Y291567D01*
X254443Y292551D01*
X254935Y293535D01*
X255920Y294028D01*
X259365D01*
X251491Y296980D02*
Y291075D01*
X248046D01*
X247061Y291567D01*
X246569Y292551D01*
X247061Y293535D01*
X248046Y294028D01*
X251491D01*
X238695Y295996D02*
X239187Y296488D01*
X240172Y296980D01*
X241648D01*
X242632Y296488D01*
X243124Y295996D01*
X243617Y295012D01*
Y293043D01*
X243124Y292059D01*
X242632Y291567D01*
X241648Y291075D01*
X240172D01*
X239187Y291567D01*
X238695Y292059D01*
X232298Y294028D02*
X231313Y294520D01*
X230821Y295504D01*
X231313Y296488D01*
X232298Y296980D01*
X235743D01*
Y291075D01*
X232298D01*
X231313Y291567D01*
X230821Y292551D01*
X231313Y293535D01*
X232298Y294028D01*
X235743D01*
X390508Y51884D02*
X387989D01*
X390193Y54089D01*
X390508Y54719D01*
X390193Y55348D01*
X389563Y55663D01*
X388619D01*
X387989Y55348D01*
X394739Y56689D02*
Y49209D01*
X415239Y49189D02*
X394739D01*
D02*
D117*
X103035Y314607D02*
Y300207D01*
X429435D01*
Y314607D01*
Y321807D02*
Y334107D01*
X103035D01*
Y321807D01*
D02*
D118*
X385035Y339407D02*
G75*
G02*
X388035I1500J0D01*
G01*
G75*
G02*
X385035I-1500J0D01*
G01*
X0Y0D02*
M02*
