G04 DesignSpark PCB PRO Gerber Version 10.0 Build 5299*
G04 #@! TF.Part,Single*
G04 #@! TF.FileFunction,Copper,L2,Bot*
G04 #@! TF.FilePolarity,Positive*
%FSLAX35Y35*%
%MOIN*%
G04 #@! TA.AperFunction,SMDPad,CuDef*
%ADD94R,0.06693X0.35433*%
G04 #@! TA.AperFunction,ComponentPad*
%ADD120R,0.05250X0.05250*%
G04 #@! TD.AperFunction*
%ADD23C,0.00500*%
%ADD86C,0.01000*%
%ADD89C,0.01500*%
G04 #@! TA.AperFunction,ViaPad*
%ADD92C,0.03200*%
G04 #@! TD.AperFunction*
%ADD88C,0.05000*%
G04 #@! TA.AperFunction,ComponentPad*
%ADD121C,0.05250*%
G04 #@! TA.AperFunction,ViaPad*
%ADD119C,0.05600*%
G04 #@! TA.AperFunction,WasherPad*
%ADD93C,0.07874*%
G04 #@! TA.AperFunction,ComponentPad*
%ADD122C,0.17400*%
G04 #@! TD.AperFunction*
X0Y0D02*
D02*
D23*
X104985Y310815D02*
Y109244D01*
G75*
G02*
X109953Y102207I-2500J-7038D01*
G01*
Y62207D01*
G75*
G03*
X112485Y59675I2531J0D01*
G01*
X137170D01*
G75*
G02*
X139638Y57207I0J-2469D01*
G01*
Y50845D01*
X144386D01*
Y70539D01*
X133854Y81072D01*
G75*
G02*
X133382Y82207I1131J1135D01*
G01*
Y198457D01*
G75*
G02*
X133854Y199592I1602J0D01*
G01*
X149632Y215370D01*
Y311465D01*
G75*
G02*
X149587Y311282I-3398J741D01*
G01*
Y217207D01*
G75*
G02*
X148602Y214833I-3352J0D01*
G01*
X133337Y199568D01*
Y79845D01*
X139852Y73330D01*
G75*
G02*
X140837Y70957I-2368J-2373D01*
G01*
Y69911D01*
G75*
G02*
X141139Y68457I-3353J-1455D01*
G01*
G75*
G02*
X133830I-3654J0D01*
G01*
G75*
G02*
X134036Y69665I3654J0D01*
G01*
X127617Y76083D01*
G75*
G02*
X126632Y78457I2368J2373D01*
G01*
Y200957D01*
G75*
G02*
X127617Y203330I3352J0D01*
G01*
X142882Y218595D01*
Y224522D01*
G75*
G02*
X142485Y224457I-398J1185D01*
G01*
X135985D01*
G75*
G02*
X134735Y225707I0J1250D01*
G01*
Y291207D01*
G75*
G02*
X135985Y292457I1250J0D01*
G01*
X142485D01*
G75*
G02*
X142882Y292392I0J-1250D01*
G01*
Y311282D01*
G75*
G02*
X146785Y315641I3352J925D01*
G01*
X145111Y317314D01*
G75*
G02*
X144847Y317656I1124J1143D01*
G01*
X143246Y320428D01*
G75*
G02*
X146235Y325684I2989J1778D01*
G01*
G75*
G02*
X149223Y320428I-1J-3478D01*
G01*
X148237Y318720D01*
X150957Y316001D01*
Y325635D01*
G75*
G02*
X153630Y328309I2673J0D01*
G01*
X168860D01*
G75*
G02*
X171758Y325413I0J-2897D01*
G01*
Y318548D01*
G75*
G03*
X172528Y317778I770J0D01*
G01*
X174024D01*
G75*
G02*
X176730Y316193I1J-3099D01*
G01*
G75*
G02*
X176871Y315653I-961J-540D01*
G01*
G75*
G02*
X176870Y315626I-1104J2D01*
G01*
G75*
G02*
X177119Y308844I-636J-3419D01*
G01*
G75*
G02*
X177124Y308736I-1100J-106D01*
G01*
Y71809D01*
G75*
G02*
X176021Y70706I-1103J0D01*
G01*
G75*
G03*
X174436Y70053I0J-2248D01*
G01*
G75*
G02*
X174431Y70047I-1256J1161D01*
G01*
X174398Y70014D01*
G75*
G02*
X174393Y70009I-698J746D01*
G01*
G75*
G03*
X173739Y68424I1594J-1585D01*
G01*
Y50957D01*
G75*
G02*
X173733Y50845I-1103J-2D01*
G01*
X192415D01*
X194386Y54259D01*
Y294707D01*
G75*
G02*
X194857Y295842I1602J0D01*
G01*
X199882Y300867D01*
Y316293D01*
X198056Y318119D01*
X195392Y318833D01*
G75*
G02*
X196235Y325684I843J3374D01*
G01*
G75*
G02*
X199609Y323049I0J-3478D01*
G01*
X200322Y320385D01*
X202368Y318340D01*
G75*
G02*
X202587Y316347I-1133J-1133D01*
G01*
Y300812D01*
G75*
G02*
X202368Y298820I-1352J-859D01*
G01*
X197591Y294043D01*
Y54259D01*
X199562Y50845D01*
X202415D01*
X204386Y54259D01*
Y294461D01*
G75*
G02*
X204857Y295596I1602J0D01*
G01*
X209882Y300620D01*
Y316293D01*
X208056Y318119D01*
X205392Y318833D01*
G75*
G02*
X206235Y325684I843J3374D01*
G01*
G75*
G02*
X209609Y323049I0J-3478D01*
G01*
X210322Y320385D01*
X212368Y318340D01*
G75*
G02*
X212587Y316347I-1133J-1133D01*
G01*
Y300566D01*
G75*
G02*
X212368Y298574I-1352J-859D01*
G01*
X207591Y293797D01*
Y54259D01*
X209562Y50845D01*
X212415D01*
X214386Y54259D01*
Y294461D01*
G75*
G02*
X214857Y295596I1602J0D01*
G01*
X219882Y300620D01*
Y316293D01*
X218056Y318119D01*
X215392Y318833D01*
G75*
G02*
X216235Y325684I843J3374D01*
G01*
G75*
G02*
X219609Y323049I0J-3478D01*
G01*
X220322Y320385D01*
X222368Y318340D01*
G75*
G02*
X222587Y316347I-1133J-1133D01*
G01*
Y300566D01*
G75*
G02*
X222368Y298574I-1352J-859D01*
G01*
X217591Y293797D01*
Y54259D01*
X219562Y50845D01*
X222415D01*
X224386Y54259D01*
Y294461D01*
G75*
G02*
X224857Y295596I1602J0D01*
G01*
X229882Y300620D01*
Y316293D01*
X228056Y318119D01*
X225392Y318833D01*
G75*
G02*
X226235Y325684I843J3374D01*
G01*
G75*
G02*
X229609Y323049I0J-3478D01*
G01*
X230322Y320385D01*
X232368Y318340D01*
G75*
G02*
X232587Y316347I-1133J-1133D01*
G01*
Y300566D01*
G75*
G02*
X232368Y298574I-1352J-859D01*
G01*
X227591Y293797D01*
Y54259D01*
X229562Y50845D01*
X232415D01*
X234386Y54259D01*
Y294461D01*
G75*
G02*
X234857Y295596I1602J0D01*
G01*
X239882Y300620D01*
Y316293D01*
X238056Y318119D01*
X235392Y318833D01*
G75*
G02*
X236235Y325684I843J3374D01*
G01*
G75*
G02*
X239609Y323049I0J-3478D01*
G01*
X240322Y320385D01*
X242368Y318340D01*
G75*
G02*
X242587Y316347I-1133J-1133D01*
G01*
Y300566D01*
G75*
G02*
X242368Y298574I-1352J-859D01*
G01*
X237591Y293797D01*
Y54259D01*
X239562Y50845D01*
X242415D01*
X244386Y54259D01*
Y294707D01*
G75*
G02*
X244857Y295842I1602J0D01*
G01*
X249882Y300867D01*
Y316293D01*
X248056Y318119D01*
X245392Y318833D01*
G75*
G02*
X246235Y325684I843J3374D01*
G01*
G75*
G02*
X249609Y323049I0J-3478D01*
G01*
X250322Y320385D01*
X252368Y318340D01*
G75*
G02*
X252587Y316347I-1133J-1133D01*
G01*
Y300812D01*
G75*
G02*
X252368Y298820I-1352J-859D01*
G01*
X247591Y294043D01*
Y54259D01*
X249562Y50845D01*
X252415D01*
X254386Y54259D01*
Y294558D01*
G75*
G02*
X255640Y296122I1602J0D01*
G01*
X259786Y300267D01*
Y317896D01*
X259163Y318519D01*
X256051Y318734D01*
G75*
G02*
X256235Y325684I184J3473D01*
G01*
G75*
G02*
X259382Y323685I0J-3478D01*
G01*
X260876Y320631D01*
X262094Y319413D01*
G75*
G02*
X262491Y318457I-956J-956D01*
G01*
Y299707D01*
G75*
G02*
X262094Y298750I-1352J0D01*
G01*
X257591Y294248D01*
Y54259D01*
X259562Y50845D01*
X262415D01*
X264386Y54259D01*
Y294215D01*
G75*
G02*
X264857Y295350I1602J0D01*
G01*
X269882Y300374D01*
Y316293D01*
X268056Y318119D01*
X265392Y318833D01*
G75*
G02*
X266235Y325684I843J3374D01*
G01*
G75*
G02*
X269609Y323049I0J-3478D01*
G01*
X270322Y320385D01*
X272368Y318340D01*
G75*
G02*
X272587Y316347I-1133J-1133D01*
G01*
Y300320D01*
G75*
G02*
X272368Y298328I-1352J-859D01*
G01*
X267591Y293551D01*
Y54259D01*
X269562Y50845D01*
X272415D01*
X274386Y54259D01*
Y294707D01*
G75*
G02*
X274857Y295842I1602J0D01*
G01*
X279882Y300867D01*
Y316293D01*
X278056Y318119D01*
X275392Y318833D01*
G75*
G02*
X276235Y325684I843J3374D01*
G01*
G75*
G02*
X279609Y323049I0J-3478D01*
G01*
X280322Y320385D01*
X282368Y318340D01*
G75*
G02*
X282587Y316347I-1133J-1133D01*
G01*
Y300812D01*
G75*
G02*
X282368Y298820I-1352J-859D01*
G01*
X277591Y294043D01*
Y54259D01*
X279562Y50845D01*
X282415D01*
X284386Y54259D01*
Y294707D01*
G75*
G02*
X284857Y295842I1602J0D01*
G01*
X289882Y300867D01*
Y316293D01*
X288056Y318119D01*
X285392Y318833D01*
G75*
G02*
X286235Y325684I843J3374D01*
G01*
G75*
G02*
X289609Y323049I0J-3478D01*
G01*
X290322Y320385D01*
X292368Y318340D01*
G75*
G02*
X292587Y316347I-1133J-1133D01*
G01*
Y300812D01*
G75*
G02*
X292368Y298820I-1352J-859D01*
G01*
X287591Y294043D01*
Y54259D01*
X289562Y50845D01*
X292415D01*
X294386Y54259D01*
Y294461D01*
G75*
G02*
X294857Y295596I1602J0D01*
G01*
X299882Y300620D01*
Y316293D01*
X298056Y318119D01*
X295392Y318833D01*
G75*
G02*
X296235Y325684I843J3374D01*
G01*
G75*
G02*
X299609Y323049I0J-3478D01*
G01*
X300322Y320385D01*
X302368Y318340D01*
G75*
G02*
X302587Y316347I-1133J-1133D01*
G01*
Y300566D01*
G75*
G02*
X302368Y298574I-1352J-859D01*
G01*
X297591Y293797D01*
Y54259D01*
X299562Y50845D01*
X302415D01*
X304386Y54259D01*
Y294707D01*
G75*
G02*
X304857Y295842I1602J0D01*
G01*
X309882Y300867D01*
Y316293D01*
X308056Y318119D01*
X305392Y318833D01*
G75*
G02*
X306235Y325684I843J3374D01*
G01*
G75*
G02*
X309609Y323049I0J-3478D01*
G01*
X310322Y320385D01*
X312368Y318340D01*
G75*
G02*
X312587Y316347I-1133J-1133D01*
G01*
Y300812D01*
G75*
G02*
X312368Y298820I-1352J-859D01*
G01*
X307591Y294043D01*
Y54259D01*
X309562Y50845D01*
X312415D01*
X314386Y54259D01*
Y294461D01*
G75*
G02*
X314857Y295596I1602J0D01*
G01*
X319882Y300620D01*
Y316293D01*
X318056Y318119D01*
X315392Y318833D01*
G75*
G02*
X316235Y325684I843J3374D01*
G01*
G75*
G02*
X319609Y323049I0J-3478D01*
G01*
X320322Y320385D01*
X322368Y318340D01*
G75*
G02*
X322587Y316347I-1133J-1133D01*
G01*
Y300566D01*
G75*
G02*
X322368Y298574I-1352J-859D01*
G01*
X317591Y293797D01*
Y54259D01*
X319562Y50845D01*
X322415D01*
X324386Y54259D01*
Y294707D01*
G75*
G02*
X324857Y295842I1602J0D01*
G01*
X329882Y300867D01*
Y316293D01*
X328056Y318119D01*
X325392Y318833D01*
G75*
G02*
X326235Y325684I843J3374D01*
G01*
G75*
G02*
X329609Y323049I0J-3478D01*
G01*
X330322Y320385D01*
X332368Y318340D01*
G75*
G02*
X332587Y316347I-1133J-1133D01*
G01*
Y300812D01*
G75*
G02*
X332368Y298820I-1352J-859D01*
G01*
X327591Y294043D01*
Y54259D01*
X329562Y50845D01*
X332415D01*
X334386Y54259D01*
Y294707D01*
G75*
G02*
X334857Y295842I1602J0D01*
G01*
X339882Y300867D01*
Y316293D01*
X338056Y318119D01*
X335392Y318833D01*
G75*
G02*
X336235Y325684I843J3374D01*
G01*
G75*
G02*
X339609Y323049I0J-3478D01*
G01*
X340322Y320385D01*
X342368Y318340D01*
G75*
G02*
X342587Y316347I-1133J-1133D01*
G01*
Y300812D01*
G75*
G02*
X342368Y298820I-1352J-859D01*
G01*
X337591Y294043D01*
Y54259D01*
X339562Y50845D01*
X342415D01*
X344386Y54259D01*
Y294707D01*
G75*
G02*
X344857Y295842I1602J0D01*
G01*
X349882Y300867D01*
Y316293D01*
X348056Y318119D01*
X345392Y318833D01*
G75*
G02*
X346235Y325684I843J3374D01*
G01*
G75*
G02*
X349609Y323049I0J-3478D01*
G01*
X350322Y320385D01*
X352368Y318340D01*
G75*
G02*
X352587Y316347I-1133J-1133D01*
G01*
Y300812D01*
G75*
G02*
X352368Y298820I-1352J-859D01*
G01*
X347591Y294043D01*
Y54259D01*
X349562Y50845D01*
X352415D01*
X354386Y54259D01*
Y294707D01*
G75*
G02*
X354857Y295842I1602J0D01*
G01*
X359882Y300867D01*
Y316293D01*
X358056Y318119D01*
X355392Y318833D01*
G75*
G02*
X356235Y325684I843J3374D01*
G01*
G75*
G02*
X359609Y323049I0J-3478D01*
G01*
X360322Y320385D01*
X362368Y318340D01*
G75*
G02*
X362587Y316347I-1133J-1133D01*
G01*
Y300812D01*
G75*
G02*
X362368Y298820I-1352J-859D01*
G01*
X357591Y294043D01*
Y54259D01*
X359562Y50845D01*
X362415D01*
X364386Y54259D01*
Y55539D01*
X358854Y61072D01*
G75*
G02*
X358382Y62207I1131J1135D01*
G01*
Y112207D01*
G75*
G02*
X358854Y113342I1602J0D01*
G01*
X364632Y119120D01*
Y294707D01*
G75*
G02*
X365104Y295842I1602J0D01*
G01*
X369882Y300620D01*
Y316293D01*
X368056Y318119D01*
X365392Y318833D01*
G75*
G02*
X366235Y325684I843J3374D01*
G01*
G75*
G02*
X369609Y323049I0J-3478D01*
G01*
X370322Y320385D01*
X372368Y318340D01*
G75*
G02*
X372587Y316347I-1133J-1133D01*
G01*
Y300566D01*
G75*
G02*
X372368Y298574I-1352J-859D01*
G01*
X367837Y294043D01*
Y118457D01*
G75*
G02*
X367366Y117322I-1602J0D01*
G01*
X361587Y111543D01*
Y62870D01*
X367120Y57338D01*
G75*
G02*
X367591Y56203I-1131J-1135D01*
G01*
Y54259D01*
X369562Y50845D01*
X372415D01*
X374386Y54259D01*
Y56789D01*
X371821Y59354D01*
X367488D01*
G75*
G02*
X366352Y59824I-3J1602D01*
G01*
X362602Y63574D01*
G75*
G02*
X362132Y64707I1133J1133D01*
G01*
G75*
G02*
Y64710I621J2D01*
G01*
Y109707D01*
G75*
G02*
X362604Y110842I1602J0D01*
G01*
X374632Y122870D01*
Y294707D01*
G75*
G02*
X375104Y295842I1602J0D01*
G01*
X379882Y300620D01*
Y316293D01*
X378056Y318119D01*
X375392Y318833D01*
G75*
G02*
X376235Y325684I843J3374D01*
G01*
G75*
G02*
X379609Y323049I0J-3478D01*
G01*
X380322Y320385D01*
X382368Y318340D01*
G75*
G02*
X382587Y316347I-1133J-1133D01*
G01*
Y300566D01*
G75*
G02*
X382368Y298574I-1352J-859D01*
G01*
X377837Y294043D01*
Y122207D01*
G75*
G02*
X377366Y121072I-1602J0D01*
G01*
X365337Y109043D01*
Y65370D01*
X368148Y62559D01*
X372485D01*
G75*
G02*
X373620Y62088I0J-1602D01*
G01*
X377120Y58588D01*
G75*
G02*
X377591Y57453I-1131J-1135D01*
G01*
Y54259D01*
X379562Y50845D01*
X382415D01*
X384386Y54259D01*
Y55711D01*
G75*
G02*
X384857Y56846I1602J0D01*
G01*
X389632Y61620D01*
Y295954D01*
G75*
G02*
Y295956I621J1D01*
G01*
G75*
G02*
Y295957I627J0D01*
G01*
G75*
G02*
X390102Y297090I1602J0D01*
G01*
X393382Y300370D01*
Y312793D01*
X389676Y316499D01*
X383945Y318034D01*
G75*
G02*
X383003Y318729I415J1548D01*
G01*
X382757D01*
Y325684D01*
X389712D01*
Y325439D01*
G75*
G02*
X390407Y324496I-853J-1357D01*
G01*
X391943Y318764D01*
X396116Y314592D01*
G75*
G02*
X396587Y313457I-1131J-1135D01*
G01*
Y299710D01*
G75*
G02*
Y299707I-621J-1D01*
G01*
G75*
G02*
X396118Y298574I-1602J-1D01*
G01*
X392837Y295293D01*
Y60957D01*
G75*
G02*
X392366Y59822I-1602J0D01*
G01*
X387591Y55047D01*
Y54259D01*
X389562Y50845D01*
X392339D01*
Y57207D01*
G75*
G02*
X394807Y59675I2469J0D01*
G01*
X404985D01*
Y345957D01*
G75*
G03*
X402485Y348457I-2500J0D01*
G01*
X107562D01*
G75*
G03*
X104985Y345880I0J-2577D01*
G01*
Y325599D01*
G75*
G02*
X120587Y318207I6050J-7392D01*
G01*
G75*
G02*
X104985Y310815I-9552J0D01*
G01*
X172359Y322207D02*
G75*
G02*
X180110I3875J0D01*
G01*
G75*
G02*
X172359I-3875J0D01*
G01*
X182359D02*
G75*
G02*
X190110I3875J0D01*
G01*
G75*
G02*
X182359I-3875J0D01*
G01*
X182757Y312207D02*
G75*
G02*
X189712I3478J0D01*
G01*
G75*
G02*
X182757I-3478J0D01*
G01*
X192757D02*
G75*
G02*
X199712I3478J0D01*
G01*
G75*
G02*
X192757I-3478J0D01*
G01*
X262757D02*
G75*
G02*
X269712I3478J0D01*
G01*
G75*
G02*
X262757I-3478J0D01*
G01*
X202757D02*
G75*
G02*
X209712I3478J0D01*
G01*
G75*
G02*
X202757I-3478J0D01*
G01*
X212757D02*
G75*
G02*
X219712I3478J0D01*
G01*
G75*
G02*
X212757I-3478J0D01*
G01*
X222757D02*
G75*
G02*
X229712I3478J0D01*
G01*
G75*
G02*
X222757I-3478J0D01*
G01*
X232757D02*
G75*
G02*
X239712I3478J0D01*
G01*
G75*
G02*
X232757I-3478J0D01*
G01*
X242757D02*
G75*
G02*
X249712I3478J0D01*
G01*
G75*
G02*
X242757I-3478J0D01*
G01*
X252757D02*
G75*
G02*
X259712I3478J0D01*
G01*
G75*
G02*
X252757I-3478J0D01*
G01*
X272757D02*
G75*
G02*
X279712I3478J0D01*
G01*
G75*
G02*
X272757I-3478J0D01*
G01*
X282757D02*
G75*
G02*
X289712I3478J0D01*
G01*
G75*
G02*
X282757I-3478J0D01*
G01*
X292757D02*
G75*
G02*
X299712I3478J0D01*
G01*
G75*
G02*
X292757I-3478J0D01*
G01*
X302757D02*
G75*
G02*
X309712I3478J0D01*
G01*
G75*
G02*
X302757I-3478J0D01*
G01*
X312757D02*
G75*
G02*
X319712I3478J0D01*
G01*
G75*
G02*
X312757I-3478J0D01*
G01*
X322757D02*
G75*
G02*
X329712I3478J0D01*
G01*
G75*
G02*
X322757I-3478J0D01*
G01*
X332757D02*
G75*
G02*
X339712I3478J0D01*
G01*
G75*
G02*
X332757I-3478J0D01*
G01*
X342757D02*
G75*
G02*
X349712I3478J0D01*
G01*
G75*
G02*
X342757I-3478J0D01*
G01*
X352757D02*
G75*
G02*
X359712I3478J0D01*
G01*
G75*
G02*
X352757I-3478J0D01*
G01*
X362757D02*
G75*
G02*
X369712I3478J0D01*
G01*
G75*
G02*
X362757I-3478J0D01*
G01*
X372757D02*
G75*
G02*
X379712I3478J0D01*
G01*
G75*
G02*
X372757I-3478J0D01*
G01*
X382757D02*
G75*
G02*
X389712I3478J0D01*
G01*
G75*
G02*
X382757I-3478J0D01*
G01*
X381574Y81322D02*
G75*
G02*
X386644Y72561I-5035J-8761D01*
G01*
G75*
G02*
X366435I-10104J0D01*
G01*
G75*
G02*
X370616Y80746I10104J0D01*
G01*
G75*
G02*
X366593Y88309I5098J7563D01*
G01*
G75*
G02*
X384833I9120J0D01*
G01*
G75*
G02*
X381574Y81322I-9120J0D01*
G01*
X109953Y62207D02*
G36*
X109953Y62207D02*
Y62206D01*
G75*
G03*
X112485Y59675I2531J0D01*
G01*
X137170D01*
G75*
G02*
X139638Y57207I0J-2468D01*
G01*
Y51095D01*
X144386D01*
Y70539D01*
X134982Y79943D01*
X133337D01*
Y79845D01*
X139852Y73330D01*
G75*
G02*
X140837Y70957I-2368J-2373D01*
G01*
Y69911D01*
G75*
G02*
X141139Y68457I-3357J-1456D01*
G01*
G75*
G02*
X133830I-3654J0D01*
G01*
G75*
G02*
Y68459I3759J1D01*
G01*
G75*
G02*
X134036Y69665I3641J0D01*
G01*
X127617Y76083D01*
G75*
G02*
X126632Y78457I2368J2373D01*
G01*
Y79943D01*
X109953D01*
Y62207D01*
G37*
X173739Y68424D02*
G36*
X173739Y68424D02*
Y51095D01*
X192559D01*
X194386Y54259D01*
Y79943D01*
X177124D01*
Y71809D01*
G75*
G02*
X176021Y70706I-1103J0D01*
G01*
G75*
G03*
X174436Y70053I0J-2248D01*
G01*
G75*
G02*
X174431Y70047I-39J31D01*
G01*
X174398Y70014D01*
G75*
G02*
X174393Y70009I-36J33D01*
G01*
G75*
G03*
X173739Y68425I1593J-1584D01*
G01*
Y68424D01*
G37*
X197591Y79943D02*
G36*
X197591Y79943D02*
Y54259D01*
X199418Y51095D01*
X202559D01*
X204386Y54259D01*
Y79943D01*
X197591D01*
G37*
X207591D02*
G36*
X207591Y79943D02*
Y54259D01*
X209418Y51095D01*
X212559D01*
X214386Y54259D01*
Y79943D01*
X207591D01*
G37*
X217591D02*
G36*
X217591Y79943D02*
Y54259D01*
X219418Y51095D01*
X222559D01*
X224386Y54259D01*
Y79943D01*
X217591D01*
G37*
X227591D02*
G36*
X227591Y79943D02*
Y54259D01*
X229418Y51095D01*
X232559D01*
X234386Y54259D01*
Y79943D01*
X227591D01*
G37*
X237591D02*
G36*
X237591Y79943D02*
Y54259D01*
X239418Y51095D01*
X242559D01*
X244386Y54259D01*
Y79943D01*
X237591D01*
G37*
X247591D02*
G36*
X247591Y79943D02*
Y54259D01*
X249418Y51095D01*
X252559D01*
X254386Y54259D01*
Y79943D01*
X247591D01*
G37*
X257591D02*
G36*
X257591Y79943D02*
Y54259D01*
X259418Y51095D01*
X262559D01*
X264386Y54259D01*
Y79943D01*
X257591D01*
G37*
X267591D02*
G36*
X267591Y79943D02*
Y54259D01*
X269418Y51095D01*
X272559D01*
X274386Y54259D01*
Y79943D01*
X267591D01*
G37*
X277591D02*
G36*
X277591Y79943D02*
Y54259D01*
X279418Y51095D01*
X282559D01*
X284386Y54259D01*
Y79943D01*
X277591D01*
G37*
X287591D02*
G36*
X287591Y79943D02*
Y54259D01*
X289418Y51095D01*
X292559D01*
X294386Y54259D01*
Y79943D01*
X287591D01*
G37*
X297591D02*
G36*
X297591Y79943D02*
Y54259D01*
X299418Y51095D01*
X302559D01*
X304386Y54259D01*
Y79943D01*
X297591D01*
G37*
X307591D02*
G36*
X307591Y79943D02*
Y54259D01*
X309418Y51095D01*
X312559D01*
X314386Y54259D01*
Y79943D01*
X307591D01*
G37*
X317591D02*
G36*
X317591Y79943D02*
Y54259D01*
X319418Y51095D01*
X322559D01*
X324386Y54259D01*
Y79943D01*
X317591D01*
G37*
X327591D02*
G36*
X327591Y79943D02*
Y54259D01*
X329418Y51095D01*
X332559D01*
X334386Y54259D01*
Y79943D01*
X327591D01*
G37*
X337591D02*
G36*
X337591Y79943D02*
Y54259D01*
X339418Y51095D01*
X342559D01*
X344386Y54259D01*
Y79943D01*
X337591D01*
G37*
X347591D02*
G36*
X347591Y79943D02*
Y54259D01*
X349418Y51095D01*
X352559D01*
X354386Y54259D01*
Y79943D01*
X347591D01*
G37*
X357591D02*
G36*
X357591Y79943D02*
Y54259D01*
X359418Y51095D01*
X362559D01*
X364386Y54259D01*
Y55539D01*
X358854Y61072D01*
G75*
G02*
X358382Y62206I1130J1135D01*
G01*
Y62207D01*
Y79943D01*
X357591D01*
G37*
X361587D02*
G36*
X361587Y79943D02*
Y62870D01*
X367120Y57338D01*
G75*
G02*
X367591Y56203I-1130J-1135D01*
G01*
Y56203D01*
Y54259D01*
X369418Y51095D01*
X372559D01*
X374386Y54259D01*
Y56789D01*
X371821Y59354D01*
X367488D01*
G75*
G02*
X366352Y59824I-4J1601D01*
G01*
X362602Y63574D01*
G75*
G02*
X362132Y64707I1133J1133D01*
G01*
Y64707D01*
Y64710D01*
Y79943D01*
X361587D01*
G37*
X365337D02*
G36*
X365337Y79943D02*
Y65370D01*
X368148Y62559D01*
X372485D01*
G75*
G02*
X373620Y62088I0J-1602D01*
G01*
X377120Y58588D01*
G75*
G02*
X377591Y57453I-1130J-1135D01*
G01*
Y57453D01*
Y54259D01*
X379418Y51095D01*
X382559D01*
X384386Y54259D01*
Y55711D01*
Y55711D01*
G75*
G02*
X384857Y56846I1602J0D01*
G01*
X389632Y61620D01*
Y79943D01*
X383439D01*
G75*
G02*
X386644Y72562I-6898J-7381D01*
G01*
G75*
G02*
Y72561I-15038J0D01*
G01*
G75*
G02*
X366435I-10104J0D01*
G01*
G75*
G02*
X369640Y79943I10105J0D01*
G01*
X365337D01*
G37*
X387591Y55047D02*
G36*
X387591Y55047D02*
Y54259D01*
X389418Y51095D01*
X392339D01*
Y57207D01*
G75*
G02*
X394807Y59675I2469J1D01*
G01*
X404735D01*
Y79943D01*
X392837D01*
Y60957D01*
Y60956D01*
G75*
G02*
X392366Y59822I-1602J0D01*
G01*
X387591Y55047D01*
G37*
X105235Y310617D02*
G36*
X105235Y310617D02*
Y109151D01*
G75*
G02*
X109953Y102207I-2750J-6944D01*
G01*
Y79943D01*
X126632D01*
Y200957D01*
G75*
G02*
X127617Y203330I3352J0D01*
G01*
X142882Y218595D01*
Y224522D01*
G75*
G02*
X142485Y224457I-400J1197D01*
G01*
X135985D01*
G75*
G02*
X134735Y225707I0J1250D01*
G01*
Y291207D01*
G75*
G02*
X135985Y292457I1250J0D01*
G01*
X142485D01*
G75*
G02*
X142882Y292392I-2J-1262D01*
G01*
Y311282D01*
G75*
G02*
X142757Y312207I3352J925D01*
G01*
X118467D01*
G75*
G02*
X105235Y310617I-7433J6000D01*
G01*
G37*
X133337Y199568D02*
G36*
X133337Y199568D02*
Y79943D01*
X134982D01*
X133854Y81072D01*
G75*
G02*
X133382Y82206I1130J1135D01*
G01*
Y82207D01*
Y198457D01*
Y198457D01*
G75*
G02*
X133854Y199592I1602J0D01*
G01*
X149632Y215370D01*
Y311465D01*
G75*
G02*
X149587Y311282I-3048J655D01*
G01*
Y217207D01*
G75*
G02*
X148602Y214833I-3352J0D01*
G01*
X133337Y199568D01*
G37*
X177124Y308736D02*
G36*
X177124Y308736D02*
Y79943D01*
X194386D01*
Y294707D01*
Y294707D01*
G75*
G02*
X194857Y295842I1602J0D01*
G01*
X199882Y300867D01*
Y312207D01*
X199712D01*
G75*
G02*
X192757I-3478J0D01*
G01*
X189712D01*
G75*
G02*
X182757I-3478J0D01*
G01*
X179712D01*
G75*
G02*
X177119Y308844I-3478J0D01*
G01*
G75*
G02*
X177124Y308740I-1053J-104D01*
G01*
G75*
G02*
Y308736I-1111J-2D01*
G01*
G37*
X197591Y294043D02*
G36*
X197591Y294043D02*
Y79943D01*
X204386D01*
Y294461D01*
Y294461D01*
G75*
G02*
X204857Y295596I1602J0D01*
G01*
X209882Y300620D01*
Y312207D01*
X209712D01*
G75*
G02*
X202757I-3478J0D01*
G01*
X202587D01*
Y300812D01*
G75*
G02*
X202837Y299953I-1352J-859D01*
G01*
G75*
G02*
X202368Y298820I-1602J0D01*
G01*
X197591Y294043D01*
G37*
X207591Y293797D02*
G36*
X207591Y293797D02*
Y79943D01*
X214386D01*
Y294461D01*
Y294461D01*
G75*
G02*
X214857Y295596I1602J0D01*
G01*
X219882Y300620D01*
Y312207D01*
X219712D01*
G75*
G02*
X212757I-3478J0D01*
G01*
X212587D01*
Y300566D01*
G75*
G02*
X212837Y299707I-1352J-859D01*
G01*
G75*
G02*
X212368Y298574I-1602J0D01*
G01*
X207591Y293797D01*
G37*
X217591D02*
G36*
X217591Y293797D02*
Y79943D01*
X224386D01*
Y294461D01*
Y294461D01*
G75*
G02*
X224857Y295596I1602J0D01*
G01*
X229882Y300620D01*
Y312207D01*
X229712D01*
G75*
G02*
X222757I-3478J0D01*
G01*
X222587D01*
Y300566D01*
G75*
G02*
X222837Y299707I-1352J-859D01*
G01*
G75*
G02*
X222368Y298574I-1602J0D01*
G01*
X217591Y293797D01*
G37*
X227591D02*
G36*
X227591Y293797D02*
Y79943D01*
X234386D01*
Y294461D01*
Y294461D01*
G75*
G02*
X234857Y295596I1602J0D01*
G01*
X239882Y300620D01*
Y312207D01*
X239712D01*
G75*
G02*
X232757I-3478J0D01*
G01*
X232587D01*
Y300566D01*
G75*
G02*
X232837Y299707I-1352J-859D01*
G01*
G75*
G02*
X232368Y298574I-1602J0D01*
G01*
X227591Y293797D01*
G37*
X237591D02*
G36*
X237591Y293797D02*
Y79943D01*
X244386D01*
Y294707D01*
Y294707D01*
G75*
G02*
X244857Y295842I1602J0D01*
G01*
X249882Y300867D01*
Y312207D01*
X249712D01*
G75*
G02*
X242757I-3478J0D01*
G01*
X242587D01*
Y300566D01*
G75*
G02*
X242837Y299707I-1352J-859D01*
G01*
G75*
G02*
X242368Y298574I-1602J0D01*
G01*
X237591Y293797D01*
G37*
X247591Y294043D02*
G36*
X247591Y294043D02*
Y79943D01*
X254386D01*
Y294558D01*
Y294558D01*
G75*
G02*
X255640Y296122I1602J0D01*
G01*
X259786Y300267D01*
Y312207D01*
X259712D01*
G75*
G02*
X252757I-3478J0D01*
G01*
X252587D01*
Y300812D01*
G75*
G02*
X252837Y299953I-1352J-859D01*
G01*
G75*
G02*
X252368Y298820I-1602J0D01*
G01*
X247591Y294043D01*
G37*
X257591Y294248D02*
G36*
X257591Y294248D02*
Y79943D01*
X264386D01*
Y294215D01*
Y294215D01*
G75*
G02*
X264857Y295350I1602J0D01*
G01*
X269882Y300374D01*
Y312207D01*
X269712D01*
G75*
G02*
X262757I-3478J0D01*
G01*
X262491D01*
Y299707D01*
G75*
G02*
Y299706I-1381J0D01*
G01*
G75*
G02*
X262094Y298750I-1350J0D01*
G01*
X257591Y294248D01*
G37*
X267591Y293551D02*
G36*
X267591Y293551D02*
Y79943D01*
X274386D01*
Y294707D01*
Y294707D01*
G75*
G02*
X274857Y295842I1602J0D01*
G01*
X279882Y300867D01*
Y312207D01*
X279712D01*
G75*
G02*
X272757I-3478J0D01*
G01*
X272587D01*
Y300320D01*
G75*
G02*
X272837Y299461I-1352J-859D01*
G01*
G75*
G02*
X272368Y298328I-1602J0D01*
G01*
X267591Y293551D01*
G37*
X277591Y294043D02*
G36*
X277591Y294043D02*
Y79943D01*
X284386D01*
Y294707D01*
Y294707D01*
G75*
G02*
X284857Y295842I1602J0D01*
G01*
X289882Y300867D01*
Y312207D01*
X289712D01*
G75*
G02*
X282757I-3478J0D01*
G01*
X282587D01*
Y300812D01*
G75*
G02*
X282837Y299953I-1352J-859D01*
G01*
G75*
G02*
X282368Y298820I-1602J0D01*
G01*
X277591Y294043D01*
G37*
X287591D02*
G36*
X287591Y294043D02*
Y79943D01*
X294386D01*
Y294461D01*
Y294461D01*
G75*
G02*
X294857Y295596I1602J0D01*
G01*
X299882Y300620D01*
Y312207D01*
X299712D01*
G75*
G02*
X292757I-3478J0D01*
G01*
X292587D01*
Y300812D01*
G75*
G02*
X292837Y299953I-1352J-859D01*
G01*
G75*
G02*
X292368Y298820I-1602J0D01*
G01*
X287591Y294043D01*
G37*
X297591Y293797D02*
G36*
X297591Y293797D02*
Y79943D01*
X304386D01*
Y294707D01*
Y294707D01*
G75*
G02*
X304857Y295842I1602J0D01*
G01*
X309882Y300867D01*
Y312207D01*
X309712D01*
G75*
G02*
X302757I-3478J0D01*
G01*
X302587D01*
Y300566D01*
G75*
G02*
X302837Y299707I-1352J-859D01*
G01*
G75*
G02*
X302368Y298574I-1602J0D01*
G01*
X297591Y293797D01*
G37*
X307591Y294043D02*
G36*
X307591Y294043D02*
Y79943D01*
X314386D01*
Y294461D01*
Y294461D01*
G75*
G02*
X314857Y295596I1602J0D01*
G01*
X319882Y300620D01*
Y312207D01*
X319712D01*
G75*
G02*
X312757I-3478J0D01*
G01*
X312587D01*
Y300812D01*
G75*
G02*
X312837Y299953I-1352J-859D01*
G01*
G75*
G02*
X312368Y298820I-1602J0D01*
G01*
X307591Y294043D01*
G37*
X317591Y293797D02*
G36*
X317591Y293797D02*
Y79943D01*
X324386D01*
Y294707D01*
Y294707D01*
G75*
G02*
X324857Y295842I1602J0D01*
G01*
X329882Y300867D01*
Y312207D01*
X329712D01*
G75*
G02*
X322757I-3478J0D01*
G01*
X322587D01*
Y300566D01*
G75*
G02*
X322837Y299707I-1352J-859D01*
G01*
G75*
G02*
X322368Y298574I-1602J0D01*
G01*
X317591Y293797D01*
G37*
X327591Y294043D02*
G36*
X327591Y294043D02*
Y79943D01*
X334386D01*
Y294707D01*
Y294707D01*
G75*
G02*
X334857Y295842I1602J0D01*
G01*
X339882Y300867D01*
Y312207D01*
X339712D01*
G75*
G02*
X332757I-3478J0D01*
G01*
X332587D01*
Y300812D01*
G75*
G02*
X332837Y299953I-1352J-859D01*
G01*
G75*
G02*
X332368Y298820I-1602J0D01*
G01*
X327591Y294043D01*
G37*
X337591D02*
G36*
X337591Y294043D02*
Y79943D01*
X344386D01*
Y294707D01*
Y294707D01*
G75*
G02*
X344857Y295842I1602J0D01*
G01*
X349882Y300867D01*
Y312207D01*
X349712D01*
G75*
G02*
X342757I-3478J0D01*
G01*
X342587D01*
Y300812D01*
G75*
G02*
X342837Y299953I-1352J-859D01*
G01*
G75*
G02*
X342368Y298820I-1602J0D01*
G01*
X337591Y294043D01*
G37*
X347591D02*
G36*
X347591Y294043D02*
Y79943D01*
X354386D01*
Y294707D01*
Y294707D01*
G75*
G02*
X354857Y295842I1602J0D01*
G01*
X359882Y300867D01*
Y312207D01*
X359712D01*
G75*
G02*
X352757I-3478J0D01*
G01*
X352587D01*
Y300812D01*
G75*
G02*
X352837Y299953I-1352J-859D01*
G01*
G75*
G02*
X352368Y298820I-1602J0D01*
G01*
X347591Y294043D01*
G37*
X357591D02*
G36*
X357591Y294043D02*
Y79943D01*
X358382D01*
Y112207D01*
Y112207D01*
G75*
G02*
X358854Y113342I1602J0D01*
G01*
X364632Y119120D01*
Y294707D01*
Y294707D01*
G75*
G02*
X365104Y295842I1602J0D01*
G01*
X369882Y300620D01*
Y312207D01*
X369712D01*
G75*
G02*
X362757I-3478J0D01*
G01*
X362587D01*
Y300812D01*
G75*
G02*
X362837Y299953I-1352J-859D01*
G01*
G75*
G02*
X362368Y298820I-1602J0D01*
G01*
X357591Y294043D01*
G37*
X361587Y111543D02*
G36*
X361587Y111543D02*
Y79943D01*
X362132D01*
Y109707D01*
Y109707D01*
G75*
G02*
X362604Y110842I1602J0D01*
G01*
X374632Y122870D01*
Y294707D01*
Y294707D01*
G75*
G02*
X375104Y295842I1602J0D01*
G01*
X379882Y300620D01*
Y312207D01*
X379712D01*
G75*
G02*
X372757I-3478J0D01*
G01*
X372587D01*
Y300566D01*
G75*
G02*
X372837Y299707I-1352J-859D01*
G01*
G75*
G02*
X372368Y298574I-1602J0D01*
G01*
X367837Y294043D01*
Y118457D01*
Y118456D01*
G75*
G02*
X367366Y117322I-1602J0D01*
G01*
X361587Y111543D01*
G37*
X365337Y109043D02*
G36*
X365337Y109043D02*
Y79943D01*
X369640D01*
G75*
G02*
X370616Y80746I6900J-7384D01*
G01*
G75*
G02*
X366593Y88309I5098J7563D01*
G01*
G75*
G02*
X384833I9120J0D01*
G01*
Y88309D01*
G75*
G02*
X381574Y81322I-9120J0D01*
G01*
G75*
G02*
X383439Y79943I-5034J-8760D01*
G01*
X389632D01*
Y295954D01*
Y295956D01*
Y295957D01*
G75*
G02*
X390102Y297090I1603J0D01*
G01*
X393382Y300370D01*
Y312207D01*
X389712D01*
G75*
G02*
X382757I-3478J0D01*
G01*
X382587D01*
Y300566D01*
G75*
G02*
X382837Y299707I-1352J-859D01*
G01*
G75*
G02*
X382368Y298574I-1602J0D01*
G01*
X377837Y294043D01*
Y122207D01*
Y122206D01*
G75*
G02*
X377366Y121072I-1602J0D01*
G01*
X365337Y109043D01*
G37*
X392837Y295293D02*
G36*
X392837Y295293D02*
Y79943D01*
X404735D01*
Y312207D01*
X396587D01*
Y299710D01*
Y299707D01*
Y299707D01*
G75*
G02*
X396118Y298574I-1603J0D01*
G01*
X392837Y295293D01*
G37*
X120587Y318207D02*
G36*
X120587Y318207D02*
G75*
G02*
X118467Y312207I-9552J0D01*
G01*
X142757D01*
G75*
G02*
X146785Y315641I3478J0D01*
G01*
X145111Y317314D01*
G75*
G02*
X144847Y317656I1123J1142D01*
G01*
X143246Y320428D01*
G75*
G02*
X142757Y322207I2989J1778D01*
G01*
X119709D01*
G75*
G02*
X120587Y318207I-8675J-4000D01*
G01*
G37*
X149223Y320428D02*
G36*
X149223Y320428D02*
X148237Y318720D01*
X150957Y316001D01*
Y322207D01*
X149712D01*
Y322206D01*
G75*
G02*
X149223Y320428I-3478J0D01*
G01*
G37*
X171758Y318548D02*
G36*
X171758Y318548D02*
G75*
G03*
X172528Y317778I770J0D01*
G01*
X174024D01*
G75*
G02*
X176730Y316193I1J-3099D01*
G01*
G75*
G02*
X176871Y315654I-956J-539D01*
G01*
G75*
G02*
Y315653I-1302J0D01*
G01*
G75*
G02*
Y315646I-449J-3D01*
G01*
G75*
G02*
X176870Y315626I-467J-1D01*
G01*
G75*
G02*
X179712Y312207I-636J-3419D01*
G01*
X182757D01*
G75*
G02*
X189712I3478J0D01*
G01*
X192757D01*
G75*
G02*
X199712I3478J0D01*
G01*
X199882D01*
Y316293D01*
X198056Y318119D01*
X195392Y318833D01*
G75*
G02*
X192757Y322207I843J3374D01*
G01*
X190110D01*
G75*
G02*
X182359I-3875J0D01*
G01*
X180110D01*
G75*
G02*
X172359I-3875J0D01*
G01*
X171758D01*
Y318548D01*
G37*
X199834Y322207D02*
G36*
X199834Y322207D02*
X200322Y320385D01*
X202368Y318340D01*
G75*
G02*
X202837Y317207I-1133J-1133D01*
G01*
G75*
G02*
X202587Y316347I-1602J0D01*
G01*
Y312207D01*
X202757D01*
G75*
G02*
X209712I3478J0D01*
G01*
X209882D01*
Y316293D01*
X208056Y318119D01*
X205392Y318833D01*
G75*
G02*
X202757Y322207I843J3374D01*
G01*
X199834D01*
G37*
X209834D02*
G36*
X209834Y322207D02*
X210322Y320385D01*
X212368Y318340D01*
G75*
G02*
X212837Y317207I-1133J-1133D01*
G01*
G75*
G02*
X212587Y316347I-1602J0D01*
G01*
Y312207D01*
X212757D01*
G75*
G02*
X219712I3478J0D01*
G01*
X219882D01*
Y316293D01*
X218056Y318119D01*
X215392Y318833D01*
G75*
G02*
X212757Y322207I843J3374D01*
G01*
X209834D01*
G37*
X219834D02*
G36*
X219834Y322207D02*
X220322Y320385D01*
X222368Y318340D01*
G75*
G02*
X222837Y317207I-1133J-1133D01*
G01*
G75*
G02*
X222587Y316347I-1602J0D01*
G01*
Y312207D01*
X222757D01*
G75*
G02*
X229712I3478J0D01*
G01*
X229882D01*
Y316293D01*
X228056Y318119D01*
X225392Y318833D01*
G75*
G02*
X222757Y322207I843J3374D01*
G01*
X219834D01*
G37*
X229834D02*
G36*
X229834Y322207D02*
X230322Y320385D01*
X232368Y318340D01*
G75*
G02*
X232837Y317207I-1133J-1133D01*
G01*
G75*
G02*
X232587Y316347I-1602J0D01*
G01*
Y312207D01*
X232757D01*
G75*
G02*
X239712I3478J0D01*
G01*
X239882D01*
Y316293D01*
X238056Y318119D01*
X235392Y318833D01*
G75*
G02*
X232757Y322207I843J3374D01*
G01*
X229834D01*
G37*
X239834D02*
G36*
X239834Y322207D02*
X240322Y320385D01*
X242368Y318340D01*
G75*
G02*
X242837Y317207I-1133J-1133D01*
G01*
G75*
G02*
X242587Y316347I-1602J0D01*
G01*
Y312207D01*
X242757D01*
G75*
G02*
X249712I3478J0D01*
G01*
X249882D01*
Y316293D01*
X248056Y318119D01*
X245392Y318833D01*
G75*
G02*
X242757Y322207I843J3374D01*
G01*
X239834D01*
G37*
X249834D02*
G36*
X249834Y322207D02*
X250322Y320385D01*
X252368Y318340D01*
G75*
G02*
X252837Y317207I-1133J-1133D01*
G01*
G75*
G02*
X252587Y316347I-1602J0D01*
G01*
Y312207D01*
X252757D01*
G75*
G02*
X259712I3478J0D01*
G01*
X259786D01*
Y317896D01*
X259163Y318519D01*
X256051Y318734D01*
G75*
G02*
X252757Y322207I184J3473D01*
G01*
X249834D01*
G37*
X260106D02*
G36*
X260106Y322207D02*
X260876Y320631D01*
X262094Y319413D01*
G75*
G02*
X262491Y318458I-954J-955D01*
G01*
G75*
G02*
Y318457I-1381J0D01*
G01*
Y312207D01*
X262757D01*
G75*
G02*
X269712I3478J0D01*
G01*
X269882D01*
Y316293D01*
X268056Y318119D01*
X265392Y318833D01*
G75*
G02*
X262757Y322207I843J3374D01*
G01*
X260106D01*
G37*
X269834D02*
G36*
X269834Y322207D02*
X270322Y320385D01*
X272368Y318340D01*
G75*
G02*
X272837Y317207I-1133J-1133D01*
G01*
G75*
G02*
X272587Y316347I-1602J0D01*
G01*
Y312207D01*
X272757D01*
G75*
G02*
X279712I3478J0D01*
G01*
X279882D01*
Y316293D01*
X278056Y318119D01*
X275392Y318833D01*
G75*
G02*
X272757Y322207I843J3374D01*
G01*
X269834D01*
G37*
X279834D02*
G36*
X279834Y322207D02*
X280322Y320385D01*
X282368Y318340D01*
G75*
G02*
X282837Y317207I-1133J-1133D01*
G01*
G75*
G02*
X282587Y316347I-1602J0D01*
G01*
Y312207D01*
X282757D01*
G75*
G02*
X289712I3478J0D01*
G01*
X289882D01*
Y316293D01*
X288056Y318119D01*
X285392Y318833D01*
G75*
G02*
X282757Y322207I843J3374D01*
G01*
X279834D01*
G37*
X289834D02*
G36*
X289834Y322207D02*
X290322Y320385D01*
X292368Y318340D01*
G75*
G02*
X292837Y317207I-1133J-1133D01*
G01*
G75*
G02*
X292587Y316347I-1602J0D01*
G01*
Y312207D01*
X292757D01*
G75*
G02*
X299712I3478J0D01*
G01*
X299882D01*
Y316293D01*
X298056Y318119D01*
X295392Y318833D01*
G75*
G02*
X292757Y322207I843J3374D01*
G01*
X289834D01*
G37*
X299834D02*
G36*
X299834Y322207D02*
X300322Y320385D01*
X302368Y318340D01*
G75*
G02*
X302837Y317207I-1133J-1133D01*
G01*
G75*
G02*
X302587Y316347I-1602J0D01*
G01*
Y312207D01*
X302757D01*
G75*
G02*
X309712I3478J0D01*
G01*
X309882D01*
Y316293D01*
X308056Y318119D01*
X305392Y318833D01*
G75*
G02*
X302757Y322207I843J3374D01*
G01*
X299834D01*
G37*
X309834D02*
G36*
X309834Y322207D02*
X310322Y320385D01*
X312368Y318340D01*
G75*
G02*
X312837Y317207I-1133J-1133D01*
G01*
G75*
G02*
X312587Y316347I-1602J0D01*
G01*
Y312207D01*
X312757D01*
G75*
G02*
X319712I3478J0D01*
G01*
X319882D01*
Y316293D01*
X318056Y318119D01*
X315392Y318833D01*
G75*
G02*
X312757Y322207I843J3374D01*
G01*
X309834D01*
G37*
X319834D02*
G36*
X319834Y322207D02*
X320322Y320385D01*
X322368Y318340D01*
G75*
G02*
X322837Y317207I-1133J-1133D01*
G01*
G75*
G02*
X322587Y316347I-1602J0D01*
G01*
Y312207D01*
X322757D01*
G75*
G02*
X329712I3478J0D01*
G01*
X329882D01*
Y316293D01*
X328056Y318119D01*
X325392Y318833D01*
G75*
G02*
X322757Y322207I843J3374D01*
G01*
X319834D01*
G37*
X329834D02*
G36*
X329834Y322207D02*
X330322Y320385D01*
X332368Y318340D01*
G75*
G02*
X332837Y317207I-1133J-1133D01*
G01*
G75*
G02*
X332587Y316347I-1602J0D01*
G01*
Y312207D01*
X332757D01*
G75*
G02*
X339712I3478J0D01*
G01*
X339882D01*
Y316293D01*
X338056Y318119D01*
X335392Y318833D01*
G75*
G02*
X332757Y322207I843J3374D01*
G01*
X329834D01*
G37*
X339834D02*
G36*
X339834Y322207D02*
X340322Y320385D01*
X342368Y318340D01*
G75*
G02*
X342837Y317207I-1133J-1133D01*
G01*
G75*
G02*
X342587Y316347I-1602J0D01*
G01*
Y312207D01*
X342757D01*
G75*
G02*
X349712I3478J0D01*
G01*
X349882D01*
Y316293D01*
X348056Y318119D01*
X345392Y318833D01*
G75*
G02*
X342757Y322207I843J3374D01*
G01*
X339834D01*
G37*
X349834D02*
G36*
X349834Y322207D02*
X350322Y320385D01*
X352368Y318340D01*
G75*
G02*
X352837Y317207I-1133J-1133D01*
G01*
G75*
G02*
X352587Y316347I-1602J0D01*
G01*
Y312207D01*
X352757D01*
G75*
G02*
X359712I3478J0D01*
G01*
X359882D01*
Y316293D01*
X358056Y318119D01*
X355392Y318833D01*
G75*
G02*
X352757Y322207I843J3374D01*
G01*
X349834D01*
G37*
X359834D02*
G36*
X359834Y322207D02*
X360322Y320385D01*
X362368Y318340D01*
G75*
G02*
X362837Y317207I-1133J-1133D01*
G01*
G75*
G02*
X362587Y316347I-1602J0D01*
G01*
Y312207D01*
X362757D01*
G75*
G02*
X369712I3478J0D01*
G01*
X369882D01*
Y316293D01*
X368056Y318119D01*
X365392Y318833D01*
G75*
G02*
X362757Y322207I843J3374D01*
G01*
X359834D01*
G37*
X369834D02*
G36*
X369834Y322207D02*
X370322Y320385D01*
X372368Y318340D01*
G75*
G02*
X372837Y317207I-1133J-1133D01*
G01*
G75*
G02*
X372587Y316347I-1602J0D01*
G01*
Y312207D01*
X372757D01*
G75*
G02*
X379712I3478J0D01*
G01*
X379882D01*
Y316293D01*
X378056Y318119D01*
X375392Y318833D01*
G75*
G02*
X372757Y322207I843J3374D01*
G01*
X369834D01*
G37*
X379834D02*
G36*
X379834Y322207D02*
X380322Y320385D01*
X382368Y318340D01*
G75*
G02*
X382837Y317207I-1133J-1133D01*
G01*
G75*
G02*
X382587Y316347I-1602J0D01*
G01*
Y312207D01*
X382757D01*
G75*
G02*
X389712I3478J0D01*
G01*
X393382D01*
Y312793D01*
X389676Y316499D01*
X383945Y318034D01*
G75*
G02*
X383003Y318729I415J1548D01*
G01*
X382757D01*
Y322207D01*
X379834D01*
G37*
X391021D02*
G36*
X391021Y322207D02*
X391943Y318764D01*
X396116Y314592D01*
G75*
G02*
X396587Y313457I-1130J-1135D01*
G01*
Y313457D01*
Y312207D01*
X404735D01*
Y322207D01*
X391021D01*
G37*
X105235Y346987D02*
G36*
X105235Y346987D02*
Y325796D01*
G75*
G02*
X119709Y322207I5800J-7590D01*
G01*
X142757D01*
G75*
G02*
X146235Y325684I3478J0D01*
G01*
G75*
G02*
X149712Y322207I0J-3478D01*
G01*
X150957D01*
Y325635D01*
G75*
G02*
X153630Y328309I2675J-1D01*
G01*
X168860D01*
G75*
G02*
X171758Y325413I0J-2898D01*
G01*
Y322207D01*
X172359D01*
G75*
G02*
X180110I3875J0D01*
G01*
X182359D01*
G75*
G02*
X190110I3875J0D01*
G01*
X192757D01*
G75*
G02*
X196235Y325684I3478J0D01*
G01*
G75*
G02*
X199609Y323049I0J-3477D01*
G01*
X199834Y322207D01*
X202757D01*
G75*
G02*
X206235Y325684I3478J0D01*
G01*
G75*
G02*
X209609Y323049I0J-3477D01*
G01*
X209834Y322207D01*
X212757D01*
G75*
G02*
X216235Y325684I3478J0D01*
G01*
G75*
G02*
X219609Y323049I0J-3477D01*
G01*
X219834Y322207D01*
X222757D01*
G75*
G02*
X226235Y325684I3478J0D01*
G01*
G75*
G02*
X229609Y323049I0J-3477D01*
G01*
X229834Y322207D01*
X232757D01*
G75*
G02*
X236235Y325684I3478J0D01*
G01*
G75*
G02*
X239609Y323049I0J-3477D01*
G01*
X239834Y322207D01*
X242757D01*
G75*
G02*
X246235Y325684I3478J0D01*
G01*
G75*
G02*
X249609Y323049I0J-3477D01*
G01*
X249834Y322207D01*
X252757D01*
G75*
G02*
X256235Y325684I3478J0D01*
G01*
G75*
G02*
X259382Y323685I0J-3477D01*
G01*
X260106Y322207D01*
X262757D01*
G75*
G02*
X266235Y325684I3478J0D01*
G01*
G75*
G02*
X269609Y323049I0J-3477D01*
G01*
X269834Y322207D01*
X272757D01*
G75*
G02*
X276235Y325684I3478J0D01*
G01*
G75*
G02*
X279609Y323049I0J-3477D01*
G01*
X279834Y322207D01*
X282757D01*
G75*
G02*
X286235Y325684I3478J0D01*
G01*
G75*
G02*
X289609Y323049I0J-3477D01*
G01*
X289834Y322207D01*
X292757D01*
G75*
G02*
X296235Y325684I3478J0D01*
G01*
G75*
G02*
X299609Y323049I0J-3477D01*
G01*
X299834Y322207D01*
X302757D01*
G75*
G02*
X306235Y325684I3478J0D01*
G01*
G75*
G02*
X309609Y323049I0J-3477D01*
G01*
X309834Y322207D01*
X312757D01*
G75*
G02*
X316235Y325684I3478J0D01*
G01*
G75*
G02*
X319609Y323049I0J-3477D01*
G01*
X319834Y322207D01*
X322757D01*
G75*
G02*
X326235Y325684I3478J0D01*
G01*
G75*
G02*
X329609Y323049I0J-3477D01*
G01*
X329834Y322207D01*
X332757D01*
G75*
G02*
X336235Y325684I3478J0D01*
G01*
G75*
G02*
X339609Y323049I0J-3477D01*
G01*
X339834Y322207D01*
X342757D01*
G75*
G02*
X346235Y325684I3478J0D01*
G01*
G75*
G02*
X349609Y323049I0J-3477D01*
G01*
X349834Y322207D01*
X352757D01*
G75*
G02*
X356235Y325684I3478J0D01*
G01*
G75*
G02*
X359609Y323049I0J-3477D01*
G01*
X359834Y322207D01*
X362757D01*
G75*
G02*
X366235Y325684I3478J0D01*
G01*
G75*
G02*
X369609Y323049I0J-3477D01*
G01*
X369834Y322207D01*
X372757D01*
G75*
G02*
X376235Y325684I3478J0D01*
G01*
G75*
G02*
X379609Y323049I0J-3477D01*
G01*
X379834Y322207D01*
X382757D01*
Y325684D01*
X389712D01*
Y325439D01*
G75*
G02*
X390407Y324496I-853J-1357D01*
G01*
X391021Y322207D01*
X404735D01*
Y347046D01*
G75*
G03*
X403574Y348207I-2250J-1090D01*
G01*
X106454D01*
G75*
G03*
X105235Y346987I1107J-2327D01*
G01*
G37*
X137172Y228457D02*
Y225957D01*
X139360Y228144D01*
X139985Y228457D01*
X140610Y228144D01*
X140922Y227519D01*
Y226582D01*
X140610Y225957D01*
X137485Y231269D02*
X137172Y231894D01*
Y232519D01*
X137485Y233144D01*
X138110Y233457D01*
X139985D01*
X140610Y233144D01*
X140922Y232519D01*
Y231894D01*
X140610Y231269D01*
X139985Y230957D01*
X138110D01*
X137485Y231269D01*
X140610Y233144D01*
X137172Y238457D02*
Y235957D01*
X139360Y238144D01*
X139985Y238457D01*
X140610Y238144D01*
X140922Y237519D01*
Y236582D01*
X140610Y235957D01*
X137172Y241582D02*
Y242832D01*
Y242207D02*
X140922D01*
X140297Y241582D01*
X137172Y245957D02*
X140922Y249082D01*
X137485Y251269D02*
X137172Y251894D01*
Y252519D01*
X137485Y253144D01*
X138110Y253457D01*
X139985D01*
X140610Y253144D01*
X140922Y252519D01*
Y251894D01*
X140610Y251269D01*
X139985Y250957D01*
X138110D01*
X137485Y251269D01*
X140610Y253144D01*
X137172Y255957D02*
X140922Y258457D01*
Y255957D01*
X137172Y265957D02*
X140922D01*
Y268144D01*
X140610Y268769D01*
X139985Y269082D01*
X139360Y268769D01*
X139047Y268144D01*
Y265957D01*
Y268144D02*
X137172Y269082D01*
X137485Y273457D02*
X137172Y273144D01*
Y272519D01*
Y271894D01*
X137485Y271269D01*
X138110Y270957D01*
X139047D01*
X139360Y271269D01*
X139672Y271894D01*
Y272519D01*
X139360Y273144D01*
X139047Y273457D01*
X138735D01*
X138422Y273144D01*
X138110Y272519D01*
Y271894D01*
X138422Y271269D01*
X138735Y270957D01*
X139672Y275957D02*
X137172Y277207D01*
X139672Y278457D01*
X137172Y282519D02*
X137485Y282832D01*
X137797Y282519D01*
X137485Y282207D01*
X137172Y282519D01*
X138735D02*
X139047Y282832D01*
X139360Y282519D01*
X139047Y282207D01*
X138735Y282519D01*
X137172Y285957D02*
X140922Y287519D01*
X137172Y289082D01*
X138735Y286582D02*
Y288457D01*
X139985Y80970D02*
Y79473D01*
X147120Y72338D01*
G75*
G02*
X147591Y71203I-1131J-1135D01*
G01*
Y50957D01*
X172636D01*
Y68396D01*
G75*
G02*
Y68424I3333J14D01*
G01*
G75*
G02*
X173618Y70794I3352J0D01*
G01*
X173651Y70827D01*
G75*
G02*
X176022Y71809I2370J-2370D01*
G01*
Y308736D01*
G75*
G02*
X175768Y315653I213J3471D01*
G01*
G75*
G03*
X174025Y316676I-1743J-974D01*
G01*
X172527D01*
G75*
G02*
X170655Y318548I0J1872D01*
G01*
Y325412D01*
G75*
G03*
X168860Y327207I-1795J0D01*
G01*
X153631D01*
G75*
G03*
X152059Y325635I0J-1572D01*
G01*
Y315957D01*
G75*
G03*
X152251Y314706I4176J0D01*
G01*
X152366Y314592D01*
G75*
G02*
X152835Y313533I-1131J-1135D01*
G01*
G75*
G03*
X152957Y313370I3404J2430D01*
G01*
G75*
G02*
X159587Y311282I3277J-1163D01*
G01*
Y212207D01*
G75*
G02*
X158602Y209833I-3352J0D01*
G01*
X143337Y194568D01*
Y87099D01*
X158356Y72080D01*
G75*
G02*
X159341Y69707I-2368J-2373D01*
G01*
Y68661D01*
G75*
G02*
X159643Y67207I-3353J-1455D01*
G01*
G75*
G02*
X152334I-3654J0D01*
G01*
G75*
G02*
X152540Y68415I3654J0D01*
G01*
X139985Y80970D01*
X162359Y322207D02*
G75*
G02*
X170110I3875J0D01*
G01*
G75*
G02*
X162359I-3875J0D01*
G01*
X162757Y312207D02*
G75*
G02*
X169712I3478J0D01*
G01*
G75*
G02*
X162757I-3478J0D01*
G01*
X152359Y322207D02*
G75*
G02*
X160110I3875J0D01*
G01*
G75*
G02*
X152359I-3875J0D01*
G01*
X160750Y100054D02*
G75*
G02*
X165542Y91459I-5313J-8595D01*
G01*
G75*
G02*
X145333I-10104J0D01*
G01*
G75*
G02*
X151009Y100541I10104J0D01*
G01*
G75*
G02*
X147144Y107994I5256J7454D01*
G01*
G75*
G02*
X165384I9120J0D01*
G01*
G75*
G02*
X160750Y100054I-9120J0D01*
G01*
X140235Y80720D02*
G36*
X140235Y80720D02*
Y79223D01*
X147120Y72338D01*
G75*
G02*
X147591Y71203I-1130J-1135D01*
G01*
Y71203D01*
Y51207D01*
X172636D01*
Y68396D01*
Y68424D01*
G75*
G02*
X173618Y70794I3351J1D01*
G01*
X173651Y70827D01*
G75*
G02*
X175772Y71800I2370J-2369D01*
G01*
Y99234D01*
X161890D01*
G75*
G02*
X165542Y91459I-6452J-7775D01*
G01*
Y91459D01*
G75*
G02*
X145333I-10104J0D01*
G01*
Y91459D01*
G75*
G02*
X148985Y99234I10104J0D01*
G01*
X143337D01*
Y87099D01*
X158356Y72080D01*
G75*
G02*
X159341Y69707I-2368J-2373D01*
G01*
Y68661D01*
G75*
G02*
X159643Y67207I-3357J-1456D01*
G01*
G75*
G02*
X152334I-3654J0D01*
G01*
G75*
G02*
Y67209I3759J1D01*
G01*
G75*
G02*
X152540Y68415I3641J0D01*
G01*
X140235Y80720D01*
G37*
X143337Y194568D02*
G36*
X143337Y194568D02*
Y99234D01*
X148985D01*
G75*
G02*
X151009Y100541I6452J-7776D01*
G01*
G75*
G02*
X147144Y107994I5256J7454D01*
G01*
G75*
G02*
X165384I9120J0D01*
G01*
G75*
G02*
X160750Y100054I-9120J0D01*
G01*
G75*
G02*
X161890Y99234I-5313J-8596D01*
G01*
X175772D01*
Y308760D01*
G75*
G02*
X172757Y312207I463J3446D01*
G01*
X169712D01*
G75*
G02*
X162757I-3478J0D01*
G01*
X159712D01*
G75*
G02*
X159587Y311282I-3478J0D01*
G01*
Y212207D01*
G75*
G02*
X158602Y209833I-3352J0D01*
G01*
X143337Y194568D01*
G37*
X152059Y322207D02*
G36*
X152059Y322207D02*
Y315957D01*
G75*
G03*
X152251Y314706I4194J3D01*
G01*
X152366Y314592D01*
G75*
G02*
X152835Y313533I-1128J-1133D01*
G01*
G75*
G03*
X152957Y313370I3358J2395D01*
G01*
G75*
G02*
X159712Y312207I3277J-1163D01*
G01*
X162757D01*
G75*
G02*
X169712I3478J0D01*
G01*
X172757D01*
G75*
G02*
X175768Y315653I3478J0D01*
G01*
G75*
G03*
X174025Y316676I-1743J-973D01*
G01*
X172527D01*
G75*
G02*
X170655Y318548I0J1872D01*
G01*
Y322207D01*
X170110D01*
G75*
G02*
X162359I-3875J0D01*
G01*
X160110D01*
G75*
G02*
X152359I-3875J0D01*
G01*
X152059D01*
G37*
Y325635D02*
G36*
X152059Y325635D02*
Y322207D01*
X152359D01*
G75*
G02*
X160110I3875J0D01*
G01*
X162359D01*
G75*
G02*
X170110I3875J0D01*
G01*
X170655D01*
Y325412D01*
Y325412D01*
G75*
G03*
X169774Y326957I-1794J0D01*
G01*
X152780D01*
G75*
G03*
X152059Y325635I850J-1321D01*
G01*
Y325635D01*
G37*
X142450Y9569D02*
G75*
G02*
X137170Y14849I0J5280D01*
G01*
Y57207D01*
X112485D01*
G75*
G02*
X107485Y62207I0J5000D01*
G01*
Y102207D01*
G75*
G03*
X102485Y107207I-5000J0D01*
G01*
X63735D01*
G75*
G02*
X57485Y113457I0J6250D01*
G01*
Y344707D01*
G75*
G02*
X63735Y350957I6250J0D01*
G01*
X436235D01*
G75*
G02*
X442485Y344707I0J-6250D01*
G01*
Y59707D01*
G75*
G02*
X439985Y57207I-2500J0D01*
G01*
X394807D01*
Y15066D01*
G75*
G02*
X389310Y9569I-5497J0D01*
G01*
X142450D01*
D02*
D86*
X154732Y320704D02*
X153318Y319290D01*
X154732Y323709D02*
X153318Y325124D01*
X157737Y320704D02*
X159152Y319290D01*
X157737Y323709D02*
X159152Y325124D01*
X164109Y322207D02*
X162109D01*
X166235Y320081D02*
Y318081D01*
Y324332D02*
Y326332D01*
X168360Y322207D02*
X170360D01*
X174109D02*
X172109D01*
X176235Y320081D02*
Y318081D01*
Y324332D02*
Y326332D01*
X178360Y322207D02*
X180360D01*
X184109D02*
X182109D01*
X186235Y320081D02*
Y318081D01*
Y324332D02*
Y326332D01*
X188360Y322207D02*
X190360D01*
X201235Y299953D02*
Y317207D01*
X211235D02*
Y299707D01*
X221235Y317207D02*
Y299707D01*
X231235Y317207D02*
Y299707D01*
X241235Y317207D02*
Y299707D01*
X251235Y299953D02*
Y317207D01*
X256235Y322207D02*
X257387D01*
X261137Y318457D01*
Y299707D01*
X255989Y294558D01*
X259760Y319834D02*
X256089Y320087D01*
G75*
G03*
X258143Y323140I146J2120D01*
G01*
X259760Y319834D01*
G36*
X259760Y319834D02*
X256089Y320087D01*
G75*
G03*
X258143Y323140I146J2120D01*
G01*
X259760Y319834D01*
G37*
X271235Y317207D02*
Y299461D01*
X281235Y299953D02*
Y317207D01*
X291235Y299953D02*
Y317207D01*
X301235D02*
Y299707D01*
X311235Y299953D02*
Y317207D01*
X321235D02*
Y299707D01*
X331235Y299953D02*
Y317207D01*
X341235Y299953D02*
Y317207D01*
X351235Y299953D02*
Y317207D01*
X361235Y299953D02*
Y317207D01*
X371235D02*
Y299707D01*
X381235D02*
Y317207D01*
D02*
D88*
X146235Y312207D02*
Y217207D01*
X129985Y200957D01*
Y78457D01*
X137485Y70957D01*
Y68457D01*
X155989Y50799D02*
X155142Y49333D01*
X156835D01*
X155989Y50799D01*
G36*
X155989Y50799D02*
X155142Y49333D01*
X156835D01*
X155989Y50799D01*
G37*
X156235Y312207D02*
Y212207D01*
X139985Y195957D01*
Y85711D01*
X155989Y69707D01*
Y67207D01*
X165989Y31616D02*
Y58457D01*
X155989D01*
Y31616D01*
X165989Y50799D02*
X165142Y49333D01*
X166835D01*
X165989Y50799D01*
G36*
X165989Y50799D02*
X165142Y49333D01*
X166835D01*
X165989Y50799D01*
G37*
X175989Y31616D02*
Y68424D01*
X176022Y68457D01*
X185989Y31616D02*
Y64953D01*
X182485Y68457D01*
X185989Y50799D02*
X185142Y49333D01*
X186835D01*
X185989Y50799D01*
G36*
X185989Y50799D02*
X185142Y49333D01*
X186835D01*
X185989Y50799D01*
G37*
D02*
D89*
X145989Y31616D02*
Y71203D01*
X134985Y82207D01*
Y198457D01*
X151235Y214707D01*
Y313457D01*
X146235Y318457D01*
Y322207D01*
Y318457D02*
X144611Y321269D01*
G75*
G03*
X147858I1624J937D01*
G01*
X146235Y318457D01*
G36*
X146235Y318457D02*
X144611Y321269D01*
G75*
G03*
X147858I1624J937D01*
G01*
X146235Y318457D01*
G37*
X195989Y31616D02*
Y294707D01*
X201235Y299953D01*
X195989Y53830D02*
X193392Y49333D01*
X198585D01*
X195989Y53830D01*
G36*
X195989Y53830D02*
X193392Y49333D01*
X198585D01*
X195989Y53830D01*
G37*
X198886Y319556D02*
X195750Y320396D01*
G75*
G03*
X198046Y322692I485J1811D01*
G01*
X198886Y319556D01*
G36*
X198886Y319556D02*
X195750Y320396D01*
G75*
G03*
X198046Y322692I485J1811D01*
G01*
X198886Y319556D01*
G37*
X201235Y317207D02*
X196235Y322207D01*
X205989Y53830D02*
X203392Y49333D01*
X208585D01*
X205989Y53830D01*
G36*
X205989Y53830D02*
X203392Y49333D01*
X208585D01*
X205989Y53830D01*
G37*
X206235Y322207D02*
X211235Y317207D01*
X208886Y319556D02*
X205750Y320396D01*
G75*
G03*
X208046Y322692I485J1811D01*
G01*
X208886Y319556D01*
G36*
X208886Y319556D02*
X205750Y320396D01*
G75*
G03*
X208046Y322692I485J1811D01*
G01*
X208886Y319556D01*
G37*
X211235Y299707D02*
X205989Y294461D01*
Y31616D01*
X215989Y53830D02*
X213392Y49333D01*
X218585D01*
X215989Y53830D01*
G36*
X215989Y53830D02*
X213392Y49333D01*
X218585D01*
X215989Y53830D01*
G37*
X216235Y322207D02*
X221235Y317207D01*
X218886Y319556D02*
X215750Y320396D01*
G75*
G03*
X218046Y322692I485J1811D01*
G01*
X218886Y319556D01*
G36*
X218886Y319556D02*
X215750Y320396D01*
G75*
G03*
X218046Y322692I485J1811D01*
G01*
X218886Y319556D01*
G37*
X221235Y299707D02*
X215989Y294461D01*
Y31616D01*
X225989Y53830D02*
X223392Y49333D01*
X228585D01*
X225989Y53830D01*
G36*
X225989Y53830D02*
X223392Y49333D01*
X228585D01*
X225989Y53830D01*
G37*
X226235Y322207D02*
X231235Y317207D01*
X228886Y319556D02*
X225750Y320396D01*
G75*
G03*
X228046Y322692I485J1811D01*
G01*
X228886Y319556D01*
G36*
X228886Y319556D02*
X225750Y320396D01*
G75*
G03*
X228046Y322692I485J1811D01*
G01*
X228886Y319556D01*
G37*
X231235Y299707D02*
X225989Y294461D01*
Y31616D01*
X235989Y53830D02*
X233392Y49333D01*
X238585D01*
X235989Y53830D01*
G36*
X235989Y53830D02*
X233392Y49333D01*
X238585D01*
X235989Y53830D01*
G37*
X236235Y322207D02*
X241235Y317207D01*
X238886Y319556D02*
X235750Y320396D01*
G75*
G03*
X238046Y322692I485J1811D01*
G01*
X238886Y319556D01*
G36*
X238886Y319556D02*
X235750Y320396D01*
G75*
G03*
X238046Y322692I485J1811D01*
G01*
X238886Y319556D01*
G37*
X241235Y299707D02*
X235989Y294461D01*
Y31616D01*
X245989D02*
Y294707D01*
X251235Y299953D01*
X245989Y53830D02*
X243392Y49333D01*
X248585D01*
X245989Y53830D01*
G36*
X245989Y53830D02*
X243392Y49333D01*
X248585D01*
X245989Y53830D01*
G37*
X248886Y319556D02*
X245750Y320396D01*
G75*
G03*
X248046Y322692I485J1811D01*
G01*
X248886Y319556D01*
G36*
X248886Y319556D02*
X245750Y320396D01*
G75*
G03*
X248046Y322692I485J1811D01*
G01*
X248886Y319556D01*
G37*
X251235Y317207D02*
X246235Y322207D01*
X255989Y53830D02*
X253392Y49333D01*
X258585D01*
X255989Y53830D01*
G36*
X255989Y53830D02*
X253392Y49333D01*
X258585D01*
X255989Y53830D01*
G37*
Y294558D02*
Y31616D01*
X265989Y53830D02*
X263392Y49333D01*
X268585D01*
X265989Y53830D01*
G36*
X265989Y53830D02*
X263392Y49333D01*
X268585D01*
X265989Y53830D01*
G37*
X266235Y322207D02*
X271235Y317207D01*
X268886Y319556D02*
X265750Y320396D01*
G75*
G03*
X268046Y322692I485J1811D01*
G01*
X268886Y319556D01*
G36*
X268886Y319556D02*
X265750Y320396D01*
G75*
G03*
X268046Y322692I485J1811D01*
G01*
X268886Y319556D01*
G37*
X271235Y299461D02*
X265989Y294215D01*
Y31616D01*
X275989D02*
Y294707D01*
X281235Y299953D01*
X275989Y53830D02*
X273392Y49333D01*
X278585D01*
X275989Y53830D01*
G36*
X275989Y53830D02*
X273392Y49333D01*
X278585D01*
X275989Y53830D01*
G37*
X278886Y319556D02*
X275750Y320396D01*
G75*
G03*
X278046Y322692I485J1811D01*
G01*
X278886Y319556D01*
G36*
X278886Y319556D02*
X275750Y320396D01*
G75*
G03*
X278046Y322692I485J1811D01*
G01*
X278886Y319556D01*
G37*
X281235Y317207D02*
X276235Y322207D01*
X285989Y31616D02*
Y294707D01*
X291235Y299953D01*
X285989Y53830D02*
X283392Y49333D01*
X288585D01*
X285989Y53830D01*
G36*
X285989Y53830D02*
X283392Y49333D01*
X288585D01*
X285989Y53830D01*
G37*
X288886Y319556D02*
X285750Y320396D01*
G75*
G03*
X288046Y322692I485J1811D01*
G01*
X288886Y319556D01*
G36*
X288886Y319556D02*
X285750Y320396D01*
G75*
G03*
X288046Y322692I485J1811D01*
G01*
X288886Y319556D01*
G37*
X291235Y317207D02*
X286235Y322207D01*
X295989Y53830D02*
X293392Y49333D01*
X298585D01*
X295989Y53830D01*
G36*
X295989Y53830D02*
X293392Y49333D01*
X298585D01*
X295989Y53830D01*
G37*
X296235Y322207D02*
X301235Y317207D01*
X298886Y319556D02*
X295750Y320396D01*
G75*
G03*
X298046Y322692I485J1811D01*
G01*
X298886Y319556D01*
G36*
X298886Y319556D02*
X295750Y320396D01*
G75*
G03*
X298046Y322692I485J1811D01*
G01*
X298886Y319556D01*
G37*
X301235Y299707D02*
X295989Y294461D01*
Y31616D01*
X305989D02*
Y294707D01*
X311235Y299953D01*
X305989Y53830D02*
X303392Y49333D01*
X308585D01*
X305989Y53830D01*
G36*
X305989Y53830D02*
X303392Y49333D01*
X308585D01*
X305989Y53830D01*
G37*
X308886Y319556D02*
X305750Y320396D01*
G75*
G03*
X308046Y322692I485J1811D01*
G01*
X308886Y319556D01*
G36*
X308886Y319556D02*
X305750Y320396D01*
G75*
G03*
X308046Y322692I485J1811D01*
G01*
X308886Y319556D01*
G37*
X311235Y317207D02*
X306235Y322207D01*
X315989Y53830D02*
X313392Y49333D01*
X318585D01*
X315989Y53830D01*
G36*
X315989Y53830D02*
X313392Y49333D01*
X318585D01*
X315989Y53830D01*
G37*
X316235Y322207D02*
X321235Y317207D01*
X318886Y319556D02*
X315750Y320396D01*
G75*
G03*
X318046Y322692I485J1811D01*
G01*
X318886Y319556D01*
G36*
X318886Y319556D02*
X315750Y320396D01*
G75*
G03*
X318046Y322692I485J1811D01*
G01*
X318886Y319556D01*
G37*
X321235Y299707D02*
X315989Y294461D01*
Y31616D01*
X325989D02*
Y294707D01*
X331235Y299953D01*
X325989Y53830D02*
X323392Y49333D01*
X328585D01*
X325989Y53830D01*
G36*
X325989Y53830D02*
X323392Y49333D01*
X328585D01*
X325989Y53830D01*
G37*
X328886Y319556D02*
X325750Y320396D01*
G75*
G03*
X328046Y322692I485J1811D01*
G01*
X328886Y319556D01*
G36*
X328886Y319556D02*
X325750Y320396D01*
G75*
G03*
X328046Y322692I485J1811D01*
G01*
X328886Y319556D01*
G37*
X331235Y317207D02*
X326235Y322207D01*
X335989Y31616D02*
Y294707D01*
X341235Y299953D01*
X335989Y53830D02*
X333392Y49333D01*
X338585D01*
X335989Y53830D01*
G36*
X335989Y53830D02*
X333392Y49333D01*
X338585D01*
X335989Y53830D01*
G37*
X338886Y319556D02*
X335750Y320396D01*
G75*
G03*
X338046Y322692I485J1811D01*
G01*
X338886Y319556D01*
G36*
X338886Y319556D02*
X335750Y320396D01*
G75*
G03*
X338046Y322692I485J1811D01*
G01*
X338886Y319556D01*
G37*
X341235Y317207D02*
X336235Y322207D01*
X345989Y31616D02*
Y294707D01*
X351235Y299953D01*
X345989Y53830D02*
X343392Y49333D01*
X348585D01*
X345989Y53830D01*
G36*
X345989Y53830D02*
X343392Y49333D01*
X348585D01*
X345989Y53830D01*
G37*
X348886Y319556D02*
X345750Y320396D01*
G75*
G03*
X348046Y322692I485J1811D01*
G01*
X348886Y319556D01*
G36*
X348886Y319556D02*
X345750Y320396D01*
G75*
G03*
X348046Y322692I485J1811D01*
G01*
X348886Y319556D01*
G37*
X351235Y317207D02*
X346235Y322207D01*
X355989Y31616D02*
Y294707D01*
X361235Y299953D01*
X355989Y53830D02*
X353392Y49333D01*
X358585D01*
X355989Y53830D01*
G36*
X355989Y53830D02*
X353392Y49333D01*
X358585D01*
X355989Y53830D01*
G37*
X358886Y319556D02*
X355750Y320396D01*
G75*
G03*
X358046Y322692I485J1811D01*
G01*
X358886Y319556D01*
G36*
X358886Y319556D02*
X355750Y320396D01*
G75*
G03*
X358046Y322692I485J1811D01*
G01*
X358886Y319556D01*
G37*
X361235Y317207D02*
X356235Y322207D01*
X365989Y53830D02*
X363392Y49333D01*
X368585D01*
X365989Y53830D01*
G36*
X365989Y53830D02*
X363392Y49333D01*
X368585D01*
X365989Y53830D01*
G37*
X366235Y322207D02*
X371235Y317207D01*
X368886Y319556D02*
X365750Y320396D01*
G75*
G03*
X368046Y322692I485J1811D01*
G01*
X368886Y319556D01*
G36*
X368886Y319556D02*
X365750Y320396D01*
G75*
G03*
X368046Y322692I485J1811D01*
G01*
X368886Y319556D01*
G37*
X371235Y299707D02*
X366235Y294707D01*
Y118457D01*
X359985Y112207D01*
Y62207D01*
X365989Y56203D01*
Y31616D01*
X375989D02*
Y57453D01*
X372485Y60957D01*
X367485D01*
X363735Y64707D01*
Y109707D01*
X376235Y122207D01*
Y294707D01*
X381235Y299707D01*
X375989Y53830D02*
X373392Y49333D01*
X378585D01*
X375989Y53830D01*
G36*
X375989Y53830D02*
X373392Y49333D01*
X378585D01*
X375989Y53830D01*
G37*
X378886Y319556D02*
X375750Y320396D01*
G75*
G03*
X378046Y322692I485J1811D01*
G01*
X378886Y319556D01*
G36*
X378886Y319556D02*
X375750Y320396D01*
G75*
G03*
X378046Y322692I485J1811D01*
G01*
X378886Y319556D01*
G37*
X381235Y317207D02*
X376235Y322207D01*
X385989Y31616D02*
Y55711D01*
X391235Y60957D01*
Y295957D01*
X394985Y299707D01*
Y313457D01*
X386235Y322207D01*
X385989Y53830D02*
X383392Y49333D01*
X388585D01*
X385989Y53830D01*
G36*
X385989Y53830D02*
X383392Y49333D01*
X388585D01*
X385989Y53830D01*
G37*
X390507Y317935D02*
X388860Y324082D01*
X384359Y319581D01*
X390507Y317935D01*
G36*
X390507Y317935D02*
X388860Y324082D01*
X384359Y319581D01*
X390507Y317935D01*
G37*
D02*
D92*
X122485Y67207D03*
Y107207D03*
Y157207D03*
Y207207D03*
Y257207D03*
Y307207D03*
Y344707D03*
X159985D03*
X176022Y68457D03*
X182485D03*
Y107207D03*
Y157207D03*
Y207207D03*
Y257207D03*
Y304707D03*
X201235Y107207D03*
Y157207D03*
Y207207D03*
Y257207D03*
X202485Y344707D03*
X211235Y82207D03*
Y132207D03*
Y182207D03*
Y232207D03*
X219985Y107207D03*
Y157207D03*
Y207207D03*
Y257207D03*
X231235Y82207D03*
Y132207D03*
Y182207D03*
Y232207D03*
X241235Y107207D03*
Y157207D03*
Y207207D03*
Y257207D03*
X251235Y82207D03*
Y132207D03*
Y182207D03*
Y232207D03*
X252485Y344707D03*
X261235Y107207D03*
Y157207D03*
Y207207D03*
Y257207D03*
X271235Y82207D03*
Y132207D03*
Y182207D03*
Y232207D03*
X281235Y107207D03*
Y157207D03*
Y207207D03*
Y257207D03*
X291235Y82207D03*
Y132207D03*
Y182207D03*
Y232207D03*
X301235Y107207D03*
Y157207D03*
Y207207D03*
Y257207D03*
X302485Y344707D03*
X311235Y82207D03*
Y132207D03*
Y182207D03*
Y232207D03*
X321235Y107207D03*
Y157207D03*
Y207207D03*
Y257207D03*
X331235Y82207D03*
Y132207D03*
Y182207D03*
Y232207D03*
X341235Y107207D03*
Y157207D03*
Y207207D03*
Y257207D03*
X351235Y82207D03*
Y132207D03*
Y182207D03*
Y232207D03*
X352485Y344707D03*
X361235Y157207D03*
Y207207D03*
Y257207D03*
X371235Y132207D03*
Y182207D03*
Y232207D03*
X383735Y107207D03*
Y157207D03*
Y207207D03*
Y257207D03*
X396235Y344707D03*
X397485Y65957D03*
Y107207D03*
Y157207D03*
Y207207D03*
Y257207D03*
D02*
D93*
X67485Y117207D03*
Y127207D03*
Y137207D03*
Y147207D03*
Y157207D03*
Y167207D03*
Y177207D03*
Y187207D03*
Y197207D03*
Y207207D03*
Y217207D03*
Y227207D03*
Y237207D03*
Y247207D03*
Y257207D03*
Y267207D03*
Y277207D03*
Y287207D03*
Y297207D03*
Y307207D03*
Y317207D03*
Y327207D03*
X77485Y117207D03*
Y127207D03*
Y137207D03*
Y147207D03*
Y157207D03*
Y167207D03*
Y177207D03*
Y187207D03*
Y197207D03*
Y207207D03*
Y217207D03*
Y227207D03*
Y237207D03*
Y247207D03*
Y257207D03*
Y267207D03*
Y277207D03*
Y287207D03*
Y297207D03*
Y307207D03*
Y317207D03*
Y327207D03*
X87485Y117207D03*
Y127207D03*
Y137207D03*
Y147207D03*
Y157207D03*
Y167207D03*
Y177207D03*
Y187207D03*
Y197207D03*
Y207207D03*
Y217207D03*
Y227207D03*
Y237207D03*
Y247207D03*
Y257207D03*
Y267207D03*
Y277207D03*
Y287207D03*
Y297207D03*
Y307207D03*
Y317207D03*
Y327207D03*
X97485Y117207D03*
Y127207D03*
Y137207D03*
Y147207D03*
Y157207D03*
Y167207D03*
Y177207D03*
Y187207D03*
Y197207D03*
Y207207D03*
Y217207D03*
Y227207D03*
Y237207D03*
Y247207D03*
Y257207D03*
Y267207D03*
Y277207D03*
Y287207D03*
Y297207D03*
Y307207D03*
Y317207D03*
Y327207D03*
X412485Y67207D03*
Y77207D03*
Y87207D03*
Y97207D03*
Y107207D03*
Y117207D03*
Y127207D03*
Y137207D03*
Y147207D03*
Y157207D03*
Y167207D03*
Y177207D03*
Y187207D03*
Y197207D03*
Y207207D03*
Y217207D03*
Y227207D03*
Y237207D03*
Y247207D03*
Y257207D03*
Y267207D03*
Y277207D03*
Y287207D03*
Y297207D03*
X422485Y67207D03*
Y77207D03*
Y87207D03*
Y97207D03*
Y107207D03*
Y117207D03*
Y127207D03*
Y137207D03*
Y147207D03*
Y157207D03*
Y167207D03*
Y177207D03*
Y187207D03*
Y197207D03*
Y207207D03*
Y217207D03*
Y227207D03*
Y237207D03*
Y247207D03*
Y257207D03*
Y267207D03*
Y277207D03*
Y287207D03*
Y297207D03*
X432485Y67207D03*
Y77207D03*
Y87207D03*
Y97207D03*
Y107207D03*
Y117207D03*
Y127207D03*
Y137207D03*
Y147207D03*
Y157207D03*
Y167207D03*
Y177207D03*
Y187207D03*
Y197207D03*
Y207207D03*
Y217207D03*
Y227207D03*
Y237207D03*
Y247207D03*
Y257207D03*
Y267207D03*
Y277207D03*
Y287207D03*
Y297207D03*
D02*
D94*
X145989Y31616D03*
X155989D03*
X165989D03*
X175989D03*
X185989D03*
X195989D03*
X205989D03*
X215989D03*
X225989D03*
X235989D03*
X245989D03*
X255989D03*
X265989D03*
X275989D03*
X285989D03*
X295989D03*
X305989D03*
X315989D03*
X325989D03*
X335989D03*
X345989D03*
X355989D03*
X365989D03*
X375989D03*
X385989D03*
D02*
D119*
X137485Y68457D03*
X155989Y67207D03*
D02*
D120*
X386235Y322207D03*
D02*
D121*
X146235Y312207D03*
Y322207D03*
X156235Y312207D03*
Y322207D03*
X166235Y312207D03*
Y322207D03*
X176235Y312207D03*
Y322207D03*
X186235Y312207D03*
Y322207D03*
X196235Y312207D03*
Y322207D03*
X206235Y312207D03*
Y322207D03*
X216235Y312207D03*
Y322207D03*
X226235Y312207D03*
Y322207D03*
X236235Y312207D03*
Y322207D03*
X246235Y312207D03*
Y322207D03*
X256235Y312207D03*
Y322207D03*
X266235Y312207D03*
Y322207D03*
X276235Y312207D03*
Y322207D03*
X286235Y312207D03*
Y322207D03*
X296235Y312207D03*
Y322207D03*
X306235Y312207D03*
Y322207D03*
X316235Y312207D03*
Y322207D03*
X326235Y312207D03*
Y322207D03*
X336235Y312207D03*
Y322207D03*
X346235Y312207D03*
Y322207D03*
X356235Y312207D03*
Y322207D03*
X366235Y312207D03*
Y322207D03*
X376235Y312207D03*
Y322207D03*
X386235Y312207D03*
D02*
D122*
X111035Y318207D03*
X421435D03*
X0Y0D02*
M02*
