G05
M48
;#@! TF.GenerationSoftware,DesignSpark,DesignSpark PCB PRO,10.0.5299
;#@! TF.CreationDate,2021-07-28T12:38:02--9:00*
;#@! TF.FileFunction,Plated,1,2,Buried
;FILE_FORMAT=3:5
;TYPE=PLATED
INCH,TZ
FMAT,2
T1C000.01600
T2C000.03200
T3C000.03500
T4C000.03543
T5C000.11600
T6C000.16535
T7C000.18504
%
T001
X1.22485Y0.67207
X1.22485Y1.07207
X1.22485Y1.57207
X1.22485Y2.07207
X1.22485Y2.57207
X1.22485Y3.07207
X1.22485Y3.44707
X1.59985Y3.44707
X1.76022Y0.68457
X1.82485Y0.68457
X1.82485Y1.07207
X1.82485Y1.57207
X1.82485Y2.07207
X1.82485Y2.57207
X1.82485Y3.04707
X2.01235Y1.07207
X2.01235Y1.57207
X2.01235Y2.07207
X2.01235Y2.57207
X2.02485Y3.44707
X2.11235Y0.82207
X2.11235Y1.32207
X2.11235Y1.82207
X2.11235Y2.32207
X2.19985Y1.07207
X2.19985Y1.57207
X2.19985Y2.07207
X2.19985Y2.57207
X2.31235Y0.82207
X2.31235Y1.32207
X2.31235Y1.82207
X2.31235Y2.32207
X2.41235Y1.07207
X2.41235Y1.57207
X2.41235Y2.07207
X2.41235Y2.57207
X2.51235Y0.82207
X2.51235Y1.32207
X2.51235Y1.82207
X2.51235Y2.32207
X2.52485Y3.44707
X2.61235Y1.07207
X2.61235Y1.57207
X2.61235Y2.07207
X2.61235Y2.57207
X2.71235Y0.82207
X2.71235Y1.32207
X2.71235Y1.82207
X2.71235Y2.32207
X2.81235Y1.07207
X2.81235Y1.57207
X2.81235Y2.07207
X2.81235Y2.57207
X2.91235Y0.82207
X2.91235Y1.32207
X2.91235Y1.82207
X2.91235Y2.32207
X3.01235Y1.07207
X3.01235Y1.57207
X3.01235Y2.07207
X3.01235Y2.57207
X3.02485Y3.44707
X3.11235Y0.82207
X3.11235Y1.32207
X3.11235Y1.82207
X3.11235Y2.32207
X3.21235Y1.07207
X3.21235Y1.57207
X3.21235Y2.07207
X3.21235Y2.57207
X3.31235Y0.82207
X3.31235Y1.32207
X3.31235Y1.82207
X3.31235Y2.32207
X3.41235Y1.07207
X3.41235Y1.57207
X3.41235Y2.07207
X3.41235Y2.57207
X3.51235Y0.82207
X3.51235Y1.32207
X3.51235Y1.82207
X3.51235Y2.32207
X3.52485Y3.44707
X3.61235Y1.57207
X3.61235Y2.07207
X3.61235Y2.57207
X3.71235Y1.32207
X3.71235Y1.82207
X3.71235Y2.32207
X3.83735Y1.07207
X3.83735Y1.57207
X3.83735Y2.07207
X3.83735Y2.57207
X3.96235Y3.44707
X3.97485Y0.65957
X3.97485Y1.07207
X3.97485Y1.57207
X3.97485Y2.07207
X3.97485Y2.57207
T002
X1.37485Y0.68457
X1.55989Y0.67207
T003
X1.46235Y3.12207
X1.46235Y3.22207
X1.56235Y3.12207
X1.56235Y3.22207
X1.66235Y3.12207
X1.66235Y3.22207
X1.76235Y3.12207
X1.76235Y3.22207
X1.86235Y3.12207
X1.86235Y3.22207
X1.96235Y3.12207
X1.96235Y3.22207
X2.06235Y3.12207
X2.06235Y3.22207
X2.16235Y3.12207
X2.16235Y3.22207
X2.26235Y3.12207
X2.26235Y3.22207
X2.36235Y3.12207
X2.36235Y3.22207
X2.46235Y3.12207
X2.46235Y3.22207
X2.56235Y3.12207
X2.56235Y3.22207
X2.66235Y3.12207
X2.66235Y3.22207
X2.76235Y3.12207
X2.76235Y3.22207
X2.86235Y3.12207
X2.86235Y3.22207
X2.96235Y3.12207
X2.96235Y3.22207
X3.06235Y3.12207
X3.06235Y3.22207
X3.16235Y3.12207
X3.16235Y3.22207
X3.26235Y3.12207
X3.26235Y3.22207
X3.36235Y3.12207
X3.36235Y3.22207
X3.46235Y3.12207
X3.46235Y3.22207
X3.56235Y3.12207
X3.56235Y3.22207
X3.66235Y3.12207
X3.66235Y3.22207
X3.76235Y3.12207
X3.76235Y3.22207
X3.86235Y3.12207
X3.86235Y3.22207
T004
X0.67485Y1.17207
X0.67485Y1.27207
X0.67485Y1.37207
X0.67485Y1.47207
X0.67485Y1.57207
X0.67485Y1.67207
X0.67485Y1.77207
X0.67485Y1.87207
X0.67485Y1.97207
X0.67485Y2.07207
X0.67485Y2.17207
X0.67485Y2.27207
X0.67485Y2.37207
X0.67485Y2.47207
X0.67485Y2.57207
X0.67485Y2.67207
X0.67485Y2.77207
X0.67485Y2.87207
X0.67485Y2.97207
X0.67485Y3.07207
X0.67485Y3.17207
X0.67485Y3.27207
X0.77485Y1.17207
X0.77485Y1.27207
X0.77485Y1.37207
X0.77485Y1.47207
X0.77485Y1.57207
X0.77485Y1.67207
X0.77485Y1.77207
X0.77485Y1.87207
X0.77485Y1.97207
X0.77485Y2.07207
X0.77485Y2.17207
X0.77485Y2.27207
X0.77485Y2.37207
X0.77485Y2.47207
X0.77485Y2.57207
X0.77485Y2.67207
X0.77485Y2.77207
X0.77485Y2.87207
X0.77485Y2.97207
X0.77485Y3.07207
X0.77485Y3.17207
X0.77485Y3.27207
X0.87485Y1.17207
X0.87485Y1.27207
X0.87485Y1.37207
X0.87485Y1.47207
X0.87485Y1.57207
X0.87485Y1.67207
X0.87485Y1.77207
X0.87485Y1.87207
X0.87485Y1.97207
X0.87485Y2.07207
X0.87485Y2.17207
X0.87485Y2.27207
X0.87485Y2.37207
X0.87485Y2.47207
X0.87485Y2.57207
X0.87485Y2.67207
X0.87485Y2.77207
X0.87485Y2.87207
X0.87485Y2.97207
X0.87485Y3.07207
X0.87485Y3.17207
X0.87485Y3.27207
X0.97485Y1.17207
X0.97485Y1.27207
X0.97485Y1.37207
X0.97485Y1.47207
X0.97485Y1.57207
X0.97485Y1.67207
X0.97485Y1.77207
X0.97485Y1.87207
X0.97485Y1.97207
X0.97485Y2.07207
X0.97485Y2.17207
X0.97485Y2.27207
X0.97485Y2.37207
X0.97485Y2.47207
X0.97485Y2.57207
X0.97485Y2.67207
X0.97485Y2.77207
X0.97485Y2.87207
X0.97485Y2.97207
X0.97485Y3.07207
X0.97485Y3.17207
X0.97485Y3.27207
X4.12485Y0.67207
X4.12485Y0.77207
X4.12485Y0.87207
X4.12485Y0.97207
X4.12485Y1.07207
X4.12485Y1.17207
X4.12485Y1.27207
X4.12485Y1.37207
X4.12485Y1.47207
X4.12485Y1.57207
X4.12485Y1.67207
X4.12485Y1.77207
X4.12485Y1.87207
X4.12485Y1.97207
X4.12485Y2.07207
X4.12485Y2.17207
X4.12485Y2.27207
X4.12485Y2.37207
X4.12485Y2.47207
X4.12485Y2.57207
X4.12485Y2.67207
X4.12485Y2.77207
X4.12485Y2.87207
X4.12485Y2.97207
X4.22485Y0.67207
X4.22485Y0.77207
X4.22485Y0.87207
X4.22485Y0.97207
X4.22485Y1.07207
X4.22485Y1.17207
X4.22485Y1.27207
X4.22485Y1.37207
X4.22485Y1.47207
X4.22485Y1.57207
X4.22485Y1.67207
X4.22485Y1.77207
X4.22485Y1.87207
X4.22485Y1.97207
X4.22485Y2.07207
X4.22485Y2.17207
X4.22485Y2.27207
X4.22485Y2.37207
X4.22485Y2.47207
X4.22485Y2.57207
X4.22485Y2.67207
X4.22485Y2.77207
X4.22485Y2.87207
X4.22485Y2.97207
X4.32485Y0.67207
X4.32485Y0.77207
X4.32485Y0.87207
X4.32485Y0.97207
X4.32485Y1.07207
X4.32485Y1.17207
X4.32485Y1.27207
X4.32485Y1.37207
X4.32485Y1.47207
X4.32485Y1.57207
X4.32485Y1.67207
X4.32485Y1.77207
X4.32485Y1.87207
X4.32485Y1.97207
X4.32485Y2.07207
X4.32485Y2.17207
X4.32485Y2.27207
X4.32485Y2.37207
X4.32485Y2.47207
X4.32485Y2.57207
X4.32485Y2.67207
X4.32485Y2.77207
X4.32485Y2.87207
X4.32485Y2.97207
T005
X1.11035Y3.18207
X4.21435Y3.18207
T006
X1.56264Y1.07994
X3.75713Y0.88309
T007
X1.55437Y0.91459
X3.76540Y0.72561
M30
