G04 DesignSpark PCB PRO Gerber Version 10.0 Build 5299*
G04 #@! TF.Part,Single*
G04 #@! TF.FilePolarity,Positive*
%FSLAX35Y35*%
%MOIN*%
G04 #@! TA.AperFunction,ViaDrill*
%ADD26C,0.01600*%
%ADD148C,0.03200*%
G04 #@! TA.AperFunction,ComponentDrill*
%ADD76C,0.03500*%
G04 #@! TA.AperFunction,MechanicalDrill*
%ADD72C,0.03543*%
G04 #@! TA.AperFunction,ComponentDrill*
%ADD145C,0.11600*%
G04 #@! TA.AperFunction,MechanicalDrill*
%ADD28C,0.16535*%
%ADD27C,0.18504*%
G04 #@! TD.AperFunction*
X0Y0D02*
D02*
D26*
X122485Y67207D03*
Y107207D03*
Y157207D03*
Y207207D03*
Y257207D03*
Y307207D03*
Y344707D03*
X159985D03*
X176022Y68457D03*
X182485D03*
Y107207D03*
Y157207D03*
Y207207D03*
Y257207D03*
Y304707D03*
X201235Y107207D03*
Y157207D03*
Y207207D03*
Y257207D03*
X202485Y344707D03*
X211235Y82207D03*
Y132207D03*
Y182207D03*
Y232207D03*
X219985Y107207D03*
Y157207D03*
Y207207D03*
Y257207D03*
X231235Y82207D03*
Y132207D03*
Y182207D03*
Y232207D03*
X241235Y107207D03*
Y157207D03*
Y207207D03*
Y257207D03*
X251235Y82207D03*
Y132207D03*
Y182207D03*
Y232207D03*
X252485Y344707D03*
X261235Y107207D03*
Y157207D03*
Y207207D03*
Y257207D03*
X271235Y82207D03*
Y132207D03*
Y182207D03*
Y232207D03*
X281235Y107207D03*
Y157207D03*
Y207207D03*
Y257207D03*
X291235Y82207D03*
Y132207D03*
Y182207D03*
Y232207D03*
X301235Y107207D03*
Y157207D03*
Y207207D03*
Y257207D03*
X302485Y344707D03*
X311235Y82207D03*
Y132207D03*
Y182207D03*
Y232207D03*
X321235Y107207D03*
Y157207D03*
Y207207D03*
Y257207D03*
X331235Y82207D03*
Y132207D03*
Y182207D03*
Y232207D03*
X341235Y107207D03*
Y157207D03*
Y207207D03*
Y257207D03*
X351235Y82207D03*
Y132207D03*
Y182207D03*
Y232207D03*
X352485Y344707D03*
X361235Y157207D03*
Y207207D03*
Y257207D03*
X371235Y132207D03*
Y182207D03*
Y232207D03*
X383735Y107207D03*
Y157207D03*
Y207207D03*
Y257207D03*
X396235Y344707D03*
X397485Y65957D03*
Y107207D03*
Y157207D03*
Y207207D03*
Y257207D03*
D02*
D27*
X155437Y91459D03*
X376540Y72561D03*
D02*
D28*
X156264Y107994D03*
X375713Y88309D03*
D02*
D72*
X67485Y117207D03*
Y127207D03*
Y137207D03*
Y147207D03*
Y157207D03*
Y167207D03*
Y177207D03*
Y187207D03*
Y197207D03*
Y207207D03*
Y217207D03*
Y227207D03*
Y237207D03*
Y247207D03*
Y257207D03*
Y267207D03*
Y277207D03*
Y287207D03*
Y297207D03*
Y307207D03*
Y317207D03*
Y327207D03*
X77485Y117207D03*
Y127207D03*
Y137207D03*
Y147207D03*
Y157207D03*
Y167207D03*
Y177207D03*
Y187207D03*
Y197207D03*
Y207207D03*
Y217207D03*
Y227207D03*
Y237207D03*
Y247207D03*
Y257207D03*
Y267207D03*
Y277207D03*
Y287207D03*
Y297207D03*
Y307207D03*
Y317207D03*
Y327207D03*
X87485Y117207D03*
Y127207D03*
Y137207D03*
Y147207D03*
Y157207D03*
Y167207D03*
Y177207D03*
Y187207D03*
Y197207D03*
Y207207D03*
Y217207D03*
Y227207D03*
Y237207D03*
Y247207D03*
Y257207D03*
Y267207D03*
Y277207D03*
Y287207D03*
Y297207D03*
Y307207D03*
Y317207D03*
Y327207D03*
X97485Y117207D03*
Y127207D03*
Y137207D03*
Y147207D03*
Y157207D03*
Y167207D03*
Y177207D03*
Y187207D03*
Y197207D03*
Y207207D03*
Y217207D03*
Y227207D03*
Y237207D03*
Y247207D03*
Y257207D03*
Y267207D03*
Y277207D03*
Y287207D03*
Y297207D03*
Y307207D03*
Y317207D03*
Y327207D03*
X412485Y67207D03*
Y77207D03*
Y87207D03*
Y97207D03*
Y107207D03*
Y117207D03*
Y127207D03*
Y137207D03*
Y147207D03*
Y157207D03*
Y167207D03*
Y177207D03*
Y187207D03*
Y197207D03*
Y207207D03*
Y217207D03*
Y227207D03*
Y237207D03*
Y247207D03*
Y257207D03*
Y267207D03*
Y277207D03*
Y287207D03*
Y297207D03*
X422485Y67207D03*
Y77207D03*
Y87207D03*
Y97207D03*
Y107207D03*
Y117207D03*
Y127207D03*
Y137207D03*
Y147207D03*
Y157207D03*
Y167207D03*
Y177207D03*
Y187207D03*
Y197207D03*
Y207207D03*
Y217207D03*
Y227207D03*
Y237207D03*
Y247207D03*
Y257207D03*
Y267207D03*
Y277207D03*
Y287207D03*
Y297207D03*
X432485Y67207D03*
Y77207D03*
Y87207D03*
Y97207D03*
Y107207D03*
Y117207D03*
Y127207D03*
Y137207D03*
Y147207D03*
Y157207D03*
Y167207D03*
Y177207D03*
Y187207D03*
Y197207D03*
Y207207D03*
Y217207D03*
Y227207D03*
Y237207D03*
Y247207D03*
Y257207D03*
Y267207D03*
Y277207D03*
Y287207D03*
Y297207D03*
D02*
D76*
X146235Y312207D03*
Y322207D03*
X156235Y312207D03*
Y322207D03*
X166235Y312207D03*
Y322207D03*
X176235Y312207D03*
Y322207D03*
X186235Y312207D03*
Y322207D03*
X196235Y312207D03*
Y322207D03*
X206235Y312207D03*
Y322207D03*
X216235Y312207D03*
Y322207D03*
X226235Y312207D03*
Y322207D03*
X236235Y312207D03*
Y322207D03*
X246235Y312207D03*
Y322207D03*
X256235Y312207D03*
Y322207D03*
X266235Y312207D03*
Y322207D03*
X276235Y312207D03*
Y322207D03*
X286235Y312207D03*
Y322207D03*
X296235Y312207D03*
Y322207D03*
X306235Y312207D03*
Y322207D03*
X316235Y312207D03*
Y322207D03*
X326235Y312207D03*
Y322207D03*
X336235Y312207D03*
Y322207D03*
X346235Y312207D03*
Y322207D03*
X356235Y312207D03*
Y322207D03*
X366235Y312207D03*
Y322207D03*
X376235Y312207D03*
Y322207D03*
X386235Y312207D03*
Y322207D03*
D02*
D145*
X111035Y318207D03*
X421435D03*
D02*
D148*
X137485Y68457D03*
X155989Y67207D03*
X0Y0D02*
M02*
